<?xml version="1.0" encoding="utf-8"?>
<!-- Generator: Adobe Illustrator 22.0.1, SVG Export Plug-In . SVG Version: 6.00 Build 0)  -->
<svg version="1.1" id="Ebene_1" xmlns="http://www.w3.org/2000/svg" xmlns:xlink="http://www.w3.org/1999/xlink" x="0px" y="0px"
	 viewBox="0 0 110 75.2" style="enable-background:new 0 0 110 75.2;" xml:space="preserve">
<style type="text/css">
	.st0{enable-background:new    ;}
	.st1{fill:#FFFFFF;}
	.st2{fill:#F47211;}
</style>
<g id="Gruppe_58" transform="translate(-936 1103)">
	<g class="st0">
		<path class="st1" d="M944.9-1029.1c-0.2-0.5-0.4-1-0.5-1.5c-0.2-0.5-0.3-0.9-0.5-1.4h-5.1c-0.2,0.4-0.3,0.9-0.5,1.4
			s-0.3,1-0.5,1.5h-1.1c0.4-1.1,0.8-2.1,1.1-3c0.4-0.9,0.7-1.8,1-2.7c0.3-0.8,0.7-1.6,1-2.4s0.7-1.5,1-2.3h0.9
			c0.4,0.8,0.7,1.5,1,2.3s0.7,1.6,1,2.4s0.7,1.7,1,2.7c0.3,0.9,0.7,1.9,1.1,3H944.9z M941.4-1038.3c-0.4,0.9-0.7,1.7-1.1,2.6
			c-0.4,0.9-0.7,1.8-1.1,2.9h4.4c-0.4-1-0.8-2-1.1-2.9C942.1-1036.6,941.7-1037.5,941.4-1038.3z"/>
		<path class="st1" d="M949.5-1029c-0.3,0-0.6-0.1-0.9-0.1c-0.2-0.1-0.5-0.2-0.6-0.3c-0.2-0.2-0.3-0.4-0.4-0.6s-0.1-0.6-0.1-0.9
			v-9.6l1-0.2v9.8c0,0.2,0,0.4,0.1,0.6c0,0.1,0.1,0.3,0.2,0.3s0.2,0.1,0.4,0.2c0.1,0,0.3,0.1,0.5,0.1L949.5-1029z"/>
		<path class="st1" d="M953.7-1037c0.5,0,0.9,0.1,1.3,0.2c0.4,0.1,0.6,0.3,0.9,0.6s0.4,0.6,0.5,0.9c0.1,0.4,0.1,0.7,0.1,1.1v4.9
			c-0.1,0-0.2,0.1-0.4,0.1s-0.4,0.1-0.7,0.1s-0.5,0.1-0.8,0.1s-0.6,0-0.9,0c-0.4,0-0.8,0-1.1-0.1s-0.6-0.2-0.9-0.4s-0.5-0.4-0.6-0.8
			c-0.1-0.3-0.2-0.7-0.2-1.1s0.1-0.8,0.2-1.1c0.2-0.3,0.4-0.5,0.7-0.7s0.6-0.3,1-0.4s0.8-0.1,1.3-0.1c0.1,0,0.3,0,0.4,0
			c0.2,0,0.3,0,0.5,0.1s0.3,0,0.4,0.1c0.1,0,0.2,0,0.2,0.1v-0.5c0-0.3,0-0.5-0.1-0.8s-0.1-0.5-0.3-0.7c-0.1-0.2-0.3-0.4-0.6-0.5
			c-0.2-0.1-0.6-0.2-1-0.2c-0.6,0-1,0-1.3,0.1s-0.5,0.1-0.6,0.2l-0.1-0.9c0.2-0.1,0.4-0.2,0.8-0.2C952.8-1037,953.2-1037,953.7-1037
			z M953.8-1029.8c0.4,0,0.7,0,1,0s0.5-0.1,0.7-0.1v-2.7c-0.1,0-0.3-0.1-0.5-0.2s-0.6-0.1-1-0.1c-0.2,0-0.5,0-0.8,0.1
			c-0.3,0-0.5,0.1-0.7,0.2s-0.4,0.3-0.5,0.5s-0.2,0.5-0.2,0.8s0,0.5,0.1,0.7s0.2,0.4,0.4,0.5s0.4,0.2,0.6,0.3
			C953.2-1029.8,953.5-1029.8,953.8-1029.8z"/>
		<path class="st1" d="M961.6-1037c0.3,0,0.6,0,0.9,0.1c0.3,0,0.5,0.1,0.6,0.2l-0.2,0.8c-0.1,0-0.2-0.1-0.5-0.1s-0.6-0.1-1-0.1
			s-0.8,0-1,0.1c-0.3,0.1-0.4,0.1-0.5,0.2v6.8h-1v-7.4c0.2-0.1,0.6-0.2,1-0.3C960.4-1036.9,961-1037,961.6-1037z"/>
		<path class="st1" d="M964.6-1036.6c0.3-0.1,0.7-0.2,1.1-0.3s1.1-0.2,1.8-0.2c1,0,1.7,0.3,2.1,0.9c0,0,0.1-0.1,0.3-0.2
			c0.1-0.1,0.3-0.2,0.5-0.3s0.5-0.2,0.8-0.3s0.6-0.1,1-0.1c0.6,0,1.1,0.1,1.4,0.3s0.6,0.4,0.8,0.7c0.2,0.3,0.3,0.7,0.4,1.1
			c0.1,0.4,0.1,0.9,0.1,1.4v4.3h-1v-4c0-0.5,0-1-0.1-1.3s-0.1-0.7-0.3-0.9s-0.3-0.4-0.6-0.6s-0.6-0.2-1-0.2c-0.3,0-0.6,0-0.8,0.1
			s-0.5,0.1-0.6,0.2c-0.2,0.1-0.3,0.2-0.4,0.2s-0.2,0.1-0.2,0.2c0.1,0.3,0.2,0.6,0.2,0.9s0.1,0.7,0.1,1v4.4h-1v-4c0-0.5,0-1-0.1-1.3
			s-0.1-0.7-0.3-0.9c-0.1-0.2-0.3-0.4-0.6-0.6s-0.6-0.2-1-0.2c-0.5,0-0.9,0-1.2,0.1s-0.5,0.1-0.6,0.1v6.8h-1v-7.3H964.6z"/>
		<path class="st1" d="M983.3-1037c0.5,0,0.9,0.1,1.3,0.2c0.4,0.1,0.6,0.3,0.9,0.6s0.4,0.6,0.5,0.9c0.1,0.4,0.1,0.7,0.1,1.1v4.9
			c-0.1,0-0.2,0.1-0.4,0.1s-0.4,0.1-0.7,0.1s-0.5,0.1-0.8,0.1s-0.6,0-0.9,0c-0.4,0-0.8,0-1.1-0.1s-0.6-0.2-0.9-0.4s-0.5-0.4-0.6-0.8
			c-0.1-0.3-0.2-0.7-0.2-1.1s0.1-0.8,0.2-1.1c0.2-0.3,0.4-0.5,0.7-0.7s0.6-0.3,1-0.4s0.8-0.1,1.3-0.1c0.1,0,0.3,0,0.4,0
			c0.2,0,0.3,0,0.5,0.1s0.3,0,0.4,0.1c0.1,0,0.2,0,0.2,0.1v-0.5c0-0.3,0-0.5-0.1-0.8s-0.1-0.5-0.3-0.7c-0.1-0.2-0.3-0.4-0.6-0.5
			c-0.2-0.1-0.6-0.2-1-0.2c-0.6,0-1,0-1.3,0.1s-0.5,0.1-0.6,0.2l-0.1-0.9c0.2-0.1,0.4-0.2,0.8-0.2C982.4-1037,982.8-1037,983.3-1037
			z M983.4-1029.8c0.4,0,0.7,0,1,0s0.5-0.1,0.7-0.1v-2.7c-0.1,0-0.3-0.1-0.5-0.2s-0.6-0.1-1-0.1c-0.2,0-0.5,0-0.8,0.1
			c-0.3,0-0.5,0.1-0.7,0.2s-0.4,0.3-0.5,0.5s-0.2,0.5-0.2,0.8s0,0.5,0.1,0.7s0.2,0.4,0.4,0.5s0.4,0.2,0.6,0.3
			C982.8-1029.8,983.1-1029.8,983.4-1029.8z"/>
		<path class="st1" d="M990.5-1033.3c0.4,0.2,0.7,0.5,1.1,0.9c0.4,0.3,0.7,0.7,1.1,1.1c0.3,0.4,0.7,0.8,1,1.2
			c0.3,0.4,0.6,0.8,0.8,1.1h-1.2c-0.2-0.4-0.5-0.8-0.8-1.2c-0.3-0.4-0.6-0.7-1-1.1c-0.3-0.3-0.7-0.6-1-0.9s-0.6-0.5-0.9-0.6v3.8h-1
			v-11.5l1-0.2v7.2c0.2-0.2,0.5-0.4,0.8-0.7c0.3-0.3,0.6-0.6,1-0.9c0.3-0.3,0.6-0.6,0.9-0.9s0.5-0.5,0.7-0.8h1.2
			c-0.2,0.2-0.5,0.5-0.8,0.8s-0.6,0.6-0.9,0.9c-0.3,0.3-0.6,0.6-1,0.9C991.1-1033.9,990.8-1033.6,990.5-1033.3z"/>
		<path class="st1" d="M996.9-1036.9h3.1v0.8h-3.1v4.1c0,0.4,0,0.8,0.1,1.1s0.2,0.5,0.3,0.6s0.3,0.2,0.5,0.3s0.4,0.1,0.7,0.1
			c0.4,0,0.7,0,1-0.1s0.4-0.2,0.6-0.3l0.2,0.8c-0.1,0.1-0.4,0.2-0.7,0.3c-0.3,0.1-0.7,0.2-1.1,0.2c-0.5,0-0.9-0.1-1.2-0.2
			s-0.6-0.3-0.8-0.6c-0.2-0.3-0.3-0.6-0.4-1s-0.1-0.8-0.1-1.3v-7.1l1-0.2L996.9-1036.9L996.9-1036.9z"/>
		<path class="st1" d="M1003-1039.2c0,0.2-0.1,0.4-0.2,0.5c-0.1,0.1-0.3,0.2-0.5,0.2s-0.4-0.1-0.5-0.2s-0.2-0.3-0.2-0.5
			s0.1-0.4,0.2-0.5c0.1-0.1,0.3-0.2,0.5-0.2s0.4,0.1,0.5,0.2C1002.9-1039.6,1003-1039.4,1003-1039.2z M1002.8-1029.1h-1v-7.8h1
			V-1029.1z"/>
		<path class="st1" d="M1007.7-1030.1c0.2-0.4,0.4-0.9,0.6-1.5c0.2-0.6,0.4-1.1,0.6-1.7c0.2-0.6,0.4-1.2,0.6-1.8
			c0.2-0.6,0.3-1.2,0.4-1.7h1c-0.2,0.7-0.4,1.4-0.6,2.1c-0.2,0.7-0.5,1.4-0.7,2c-0.2,0.7-0.5,1.3-0.8,1.9s-0.5,1.2-0.8,1.7h-0.9
			c-0.3-0.5-0.5-1.1-0.8-1.7s-0.5-1.2-0.8-1.9c-0.2-0.7-0.5-1.3-0.7-2s-0.4-1.4-0.6-2.1h1c0.1,0.5,0.3,1.1,0.4,1.7
			c0.2,0.6,0.4,1.2,0.6,1.8c0.2,0.6,0.4,1.2,0.6,1.7S1007.5-1030.6,1007.7-1030.1z"/>
		<path class="st1" d="M1013.8-1039.2c0,0.2-0.1,0.4-0.2,0.5c-0.1,0.1-0.3,0.2-0.5,0.2s-0.4-0.1-0.5-0.2s-0.2-0.3-0.2-0.5
			s0.1-0.4,0.2-0.5c0.1-0.1,0.3-0.2,0.5-0.2s0.4,0.1,0.5,0.2C1013.7-1039.6,1013.8-1039.4,1013.8-1039.2z M1013.5-1029.1h-1v-7.8h1
			V-1029.1z"/>
		<path class="st1" d="M1015.6-1033c0-0.7,0.1-1.3,0.3-1.8s0.4-0.9,0.8-1.3c0.3-0.3,0.7-0.6,1.1-0.8s0.8-0.2,1.3-0.2
			c1,0,1.7,0.3,2.3,0.9s0.8,1.6,0.8,2.9c0,0.1,0,0.2,0,0.2c0,0.1,0,0.2,0,0.2h-5.4c0,1,0.3,1.7,0.7,2.2s1.1,0.8,2.1,0.8
			c0.5,0,1,0,1.3-0.2c0.3-0.1,0.5-0.2,0.7-0.3l0.2,0.8c-0.1,0.1-0.4,0.2-0.8,0.3c-0.4,0.1-0.8,0.2-1.4,0.2c-0.7,0-1.3-0.1-1.7-0.3
			c-0.5-0.2-0.9-0.5-1.2-0.8c-0.3-0.4-0.5-0.8-0.7-1.3S1015.6-1032.4,1015.6-1033z M1021.1-1033.6c0-0.8-0.2-1.4-0.6-1.9
			c-0.4-0.5-0.9-0.7-1.5-0.7c-0.4,0-0.7,0.1-0.9,0.2c-0.3,0.1-0.5,0.3-0.7,0.6c-0.2,0.2-0.4,0.5-0.5,0.8s-0.2,0.6-0.2,1H1021.1z"/>
		<path class="st1" d="M1027-1037c0.3,0,0.6,0,0.9,0.1c0.3,0,0.5,0.1,0.6,0.2l-0.2,0.8c-0.1,0-0.2-0.1-0.5-0.1s-0.6-0.1-1-0.1
			s-0.8,0-1,0.1c-0.3,0.1-0.4,0.1-0.5,0.2v6.8h-1v-7.4c0.2-0.1,0.6-0.2,1-0.3C1025.8-1036.9,1026.3-1037,1027-1037z"/>
		<path class="st1" d="M1029.5-1033c0-0.7,0.1-1.3,0.3-1.8c0.2-0.5,0.4-0.9,0.8-1.3c0.3-0.3,0.7-0.6,1.1-0.8s0.8-0.2,1.3-0.2
			c1,0,1.7,0.3,2.3,0.9c0.6,0.6,0.8,1.6,0.8,2.9c0,0.1,0,0.2,0,0.2c0,0.1,0,0.2,0,0.2h-5.4c0,1,0.3,1.7,0.7,2.2
			c0.4,0.5,1.1,0.8,2.1,0.8c0.5,0,1,0,1.3-0.2c0.3-0.1,0.5-0.2,0.7-0.3l0.2,0.8c-0.1,0.1-0.4,0.2-0.8,0.3c-0.4,0.1-0.8,0.2-1.4,0.2
			c-0.7,0-1.3-0.1-1.7-0.3c-0.5-0.2-0.9-0.5-1.2-0.8c-0.3-0.4-0.5-0.8-0.7-1.3S1029.5-1032.4,1029.5-1033z M1035-1033.6
			c0-0.8-0.2-1.4-0.6-1.9s-0.9-0.7-1.5-0.7c-0.4,0-0.7,0.1-0.9,0.2c-0.3,0.1-0.5,0.3-0.7,0.6c-0.2,0.2-0.4,0.5-0.5,0.8
			s-0.2,0.6-0.2,1H1035z"/>
		<path class="st1" d="M1038.2-1036.6c0.3-0.1,0.7-0.2,1.2-0.3s1.1-0.2,1.8-0.2c0.6,0,1.1,0.1,1.5,0.3c0.4,0.2,0.7,0.4,0.9,0.7
			c0.2,0.3,0.4,0.7,0.5,1.1s0.1,0.9,0.1,1.5v4.3h-1v-4c0-0.6,0-1-0.1-1.4s-0.2-0.7-0.4-0.9c-0.2-0.2-0.4-0.4-0.7-0.5
			c-0.3-0.1-0.6-0.2-1.1-0.2s-0.9,0-1.2,0.1c-0.3,0.1-0.6,0.1-0.7,0.1v6.8h-1v-7.4H1038.2z"/>
	</g>
	<g>
		<path class="st2" d="M1007.3-1092.2c0-1.2,0-2.4,0-3.7c0-0.3-0.2-0.5-0.5-0.6l-16-5c-0.1,0-0.1,0-0.2,0h-0.1l-16,5
			c-0.3,0.1-0.5,0.3-0.5,0.6c0,1.4,0,2.6,0,3.8c0,1.1,0,2.1,0,3.2c-0.2,7.2-0.3,12.9,2.1,17.8c3,6,8.1,10.6,14.4,13.1
			c0.1,0,0.2,0.1,0.2,0l0,0l0,0h0.1c6.3-2.5,11.4-7.1,14.5-13.1c2.4-4.9,2.3-10.6,2.1-17.8C1007.3-1090,1007.3-1091,1007.3-1092.2z
			 M1004-1071.8c-2.8,5.5-7.5,9.9-13.2,12.3l-0.3,0.1l-0.3-0.1c-5.7-2.4-10.4-6.7-13.2-12.3c-2.3-4.6-2.2-10.2-2-17.2
			c0-0.9,0-1.8,0-2.7c0-1,0-2.1,0-3.1v-0.6l15.3-4.8l15.3,4.8v0.6c0,1.1,0,2.1,0,3.1c0,0.9,0,1.9,0,2.7
			C1006.2-1082,1006.3-1076.5,1004-1071.8z"/>
	</g>
</g>
</svg>
