<?xml version="1.0" encoding="utf-8"?>
<!-- Generator: Adobe Illustrator 22.0.1, SVG Export Plug-In . SVG Version: 6.00 Build 0)  -->
<svg version="1.1" id="Ebene_1" xmlns="http://www.w3.org/2000/svg" xmlns:xlink="http://www.w3.org/1999/xlink" x="0px" y="0px"
	 viewBox="0 0 106 78.6" style="enable-background:new 0 0 106 78.6;" xml:space="preserve">
<style type="text/css">
	.st0{fill:#F47211;}
	.st1{enable-background:new    ;}
	.st2{fill:#FFFFFF;}
</style>
<g id="Gruppe_61" transform="translate(-936.517 1111.515)">
	<g id="FahrzeugstatusIcon" transform="translate(61.909 238.062)">
		<g id="Pfad_25">
			<path class="st0" d="M926.9-1349.6c-3,0-5.4,2.4-5.4,5.4l0,0l0,0v19.8c-5.3,2.9-7.2,9.6-4.2,14.9c0,0.1,0.1,0.1,0.1,0.2
				c3,5.3,9.8,7.2,15.1,4.1l0,0c5.3-3.1,7.2-9.9,4.1-15.3c-1-1.7-2.4-3.1-4.1-4.1v-19.9C932.2-1347.4,929.8-1349.6,926.9-1349.6z
				 M937-1314.7c0,5.6-4.5,10.1-10.1,10.1s-10.1-4.5-10.1-10.1c0-3.8,2.1-7.2,5.4-8.9c0.1-0.1,0.3-0.3,0.3-0.4v-5.3h4
				c0.3,0,0.6-0.3,0.6-0.6c0-0.3-0.3-0.6-0.6-0.6h-4v-4.1h4c0.3,0,0.6-0.3,0.6-0.6c0-0.3-0.3-0.6-0.6-0.6h-4v-3.8h4
				c0.3,0,0.6-0.3,0.6-0.6c0-0.3-0.3-0.6-0.6-0.6h-4v-3.6c0-2.4,2-4.4,4.4-4.4s4.4,2,4.4,4.4v20.3c0,0.1,0.1,0.4,0.3,0.4
				C935-1321.8,937-1318.4,937-1314.7z"/>
		</g>
	</g>
	<g class="st1">
		<path class="st2" d="M939.7-1036.4v-10.4h5.9v0.9h-4.9v3.7h4.4v0.9h-4.4v5L939.7-1036.4L939.7-1036.4z"/>
		<path class="st2" d="M949.2-1044.4c0.5,0,0.9,0.1,1.3,0.2c0.4,0.1,0.6,0.3,0.9,0.6c0.2,0.3,0.4,0.6,0.5,0.9
			c0.1,0.4,0.1,0.7,0.1,1.1v4.9c-0.1,0-0.2,0.1-0.4,0.1s-0.4,0.1-0.7,0.1s-0.5,0.1-0.8,0.1s-0.6,0-0.9,0c-0.4,0-0.8,0-1.1-0.1
			s-0.6-0.2-0.9-0.4s-0.5-0.4-0.6-0.8s-0.2-0.7-0.2-1.1s0.1-0.8,0.2-1.1c0.2-0.3,0.4-0.5,0.7-0.7s0.6-0.3,1-0.4s0.8-0.1,1.3-0.1
			c0.1,0,0.3,0,0.4,0c0.2,0,0.3,0,0.5,0.1c0.1,0,0.3,0,0.4,0.1c0.1,0,0.2,0,0.2,0.1v-0.5c0-0.3,0-0.5-0.1-0.8s-0.1-0.5-0.3-0.7
			c-0.1-0.2-0.3-0.4-0.6-0.5c-0.2-0.1-0.6-0.2-1-0.2c-0.6,0-1,0-1.3,0.1s-0.5,0.1-0.6,0.2l-0.1-0.9c0.2-0.1,0.4-0.2,0.8-0.2
			C948.2-1044.3,948.7-1044.4,949.2-1044.4z M949.3-1037.1c0.4,0,0.7,0,1,0s0.5-0.1,0.7-0.1v-2.7c-0.1,0-0.3-0.1-0.5-0.2
			s-0.6-0.1-1-0.1c-0.2,0-0.5,0-0.8,0.1c-0.3,0-0.5,0.1-0.7,0.2s-0.4,0.3-0.5,0.5s-0.2,0.5-0.2,0.8s0,0.5,0.1,0.7s0.2,0.4,0.4,0.5
			s0.4,0.2,0.6,0.3C948.7-1037.2,948.9-1037.1,949.3-1037.1z"/>
		<path class="st2" d="M954.4-1036.4v-11.5l1-0.2v4.1c0.3-0.1,0.6-0.2,1-0.3c0.3-0.1,0.7-0.1,1-0.1c0.6,0,1.1,0.1,1.5,0.3
			c0.4,0.2,0.7,0.4,1,0.7c0.2,0.3,0.4,0.7,0.5,1.1s0.1,0.9,0.1,1.5v4.3h-1v-4c0-0.6,0-1-0.1-1.4s-0.2-0.7-0.4-0.9
			c-0.2-0.2-0.4-0.4-0.7-0.5s-0.7-0.2-1.1-0.2c-0.2,0-0.4,0-0.5,0c-0.2,0-0.4,0.1-0.5,0.1c-0.2,0-0.3,0.1-0.5,0.1
			c-0.1,0-0.2,0.1-0.3,0.1v6.7h-1V-1036.4z"/>
		<path class="st2" d="M965.6-1044.3c0.3,0,0.6,0,0.9,0.1c0.3,0,0.5,0.1,0.6,0.2l-0.2,0.8c-0.1,0-0.2-0.1-0.5-0.1
			c-0.2,0-0.6-0.1-1-0.1s-0.8,0-1,0.1c-0.3,0.1-0.4,0.1-0.5,0.2v6.8h-1v-7.4c0.2-0.1,0.6-0.2,1-0.3
			C964.5-1044.3,965-1044.3,965.6-1044.3z"/>
		<path class="st2" d="M973.4-1043.4c-0.2,0.3-0.5,0.6-0.9,1.1s-0.8,1-1.2,1.5c-0.4,0.6-0.8,1.2-1.2,1.8s-0.8,1.2-1.1,1.7h4.6v0.8
			h-5.7v-0.7c0.3-0.5,0.6-1,1-1.6s0.8-1.2,1.2-1.7s0.8-1.1,1.2-1.6s0.7-0.9,1-1.2h-4.1v-0.8h5.3L973.4-1043.4L973.4-1043.4z"/>
		<path class="st2" d="M974.8-1040.3c0-0.7,0.1-1.3,0.3-1.8s0.4-0.9,0.8-1.3s0.7-0.6,1.1-0.8c0.4-0.2,0.8-0.2,1.3-0.2
			c1,0,1.7,0.3,2.3,0.9s0.8,1.6,0.8,2.9c0,0.1,0,0.2,0,0.2c0,0.1,0,0.2,0,0.2H976c0,1,0.3,1.7,0.7,2.2s1.1,0.8,2.1,0.8
			c0.5,0,0.9,0,1.3-0.2c0.3-0.1,0.5-0.2,0.7-0.3l0.2,0.8c-0.1,0.1-0.4,0.2-0.8,0.3c-0.4,0.1-0.8,0.2-1.4,0.2c-0.7,0-1.3-0.1-1.7-0.3
			c-0.5-0.2-0.9-0.5-1.2-0.8c-0.3-0.4-0.5-0.8-0.7-1.3C974.9-1039.2,974.8-1039.7,974.8-1040.3z M980.3-1040.9
			c0-0.8-0.2-1.4-0.6-1.9c-0.4-0.5-0.9-0.7-1.5-0.7c-0.4,0-0.7,0.1-0.9,0.2c-0.3,0.1-0.5,0.3-0.7,0.6c-0.2,0.2-0.4,0.5-0.5,0.8
			s-0.2,0.6-0.2,1H980.3z"/>
		<path class="st2" d="M989.5-1036.7c-0.3,0.1-0.7,0.2-1.2,0.3c-0.5,0.1-1.1,0.2-1.8,0.2c-0.6,0-1.1-0.1-1.5-0.3
			c-0.4-0.2-0.7-0.4-0.9-0.7c-0.2-0.3-0.4-0.7-0.5-1.1s-0.2-0.9-0.2-1.5v-4.3h1v4c0,0.5,0,1,0.1,1.4s0.2,0.7,0.4,0.9
			s0.4,0.4,0.7,0.5s0.6,0.2,1,0.2c0.5,0,0.9,0,1.2-0.1s0.6-0.1,0.6-0.1v-6.8h1v7.4H989.5z"/>
		<path class="st2" d="M997.1-1037.3c-0.1,0.1-0.2,0.1-0.3,0.2s-0.3,0.1-0.4,0.2c-0.2,0.1-0.4,0.1-0.6,0.2c-0.2,0-0.5,0.1-0.8,0.1
			c-0.5,0-0.9-0.1-1.3-0.2c-0.4-0.1-0.8-0.4-1.1-0.7s-0.6-0.7-0.8-1.2s-0.3-1.1-0.3-1.7c0-0.5,0.1-1.1,0.3-1.5
			c0.2-0.5,0.4-0.9,0.7-1.2c0.3-0.3,0.7-0.6,1.2-0.8c0.5-0.2,1-0.3,1.5-0.3c0.7,0,1.3,0,1.7,0.1s0.8,0.2,1.1,0.3v7.1
			c0,1.2-0.3,2-0.9,2.5s-1.5,0.7-2.7,0.7c-0.5,0-1,0-1.4-0.1s-0.8-0.2-1-0.3l0.2-0.9c0.2,0.1,0.6,0.2,1,0.3s0.8,0.1,1.3,0.1
			c0.9,0,1.6-0.2,2-0.5c0.4-0.4,0.6-1,0.6-1.8V-1037.3z M997.1-1043.3c-0.2-0.1-0.4-0.1-0.7-0.1s-0.7-0.1-1.2-0.1
			c-0.4,0-0.8,0.1-1.1,0.2s-0.6,0.4-0.8,0.6c-0.2,0.3-0.4,0.6-0.5,0.9s-0.2,0.8-0.2,1.2c0,0.5,0.1,0.9,0.2,1.3s0.3,0.7,0.5,0.9
			c0.2,0.2,0.5,0.4,0.8,0.5s0.6,0.2,0.9,0.2c0.4,0,0.8-0.1,1.2-0.2s0.6-0.3,0.8-0.5L997.1-1043.3L997.1-1043.3z"/>
		<path class="st2" d="M1002.2-1037.1c0.6,0,1-0.1,1.4-0.3c0.4-0.2,0.5-0.5,0.5-0.9c0-0.2,0-0.4-0.1-0.5s-0.2-0.3-0.3-0.4
			s-0.3-0.2-0.6-0.3c-0.2-0.1-0.5-0.2-0.9-0.4c-0.3-0.1-0.6-0.2-0.8-0.4s-0.5-0.3-0.7-0.4c-0.2-0.2-0.4-0.4-0.5-0.6
			s-0.2-0.5-0.2-0.8c0-0.6,0.2-1.1,0.7-1.5s1.1-0.6,2-0.6c0.5,0,1,0,1.3,0.1s0.6,0.2,0.7,0.2l-0.2,0.9c-0.1-0.1-0.3-0.1-0.6-0.2
			s-0.7-0.2-1.3-0.2c-0.2,0-0.4,0-0.6,0.1c-0.2,0-0.4,0.1-0.5,0.2s-0.3,0.2-0.4,0.4c-0.1,0.1-0.1,0.3-0.1,0.5s0,0.4,0.1,0.5
			s0.2,0.3,0.4,0.4s0.3,0.2,0.6,0.3c0.2,0.1,0.5,0.2,0.8,0.3c0.3,0.1,0.6,0.2,0.9,0.4c0.3,0.1,0.5,0.3,0.7,0.4
			c0.2,0.2,0.4,0.4,0.5,0.6s0.2,0.6,0.2,0.9c0,0.7-0.3,1.2-0.8,1.6s-1.2,0.5-2.2,0.5c-0.7,0-1.2-0.1-1.6-0.2
			c-0.4-0.1-0.6-0.2-0.7-0.3l0.3-0.9c0,0,0.1,0.1,0.2,0.1c0.1,0,0.2,0.1,0.4,0.2s0.4,0.1,0.6,0.1
			C1001.6-1037.2,1001.9-1037.1,1002.2-1037.1z"/>
		<path class="st2" d="M1008-1044.2h3.1v0.8h-3.1v4.1c0,0.4,0,0.8,0.1,1.1c0.1,0.3,0.2,0.5,0.3,0.6s0.3,0.2,0.5,0.3s0.4,0.1,0.7,0.1
			c0.4,0,0.7,0,1-0.1s0.4-0.2,0.6-0.3l0.2,0.8c-0.1,0.1-0.4,0.2-0.7,0.3c-0.3,0.1-0.7,0.2-1.1,0.2c-0.5,0-0.9-0.1-1.2-0.2
			s-0.6-0.3-0.8-0.6c-0.2-0.3-0.3-0.6-0.4-1c-0.1-0.4-0.1-0.8-0.1-1.3v-7.1l1-0.2L1008-1044.2L1008-1044.2z"/>
		<path class="st2" d="M1015.2-1044.4c0.5,0,0.9,0.1,1.3,0.2c0.4,0.1,0.6,0.3,0.9,0.6c0.2,0.3,0.4,0.6,0.5,0.9
			c0.1,0.4,0.1,0.7,0.1,1.1v4.9c-0.1,0-0.2,0.1-0.4,0.1s-0.4,0.1-0.7,0.1s-0.5,0.1-0.8,0.1s-0.6,0-0.9,0c-0.4,0-0.8,0-1.1-0.1
			s-0.6-0.2-0.9-0.4c-0.3-0.2-0.5-0.4-0.6-0.8s-0.2-0.7-0.2-1.1s0.1-0.8,0.2-1.1s0.4-0.5,0.7-0.7s0.6-0.3,1-0.4s0.8-0.1,1.3-0.1
			c0.1,0,0.3,0,0.4,0c0.2,0,0.3,0,0.5,0.1c0.1,0,0.3,0,0.4,0.1c0.1,0,0.2,0,0.2,0.1v-0.5c0-0.3,0-0.5-0.1-0.8c0-0.3-0.1-0.5-0.3-0.7
			c-0.1-0.2-0.3-0.4-0.6-0.5c-0.2-0.1-0.6-0.2-1-0.2c-0.6,0-1,0-1.3,0.1s-0.5,0.1-0.6,0.2l-0.1-0.9c0.2-0.1,0.4-0.2,0.8-0.2
			C1014.3-1044.3,1014.7-1044.4,1015.2-1044.4z M1015.3-1037.1c0.4,0,0.7,0,1,0s0.5-0.1,0.7-0.1v-2.7c-0.1,0-0.3-0.1-0.5-0.2
			s-0.6-0.1-1-0.1c-0.2,0-0.5,0-0.8,0.1c-0.3,0-0.5,0.1-0.7,0.2s-0.4,0.3-0.5,0.5s-0.2,0.5-0.2,0.8s0,0.5,0.1,0.7s0.2,0.4,0.4,0.5
			s0.4,0.2,0.6,0.3C1014.7-1037.2,1015-1037.1,1015.3-1037.1z"/>
		<path class="st2" d="M1021.4-1044.2h3.1v0.8h-3.1v4.1c0,0.4,0,0.8,0.1,1.1c0.1,0.3,0.2,0.5,0.3,0.6s0.3,0.2,0.5,0.3
			c0.2,0,0.4,0.1,0.7,0.1c0.4,0,0.7,0,1-0.1c0.2-0.1,0.4-0.2,0.6-0.3l0.2,0.8c-0.1,0.1-0.4,0.2-0.7,0.3c-0.3,0.1-0.7,0.2-1.1,0.2
			c-0.5,0-0.9-0.1-1.2-0.2s-0.6-0.3-0.8-0.6s-0.3-0.6-0.4-1c-0.1-0.4-0.1-0.8-0.1-1.3v-7.1l1-0.2L1021.4-1044.2L1021.4-1044.2z"/>
		<path class="st2" d="M1032.3-1036.7c-0.3,0.1-0.7,0.2-1.2,0.3s-1.1,0.2-1.8,0.2c-0.6,0-1.1-0.1-1.5-0.3c-0.4-0.2-0.7-0.4-0.9-0.7
			c-0.2-0.3-0.4-0.7-0.5-1.1s-0.2-0.9-0.2-1.5v-4.3h1v4c0,0.5,0,1,0.1,1.4s0.2,0.7,0.4,0.9c0.2,0.2,0.4,0.4,0.7,0.5
			c0.3,0.1,0.6,0.2,1,0.2c0.5,0,0.9,0,1.2-0.1c0.3-0.1,0.6-0.1,0.6-0.1v-6.8h1v7.4H1032.3z"/>
		<path class="st2" d="M1036.4-1037.1c0.6,0,1-0.1,1.4-0.3c0.4-0.2,0.5-0.5,0.5-0.9c0-0.2,0-0.4-0.1-0.5s-0.2-0.3-0.3-0.4
			c-0.2-0.1-0.3-0.2-0.6-0.3c-0.2-0.1-0.5-0.2-0.9-0.4c-0.3-0.1-0.6-0.2-0.8-0.4c-0.3-0.1-0.5-0.3-0.7-0.4s-0.4-0.4-0.5-0.6
			s-0.2-0.5-0.2-0.8c0-0.6,0.2-1.1,0.7-1.5s1.1-0.6,2-0.6c0.5,0,1,0,1.3,0.1s0.6,0.2,0.7,0.2l-0.2,0.9c-0.1-0.1-0.3-0.1-0.6-0.2
			c-0.3-0.1-0.7-0.2-1.3-0.2c-0.2,0-0.4,0-0.6,0.1c-0.2,0-0.4,0.1-0.5,0.2s-0.3,0.2-0.4,0.4c-0.1,0.1-0.1,0.3-0.1,0.5s0,0.4,0.1,0.5
			s0.2,0.3,0.4,0.4c0.2,0.1,0.3,0.2,0.6,0.3c0.2,0.1,0.5,0.2,0.8,0.3c0.3,0.1,0.6,0.2,0.9,0.4c0.3,0.1,0.5,0.3,0.7,0.4
			c0.2,0.2,0.4,0.4,0.5,0.6s0.2,0.6,0.2,0.9c0,0.7-0.3,1.2-0.8,1.6s-1.2,0.5-2.2,0.5c-0.7,0-1.2-0.1-1.6-0.2s-0.6-0.2-0.7-0.3
			l0.3-0.9c0,0,0.1,0.1,0.2,0.1s0.2,0.1,0.4,0.2c0.2,0.1,0.4,0.1,0.6,0.1S1036.1-1037.1,1036.4-1037.1z"/>
	</g>
</g>
</svg>
