<?xml version="1.0" encoding="utf-8"?>
<!-- Generator: Adobe Illustrator 22.0.1, SVG Export Plug-In . SVG Version: 6.00 Build 0)  -->
<svg version="1.1" id="Ebene_1" xmlns="http://www.w3.org/2000/svg" xmlns:xlink="http://www.w3.org/1999/xlink" x="0px" y="0px"
	 viewBox="0 0 128 66.3" style="enable-background:new 0 0 128 66.3;" xml:space="preserve">
<style type="text/css">
	.st0{enable-background:new    ;}
	.st1{fill:#FFFFFF;}
	.st2{fill:#F47211;}
</style>
<g id="Gruppe_58" transform="translate(-936 737)">
	<g class="st0">
		<path class="st1" d="M938-674.2v-10.4h5.9v0.9H939v3.7h4.4v0.9H939v5h-1V-674.2z"/>
		<path class="st1" d="M947.5-682.1c0.5,0,0.9,0.1,1.3,0.2c0.4,0.1,0.6,0.3,0.9,0.6c0.2,0.3,0.4,0.6,0.5,0.9
			c0.1,0.4,0.1,0.7,0.1,1.1v4.9c-0.1,0-0.2,0.1-0.4,0.1s-0.4,0.1-0.7,0.1s-0.5,0.1-0.8,0.1s-0.6,0-0.9,0c-0.4,0-0.8,0-1.1-0.1
			s-0.6-0.2-0.9-0.4s-0.5-0.4-0.6-0.8s-0.2-0.7-0.2-1.1c0-0.4,0.1-0.8,0.2-1.1c0.2-0.3,0.4-0.5,0.7-0.7s0.6-0.3,1-0.4
			c0.4-0.1,0.8-0.1,1.3-0.1c0.1,0,0.3,0,0.4,0c0.2,0,0.3,0,0.5,0.1c0.1,0,0.3,0,0.4,0.1c0.1,0,0.2,0,0.2,0.1v-0.5
			c0-0.3,0-0.5-0.1-0.8s-0.1-0.5-0.3-0.7c-0.1-0.2-0.3-0.4-0.6-0.5c-0.2-0.1-0.6-0.2-1-0.2c-0.6,0-1,0-1.3,0.1s-0.5,0.1-0.6,0.2
			l-0.1-0.9c0.2-0.1,0.4-0.2,0.8-0.2C946.6-682.1,947-682.1,947.5-682.1z M947.6-674.9c0.4,0,0.7,0,1,0s0.5-0.1,0.7-0.1v-2.7
			c-0.1,0-0.3-0.1-0.5-0.2c-0.2-0.1-0.6-0.1-1-0.1c-0.2,0-0.5,0-0.8,0.1c-0.3,0-0.5,0.1-0.7,0.2c-0.2,0.1-0.4,0.3-0.5,0.5
			s-0.2,0.5-0.2,0.8s0,0.5,0.1,0.7s0.2,0.4,0.4,0.5s0.4,0.2,0.6,0.3C947-674.9,947.3-674.9,947.6-674.9z"/>
		<path class="st1" d="M952.8-674.2v-11.5l1-0.2v4.1c0.3-0.1,0.6-0.2,1-0.3c0.3-0.1,0.7-0.1,1-0.1c0.6,0,1.1,0.1,1.5,0.3
			s0.7,0.4,1,0.7c0.2,0.3,0.4,0.7,0.5,1.1c0.1,0.4,0.1,0.9,0.1,1.5v4.3h-1v-4c0-0.6,0-1-0.1-1.4s-0.2-0.7-0.4-0.9s-0.4-0.4-0.7-0.5
			s-0.7-0.2-1.1-0.2c-0.2,0-0.4,0-0.5,0c-0.2,0-0.4,0.1-0.5,0.1c-0.2,0-0.3,0.1-0.5,0.1c-0.1,0-0.2,0.1-0.3,0.1v6.7h-1V-674.2z"/>
		<path class="st1" d="M964-682.1c0.3,0,0.6,0,0.9,0.1c0.3,0,0.5,0.1,0.6,0.2l-0.2,0.8c-0.1,0-0.2-0.1-0.5-0.1c-0.2,0-0.6-0.1-1-0.1
			s-0.8,0-1,0.1c-0.3,0.1-0.4,0.1-0.5,0.2v6.8h-1v-7.4c0.2-0.1,0.6-0.2,1-0.3C962.8-682,963.4-682.1,964-682.1z"/>
		<path class="st1" d="M971.8-681.1c-0.2,0.3-0.5,0.6-0.9,1.1s-0.8,1-1.2,1.5c-0.4,0.6-0.8,1.2-1.2,1.8s-0.8,1.2-1.1,1.7h4.6v0.8
			h-5.7v-0.7c0.3-0.5,0.6-1,1-1.6s0.8-1.2,1.2-1.7s0.8-1.1,1.2-1.6s0.7-0.9,1-1.2h-4.1v-0.8h5.3L971.8-681.1L971.8-681.1z"/>
		<path class="st1" d="M973.2-678.1c0-0.7,0.1-1.3,0.3-1.8s0.4-0.9,0.8-1.3s0.7-0.6,1.1-0.8c0.4-0.2,0.8-0.2,1.3-0.2
			c1,0,1.7,0.3,2.3,0.9s0.8,1.6,0.8,2.9c0,0.1,0,0.2,0,0.2c0,0.1,0,0.2,0,0.2h-5.4c0,1,0.3,1.7,0.7,2.2s1.1,0.8,2.1,0.8
			c0.5,0,0.9,0,1.3-0.2c0.3-0.1,0.5-0.2,0.7-0.3l0.2,0.8c-0.1,0.1-0.4,0.2-0.8,0.3c-0.4,0.1-0.8,0.2-1.4,0.2c-0.7,0-1.3-0.1-1.7-0.3
			c-0.5-0.2-0.9-0.5-1.2-0.8c-0.3-0.4-0.5-0.8-0.7-1.3C973.3-676.9,973.2-677.5,973.2-678.1z M978.7-678.7c0-0.8-0.2-1.4-0.6-1.9
			c-0.4-0.5-0.9-0.7-1.5-0.7c-0.4,0-0.7,0.1-0.9,0.2c-0.3,0.1-0.5,0.3-0.7,0.6c-0.2,0.2-0.4,0.5-0.5,0.8s-0.2,0.6-0.2,1L978.7-678.7
			L978.7-678.7z"/>
		<path class="st1" d="M987.8-674.5c-0.3,0.1-0.7,0.2-1.2,0.3s-1.1,0.2-1.8,0.2c-0.6,0-1.1-0.1-1.5-0.3s-0.7-0.4-0.9-0.7
			s-0.4-0.7-0.5-1.1c-0.1-0.4-0.2-0.9-0.2-1.5v-4.3h1v4c0,0.5,0,1,0.1,1.4s0.2,0.7,0.4,0.9s0.4,0.4,0.7,0.5s0.6,0.2,1,0.2
			c0.5,0,0.9,0,1.2-0.1s0.6-0.1,0.6-0.1v-6.8h1v7.4H987.8z"/>
		<path class="st1" d="M995.5-675.1c-0.1,0.1-0.2,0.1-0.3,0.2c-0.1,0.1-0.3,0.1-0.4,0.2c-0.2,0.1-0.4,0.1-0.6,0.2
			c-0.2,0-0.5,0.1-0.8,0.1c-0.4,0-0.9-0.1-1.3-0.2c-0.4-0.1-0.8-0.4-1.1-0.7s-0.6-0.7-0.8-1.2s-0.3-1.1-0.3-1.7
			c0-0.5,0.1-1.1,0.3-1.5c0.2-0.5,0.4-0.9,0.7-1.2s0.7-0.6,1.2-0.8s1-0.3,1.5-0.3c0.7,0,1.3,0,1.7,0.1s0.8,0.2,1.1,0.3v7.1
			c0,1.2-0.3,2-0.9,2.5c-0.6,0.5-1.5,0.7-2.7,0.7c-0.5,0-1,0-1.4-0.1s-0.8-0.2-1-0.3l0.2-0.9c0.2,0.1,0.6,0.2,1,0.3s0.8,0.1,1.3,0.1
			c0.9,0,1.6-0.2,2-0.5c0.4-0.4,0.6-1,0.6-1.8V-675.1z M995.5-681c-0.2-0.1-0.4-0.1-0.7-0.1s-0.7-0.1-1.2-0.1
			c-0.4,0-0.8,0.1-1.1,0.2c-0.3,0.1-0.6,0.4-0.8,0.6s-0.4,0.6-0.5,0.9s-0.2,0.8-0.2,1.2c0,0.5,0.1,0.9,0.2,1.3s0.3,0.7,0.5,0.9
			s0.5,0.4,0.8,0.5s0.6,0.2,0.9,0.2c0.4,0,0.8-0.1,1.2-0.2s0.6-0.3,0.8-0.5L995.5-681L995.5-681z"/>
		<path class="st1" d="M1003.4-681.5c0.2-0.1,0.4-0.3,0.8-0.4c0.4-0.1,0.8-0.2,1.3-0.2c0.6,0,1.1,0.1,1.5,0.3s0.8,0.5,1.1,0.8
			c0.3,0.4,0.5,0.8,0.7,1.3s0.2,1,0.2,1.6s-0.1,1.2-0.3,1.7s-0.4,0.9-0.8,1.3c-0.3,0.4-0.7,0.6-1.2,0.8s-1,0.3-1.6,0.3
			c-0.7,0-1.3,0-1.7-0.1s-0.8-0.2-1.1-0.3v-11.2l1-0.2L1003.4-681.5L1003.4-681.5z M1003.4-675.1c0.1,0,0.4,0.1,0.7,0.1
			s0.7,0.1,1.2,0.1c0.8,0,1.5-0.3,2-0.8s0.8-1.3,0.8-2.3c0-0.4,0-0.8-0.1-1.2s-0.2-0.7-0.4-1s-0.5-0.5-0.8-0.7s-0.7-0.3-1.2-0.3
			c-0.2,0-0.5,0-0.7,0.1s-0.4,0.1-0.6,0.2s-0.3,0.1-0.5,0.2s-0.2,0.2-0.3,0.2v5.4H1003.4z"/>
		<path class="st1" d="M1010.7-678.1c0-0.7,0.1-1.3,0.3-1.8s0.4-0.9,0.8-1.3c0.3-0.3,0.7-0.6,1.1-0.8s0.8-0.2,1.3-0.2
			c1,0,1.7,0.3,2.3,0.9c0.6,0.6,0.8,1.6,0.8,2.9c0,0.1,0,0.2,0,0.2c0,0.1,0,0.2,0,0.2h-5.4c0,1,0.3,1.7,0.7,2.2s1.1,0.8,2.1,0.8
			c0.5,0,1,0,1.3-0.2c0.3-0.1,0.5-0.2,0.7-0.3l0.2,0.8c-0.1,0.1-0.4,0.2-0.8,0.3c-0.4,0.1-0.8,0.2-1.4,0.2c-0.7,0-1.3-0.1-1.7-0.3
			c-0.5-0.2-0.9-0.5-1.2-0.8c-0.3-0.4-0.5-0.8-0.7-1.3S1010.7-677.5,1010.7-678.1z M1016.2-678.7c0-0.8-0.2-1.4-0.6-1.9
			c-0.4-0.5-0.9-0.7-1.5-0.7c-0.4,0-0.7,0.1-0.9,0.2c-0.3,0.1-0.5,0.3-0.7,0.6c-0.2,0.2-0.4,0.5-0.5,0.8s-0.2,0.6-0.2,1
			L1016.2-678.7L1016.2-678.7z"/>
		<path class="st1" d="M1024.4-681.9c0.1,0.5,0.2,1,0.4,1.6c0.1,0.6,0.3,1.1,0.5,1.7c0.2,0.6,0.4,1.2,0.6,1.7
			c0.2,0.6,0.4,1.1,0.6,1.6c0.2-0.4,0.4-0.8,0.5-1.4c0.2-0.5,0.4-1.1,0.6-1.7s0.4-1.2,0.5-1.8c0.2-0.6,0.3-1.2,0.4-1.7h1
			c-0.4,1.5-0.8,2.9-1.2,4.2s-0.9,2.5-1.4,3.6h-0.9c-0.2-0.4-0.3-0.7-0.5-1.2s-0.3-0.9-0.5-1.4s-0.3-1-0.5-1.6
			c-0.2-0.5-0.3-1.1-0.5-1.7c-0.2,0.6-0.3,1.1-0.5,1.7c-0.2,0.5-0.3,1.1-0.5,1.6s-0.3,1-0.5,1.4s-0.3,0.8-0.5,1.2h-0.9
			c-0.5-1.1-1-2.3-1.4-3.6s-0.8-2.7-1.2-4.2h1c0.1,0.5,0.2,1.1,0.4,1.7c0.2,0.6,0.3,1.2,0.5,1.8s0.4,1.2,0.6,1.7
			c0.2,0.5,0.4,1,0.5,1.4c0.2-0.5,0.4-1,0.6-1.6c0.2-0.6,0.4-1.1,0.5-1.7c0.2-0.6,0.3-1.2,0.5-1.7c0.1-0.6,0.3-1.1,0.4-1.6H1024.4z"
			/>
		<path class="st1" d="M1030.6-678.1c0-0.7,0.1-1.3,0.3-1.8c0.2-0.5,0.4-0.9,0.8-1.3c0.3-0.3,0.7-0.6,1.1-0.8s0.8-0.2,1.3-0.2
			c1,0,1.7,0.3,2.3,0.9c0.6,0.6,0.8,1.6,0.8,2.9c0,0.1,0,0.2,0,0.2c0,0.1,0,0.2,0,0.2h-5.4c0,1,0.3,1.7,0.7,2.2
			c0.4,0.5,1.1,0.8,2.1,0.8c0.5,0,1,0,1.3-0.2c0.3-0.1,0.5-0.2,0.7-0.3l0.2,0.8c-0.1,0.1-0.4,0.2-0.8,0.3s-0.8,0.2-1.4,0.2
			c-0.7,0-1.3-0.1-1.7-0.3c-0.5-0.2-0.9-0.5-1.2-0.8c-0.3-0.4-0.5-0.8-0.7-1.3S1030.6-677.5,1030.6-678.1z M1036.1-678.7
			c0-0.8-0.2-1.4-0.6-1.9s-0.9-0.7-1.5-0.7c-0.4,0-0.7,0.1-0.9,0.2c-0.3,0.1-0.5,0.3-0.7,0.6c-0.2,0.2-0.4,0.5-0.5,0.8
			s-0.2,0.6-0.2,1L1036.1-678.7L1036.1-678.7z"/>
		<path class="st1" d="M1044.3-675.1c-0.1,0.1-0.2,0.1-0.3,0.2c-0.1,0.1-0.3,0.1-0.4,0.2c-0.2,0.1-0.4,0.1-0.6,0.2
			c-0.2,0-0.5,0.1-0.8,0.1c-0.5,0-0.9-0.1-1.3-0.2c-0.4-0.1-0.8-0.4-1.1-0.7c-0.3-0.3-0.6-0.7-0.8-1.2c-0.2-0.5-0.3-1.1-0.3-1.7
			c0-0.5,0.1-1.1,0.3-1.5c0.2-0.5,0.4-0.9,0.7-1.2c0.3-0.3,0.7-0.6,1.2-0.8s1-0.3,1.5-0.3c0.7,0,1.3,0,1.7,0.1
			c0.4,0.1,0.8,0.2,1.1,0.3v7.1c0,1.2-0.3,2-0.9,2.5s-1.5,0.7-2.7,0.7c-0.5,0-1,0-1.4-0.1s-0.8-0.2-1-0.3l0.2-0.9
			c0.2,0.1,0.6,0.2,1,0.3s0.8,0.1,1.3,0.1c0.9,0,1.6-0.2,2-0.5c0.4-0.4,0.6-1,0.6-1.8L1044.3-675.1L1044.3-675.1z M1044.3-681
			c-0.2-0.1-0.4-0.1-0.7-0.1c-0.3,0-0.7-0.1-1.2-0.1c-0.4,0-0.8,0.1-1.1,0.2c-0.3,0.1-0.6,0.4-0.8,0.6c-0.2,0.3-0.4,0.6-0.5,0.9
			s-0.2,0.8-0.2,1.2c0,0.5,0.1,0.9,0.2,1.3c0.1,0.4,0.3,0.7,0.5,0.9s0.5,0.4,0.8,0.5s0.6,0.2,0.9,0.2c0.4,0,0.8-0.1,1.2-0.2
			s0.6-0.3,0.8-0.5L1044.3-681L1044.3-681z"/>
		<path class="st1" d="M1047.4-678.1c0-0.7,0.1-1.3,0.3-1.8s0.5-0.9,0.8-1.3c0.3-0.3,0.7-0.6,1.1-0.8s0.8-0.2,1.3-0.2
			c1,0,1.7,0.3,2.3,0.9c0.6,0.6,0.8,1.6,0.8,2.9c0,0.1,0,0.2,0,0.2c0,0.1,0,0.2,0,0.2h-5.4c0,1,0.3,1.7,0.7,2.2
			c0.4,0.5,1.1,0.8,2.1,0.8c0.5,0,0.9,0,1.3-0.2c0.3-0.1,0.5-0.2,0.7-0.3l0.2,0.8c-0.1,0.1-0.4,0.2-0.8,0.3s-0.8,0.2-1.4,0.2
			c-0.7,0-1.3-0.1-1.7-0.3c-0.5-0.2-0.9-0.5-1.2-0.8c-0.3-0.4-0.5-0.8-0.7-1.3C1047.4-676.9,1047.4-677.5,1047.4-678.1z
			 M1052.9-678.7c0-0.8-0.2-1.4-0.6-1.9s-0.9-0.7-1.5-0.7c-0.3,0-0.7,0.1-0.9,0.2c-0.3,0.1-0.5,0.3-0.7,0.6
			c-0.2,0.2-0.4,0.5-0.5,0.8s-0.2,0.6-0.2,1L1052.9-678.7L1052.9-678.7z"/>
		<path class="st1" d="M1056.1-681.7c0.3-0.1,0.7-0.2,1.2-0.3s1.1-0.2,1.8-0.2c0.6,0,1.1,0.1,1.5,0.3s0.7,0.4,0.9,0.7
			c0.2,0.3,0.4,0.7,0.5,1.1c0.1,0.4,0.2,0.9,0.2,1.5v4.3h-1v-4c0-0.6,0-1-0.1-1.4s-0.2-0.7-0.4-0.9c-0.2-0.2-0.4-0.4-0.7-0.5
			c-0.3-0.1-0.6-0.2-1.1-0.2s-0.9,0-1.2,0.1c-0.3,0.1-0.6,0.1-0.7,0.1v6.8h-1L1056.1-681.7L1056.1-681.7z"/>
	</g>
	<g id="Fahrzeug_bewegen-2" transform="translate(-115.006 54.272)">
		<g id="Gruppe_42" transform="translate(183.747 73.337) rotate(90)">
			<g id="Pfad_41">
				<path class="st2" d="M-851.5-927c-0.2-0.1-0.4-0.1-0.5,0.1l-12.1,11.2c-0.6,0.5-0.6,1.4-0.1,2l0.1,0.1l12.1,11.2
					c0.1,0.1,0.2,0.1,0.3,0.1h0.2c0.2-0.1,0.3-0.2,0.3-0.4v-6.4h18.3c1.1,0,1.9-0.9,1.9-1.9v-7.3c0-1.1-0.9-1.9-1.9-1.9h-18.3v-6.3
					C-851.2-926.7-851.3-926.9-851.5-927z M-832.9-919.2c0.5,0,1,0.4,1,1v7.3c0,0.5-0.4,1-1,1h-18.8c-0.2,0-0.5,0.2-0.5,0.4
					c0,0,0,0,0,0.1v5.7l-11.3-10.5c-0.2-0.2-0.2-0.5-0.1-0.7l0,0l0,0l11.3-10.4v5.7c0,0.2,0.2,0.5,0.4,0.5c0,0,0,0,0.1,0
					L-832.9-919.2L-832.9-919.2z"/>
			</g>
		</g>
		<g id="Gruppe_43" transform="translate(192.713 106.938) rotate(-90)">
			<g id="Pfad_41-2">
				<path class="st2" d="M877.7,927c-0.2-0.1-0.4-0.1-0.5,0.1l-12.1,11.2c-0.6,0.5-0.6,1.4-0.1,2l0.1,0.1l12.1,11.2
					c0.1,0.1,0.2,0.1,0.3,0.1h0.2c0.2-0.1,0.3-0.2,0.3-0.4v-6.4h18.3c1.1,0,1.9-0.9,1.9-1.9v-7.3c0-1.1-0.9-1.9-1.9-1.9H878v-6.3
					C878,927.3,877.9,927.1,877.7,927z M896.3,934.8c0.5,0,1,0.4,1,1v7.3c0,0.5-0.4,1-1,1h-18.8c-0.2,0-0.5,0.2-0.5,0.4
					c0,0,0,0,0,0.1v5.7l-11.3-10.5c-0.2-0.2-0.2-0.5-0.1-0.7l0,0l0,0l11.3-10.4v5.7c0,0.2,0.2,0.5,0.4,0.5c0,0,0,0,0.1,0
					L896.3,934.8L896.3,934.8z"/>
			</g>
		</g>
	</g>
</g>
</svg>
