<!-- Generator: Adobe Illustrator 22.0.1, SVG Export Plug-In  -->
<svg version="1.1"
	 xmlns="http://www.w3.org/2000/svg" xmlns:xlink="http://www.w3.org/1999/xlink" xmlns:a="http://ns.adobe.com/AdobeSVGViewerExtensions/3.0/"
	 x="0px" y="0px" width="25.3px" height="60.3px" viewBox="0 0 25.3 60.3" style="enable-background:new 0 0 25.3 60.3;"
	 xml:space="preserve">
<style type="text/css">
	.st0{fill:#F47211;}
</style>
<defs>
</defs>
<path class="st0" d="M24.9,46.5h-6.5V32.5c0,0,0-0.1,0-0.1V13.7h6.4c0.2,0,0.4-0.1,0.5-0.3c0.1-0.2,0-0.4-0.1-0.5L13.7,0.5
	c-0.6-0.6-1.5-0.6-2.1-0.1c0,0-0.1,0.1-0.1,0.1L0.1,12.9C0.1,13,0,13.1,0,13.2v0.2c0.1,0.2,0.2,0.3,0.4,0.3H7v14.1c0,0,0,0.1,0,0.1
	v18.7H0.5c-0.2,0-0.4,0.1-0.5,0.3C0,47,0,47.2,0.1,47.4l11.4,12.4c0.6,0.6,1.5,0.6,2.1,0.1c0,0,0.1-0.1,0.1-0.1l11.4-12.4
	c0.1-0.1,0.1-0.2,0.1-0.3v-0.2C25.2,46.7,25.1,46.5,24.9,46.5z M13,59.1c-0.2,0.2-0.5,0.2-0.7,0c0,0,0,0,0,0L1.6,47.5h5.8
	c0.3,0,0.5-0.2,0.5-0.5V34.1v-6.2c0,0,0,0,0,0v-1.7V13.2c0-0.3-0.2-0.5-0.5-0.5H1.6L12.3,1.2c0.2-0.2,0.5-0.2,0.7,0c0,0,0,0,0,0
	l10.6,11.6h-5.8c-0.3,0-0.5,0.2-0.5,0.5v12.9v6.2c0,0,0,0,0,0v1.7V47c0,0.3,0.2,0.5,0.5,0.5h5.8L13,59.1z"/>
</svg>
