<?xml version="1.0" encoding="utf-8"?>
<!-- Generator: Adobe Illustrator 22.0.1, SVG Export Plug-In . SVG Version: 6.00 Build 0)  -->
<svg version="1.1" id="Ebene_1" xmlns="http://www.w3.org/2000/svg" xmlns:xlink="http://www.w3.org/1999/xlink" x="0px" y="0px"
	 viewBox="0 0 72 57.8" style="enable-background:new 0 0 72 57.8;" xml:space="preserve">
<style type="text/css">
	.st0{enable-background:new    ;}
	.st1{fill:#FFFFFF;}
	.st2{clip-path:url(#SVGID_2_);}
	.st3{fill:#F47211;}
</style>
<g id="Gruppe_59" transform="translate(-207.85 2383.86)">
	<g class="st0">
		<path class="st1" d="M211.3-2328.6c0.6,0,1.2-0.1,1.5-0.4c0.4-0.2,0.5-0.6,0.5-1.1c0-0.3-0.1-0.6-0.2-0.8
			c-0.1-0.2-0.3-0.4-0.5-0.5c-0.2-0.1-0.4-0.3-0.7-0.4s-0.5-0.2-0.8-0.3c-0.3-0.1-0.7-0.3-0.9-0.4s-0.5-0.3-0.7-0.5
			c-0.2-0.2-0.3-0.4-0.4-0.6c-0.1-0.2-0.1-0.5-0.1-0.8c0-0.7,0.2-1.3,0.7-1.6c0.5-0.4,1.1-0.6,2-0.6c0.2,0,0.4,0,0.7,0
			c0.2,0,0.4,0.1,0.6,0.1c0.2,0.1,0.4,0.1,0.5,0.2c0.2,0.1,0.3,0.1,0.4,0.2l-0.3,0.7c-0.2-0.2-0.5-0.3-0.8-0.4
			c-0.3-0.1-0.7-0.1-1.1-0.1c-0.3,0-0.5,0-0.7,0.1c-0.2,0.1-0.4,0.1-0.6,0.3s-0.3,0.3-0.4,0.4c-0.1,0.2-0.1,0.4-0.1,0.6
			c0,0.3,0,0.5,0.1,0.6c0.1,0.2,0.2,0.3,0.4,0.5c0.2,0.1,0.4,0.2,0.6,0.3c0.2,0.1,0.5,0.2,0.8,0.3c0.3,0.1,0.6,0.3,0.9,0.4
			c0.3,0.1,0.5,0.3,0.8,0.5c0.2,0.2,0.4,0.4,0.5,0.7s0.2,0.6,0.2,1c0,0.8-0.3,1.3-0.8,1.7s-1.2,0.6-2.1,0.6c-0.3,0-0.6,0-0.9-0.1
			s-0.5-0.1-0.7-0.2c-0.2-0.1-0.4-0.1-0.5-0.2c-0.1-0.1-0.3-0.1-0.3-0.2l0.3-0.7c0.1,0,0.2,0.1,0.3,0.2c0.1,0.1,0.3,0.1,0.5,0.2
			c0.2,0.1,0.4,0.1,0.6,0.2C210.8-2328.7,211.1-2328.6,211.3-2328.6z"/>
		<path class="st1" d="M218.3-2328c-0.5,0-0.9-0.1-1.3-0.2c-0.4-0.2-0.7-0.4-0.9-0.7c-0.2-0.3-0.4-0.6-0.6-1
			c-0.1-0.4-0.2-0.8-0.2-1.3c0-0.5,0.1-0.9,0.2-1.3c0.1-0.4,0.3-0.7,0.6-1c0.2-0.3,0.5-0.5,0.9-0.7c0.4-0.2,0.7-0.2,1.2-0.2
			c0.3,0,0.6,0,0.9,0.1c0.3,0.1,0.5,0.1,0.7,0.2l-0.2,0.7c-0.2-0.1-0.3-0.1-0.5-0.2c-0.2,0-0.5-0.1-0.8-0.1c-0.7,0-1.2,0.2-1.6,0.7
			c-0.4,0.4-0.5,1.1-0.5,1.9c0,0.4,0,0.7,0.1,1c0.1,0.3,0.2,0.6,0.4,0.8c0.2,0.2,0.4,0.4,0.7,0.5c0.3,0.1,0.6,0.2,1,0.2
			c0.3,0,0.6,0,0.8-0.1c0.2-0.1,0.4-0.1,0.5-0.2l0.2,0.7c-0.1,0.1-0.4,0.2-0.7,0.2C218.9-2328,218.6-2328,218.3-2328z"/>
		<path class="st1" d="M221.2-2328.1v-9.2l0.8-0.1v3.3c0.3-0.1,0.5-0.2,0.8-0.2c0.3-0.1,0.5-0.1,0.8-0.1c0.5,0,0.9,0.1,1.2,0.2
			c0.3,0.1,0.6,0.3,0.8,0.6s0.3,0.6,0.4,0.9c0.1,0.4,0.1,0.7,0.1,1.2v3.5h-0.8v-3.2c0-0.4,0-0.8-0.1-1.1s-0.2-0.6-0.3-0.7
			c-0.1-0.2-0.3-0.3-0.6-0.4c-0.2-0.1-0.5-0.1-0.9-0.1c-0.1,0-0.3,0-0.4,0c-0.2,0-0.3,0-0.4,0.1c-0.1,0-0.3,0.1-0.4,0.1
			s-0.2,0.1-0.2,0.1v5.3H221.2z"/>
		<path class="st1" d="M227.7-2331.2c0-0.5,0.1-1,0.2-1.4c0.2-0.4,0.4-0.7,0.6-1c0.3-0.3,0.5-0.5,0.9-0.6c0.3-0.1,0.7-0.2,1-0.2
			c0.8,0,1.4,0.2,1.8,0.7s0.7,1.3,0.7,2.3c0,0.1,0,0.1,0,0.2c0,0.1,0,0.1,0,0.2h-4.4c0,0.8,0.2,1.3,0.6,1.8c0.4,0.4,0.9,0.6,1.7,0.6
			c0.4,0,0.8,0,1-0.1c0.2-0.1,0.4-0.1,0.5-0.2l0.1,0.7c-0.1,0.1-0.3,0.1-0.6,0.2s-0.7,0.1-1.1,0.1c-0.5,0-1-0.1-1.4-0.2
			c-0.4-0.2-0.7-0.4-0.9-0.7c-0.2-0.3-0.4-0.6-0.5-1C227.7-2330.3,227.7-2330.7,227.7-2331.2z M232.1-2331.7c0-0.6-0.2-1.2-0.5-1.5
			c-0.3-0.4-0.7-0.5-1.2-0.5c-0.3,0-0.5,0.1-0.8,0.2c-0.2,0.1-0.4,0.3-0.6,0.5c-0.2,0.2-0.3,0.4-0.4,0.7c-0.1,0.2-0.1,0.5-0.2,0.8
			H232.1z"/>
		<path class="st1" d="M235.6-2336.2c0,0.2-0.1,0.3-0.2,0.4c-0.1,0.1-0.2,0.2-0.4,0.2s-0.3-0.1-0.4-0.2c-0.1-0.1-0.2-0.3-0.2-0.4
			c0-0.2,0.1-0.3,0.2-0.4c0.1-0.1,0.2-0.2,0.4-0.2s0.3,0.1,0.4,0.2C235.5-2336.5,235.6-2336.4,235.6-2336.2z M235.4-2328.1h-0.8
			v-6.2h0.8V-2328.1z"/>
		<path class="st1" d="M237.5-2334.1c0.2-0.1,0.5-0.1,0.9-0.2c0.4-0.1,0.9-0.1,1.4-0.1c0.5,0,0.9,0.1,1.2,0.2
			c0.3,0.1,0.6,0.3,0.8,0.6c0.2,0.3,0.3,0.6,0.4,0.9c0.1,0.4,0.1,0.7,0.1,1.2v3.5h-0.8v-3.2c0-0.4,0-0.8-0.1-1.1s-0.2-0.6-0.3-0.7
			c-0.1-0.2-0.3-0.3-0.6-0.4s-0.5-0.1-0.9-0.1c-0.4,0-0.7,0-1,0.1s-0.4,0.1-0.5,0.1v5.4h-0.8V-2334.1z"/>
		<path class="st1" d="M248.3-2334.3c0.1,0.4,0.2,0.8,0.3,1.3c0.1,0.5,0.2,0.9,0.4,1.4c0.1,0.5,0.3,0.9,0.4,1.4
			c0.2,0.5,0.3,0.9,0.5,1.3c0.1-0.3,0.3-0.7,0.4-1.1c0.2-0.4,0.3-0.9,0.5-1.4s0.3-1,0.4-1.5c0.1-0.5,0.2-1,0.3-1.4h0.8
			c-0.3,1.2-0.6,2.3-0.9,3.3c-0.3,1-0.7,2-1.1,2.9h-0.7c-0.1-0.3-0.2-0.6-0.4-0.9c-0.1-0.3-0.3-0.7-0.4-1.1
			c-0.1-0.4-0.3-0.8-0.4-1.2c-0.1-0.4-0.3-0.9-0.4-1.3c-0.1,0.5-0.2,0.9-0.4,1.3c-0.1,0.4-0.3,0.9-0.4,1.2c-0.1,0.4-0.3,0.8-0.4,1.1
			c-0.1,0.3-0.3,0.7-0.4,0.9h-0.8c-0.4-0.9-0.8-1.9-1.1-2.9c-0.3-1-0.7-2.1-0.9-3.3h0.8c0.1,0.4,0.2,0.9,0.3,1.4
			c0.1,0.5,0.3,1,0.4,1.5c0.2,0.5,0.3,0.9,0.5,1.4c0.2,0.4,0.3,0.8,0.4,1.1c0.2-0.4,0.3-0.8,0.5-1.3c0.2-0.5,0.3-0.9,0.4-1.4
			c0.1-0.5,0.3-0.9,0.4-1.4s0.2-0.9,0.3-1.3H248.3z"/>
		<path class="st1" d="M253.2-2331.2c0-0.5,0.1-1,0.2-1.4c0.2-0.4,0.4-0.7,0.6-1c0.3-0.3,0.5-0.5,0.9-0.6c0.3-0.1,0.7-0.2,1-0.2
			c0.8,0,1.4,0.2,1.8,0.7s0.7,1.3,0.7,2.3c0,0.1,0,0.1,0,0.2c0,0.1,0,0.1,0,0.2h-4.4c0,0.8,0.2,1.3,0.6,1.8c0.4,0.4,0.9,0.6,1.7,0.6
			c0.4,0,0.8,0,1-0.1c0.2-0.1,0.4-0.1,0.5-0.2l0.1,0.7c-0.1,0.1-0.3,0.1-0.6,0.2c-0.3,0.1-0.7,0.1-1.1,0.1c-0.5,0-1-0.1-1.4-0.2
			c-0.4-0.2-0.7-0.4-0.9-0.7c-0.2-0.3-0.4-0.6-0.5-1C253.3-2330.3,253.2-2330.7,253.2-2331.2z M257.6-2331.7c0-0.6-0.2-1.2-0.5-1.5
			c-0.3-0.4-0.7-0.5-1.2-0.5c-0.3,0-0.5,0.1-0.8,0.2c-0.2,0.1-0.4,0.3-0.6,0.5c-0.2,0.2-0.3,0.4-0.4,0.7s-0.1,0.5-0.2,0.8H257.6z"/>
		<path class="st1" d="M262.3-2334.4c0.3,0,0.5,0,0.7,0.1c0.2,0,0.4,0.1,0.5,0.1l-0.2,0.7c-0.1,0-0.2-0.1-0.4-0.1s-0.5-0.1-0.8-0.1
			c-0.3,0-0.6,0-0.8,0.1s-0.3,0.1-0.4,0.1v5.4h-0.8v-5.9c0.2-0.1,0.5-0.2,0.8-0.3C261.4-2334.4,261.8-2334.4,262.3-2334.4z"/>
		<path class="st1" d="M267-2337.4c0.3,0,0.6,0,0.8,0.1c0.2,0.1,0.4,0.1,0.4,0.1l-0.2,0.7c-0.1,0-0.2-0.1-0.4-0.1s-0.4-0.1-0.7-0.1
			c-0.6,0-0.9,0.1-1.2,0.4c-0.2,0.3-0.4,0.7-0.4,1.3v0.6h2.5v0.7h-2.5v5.5h-0.8v-6.9c0-0.8,0.2-1.4,0.6-1.8S266.2-2337.4,267-2337.4
			z"/>
		<path class="st1" d="M268.8-2331.2c0-0.5,0.1-1,0.2-1.4c0.2-0.4,0.4-0.7,0.6-1c0.3-0.3,0.5-0.5,0.9-0.6c0.3-0.1,0.7-0.2,1-0.2
			c0.8,0,1.4,0.2,1.8,0.7s0.7,1.3,0.7,2.3c0,0.1,0,0.1,0,0.2c0,0.1,0,0.1,0,0.2h-4.4c0,0.8,0.2,1.3,0.6,1.8c0.4,0.4,0.9,0.6,1.7,0.6
			c0.4,0,0.8,0,1-0.1c0.2-0.1,0.4-0.1,0.5-0.2l0.1,0.7c-0.1,0.1-0.3,0.1-0.6,0.2c-0.3,0.1-0.7,0.1-1.1,0.1c-0.5,0-1-0.1-1.4-0.2
			c-0.4-0.2-0.7-0.4-0.9-0.7s-0.4-0.6-0.5-1C268.9-2330.3,268.8-2330.7,268.8-2331.2z M273.2-2331.7c0-0.6-0.2-1.2-0.5-1.5
			c-0.3-0.4-0.7-0.5-1.2-0.5c-0.3,0-0.5,0.1-0.8,0.2c-0.2,0.1-0.4,0.3-0.6,0.5c-0.2,0.2-0.3,0.4-0.4,0.7c-0.1,0.2-0.1,0.5-0.2,0.8
			H273.2z"/>
		<path class="st1" d="M277.9-2334.4c0.3,0,0.5,0,0.7,0.1c0.2,0,0.4,0.1,0.5,0.1l-0.2,0.7c-0.1,0-0.2-0.1-0.4-0.1
			c-0.2,0-0.5-0.1-0.8-0.1c-0.3,0-0.6,0-0.8,0.1s-0.3,0.1-0.4,0.1v5.4h-0.8v-5.9c0.2-0.1,0.5-0.2,0.8-0.3
			C276.9-2334.4,277.4-2334.4,277.9-2334.4z"/>
	</g>
	<g id="Gruppe_115" transform="translate(5.85 -3.86)">
		<g>
			<defs>
				<rect id="SVGID_1_" x="214" y="-2380" width="48.7" height="31.8"/>
			</defs>
			<clipPath id="SVGID_2_">
				<use xlink:href="#SVGID_1_"  style="overflow:visible;"/>
			</clipPath>
			<g id="Gruppe_114" class="st2">
				<g id="Pfad_70">
					<path class="st3" d="M237.9-2378.5l0.2-0.4h10.5c1.3,0.2,13,2.6,13,13.3c0,10.8-10.4,13.1-11.6,13.3l-0.1,0H238l-0.2-0.4
						C234.5-2360.9,234.5-2370.2,237.9-2378.5 M237.2-2351.4c0.1,0.2,0.3,0.3,0.5,0.3h12.2c0.2,0,12.8-2.3,12.8-14.4
						c0-12-13.9-14.4-14-14.4l-11,0c-0.2,0-0.4,0.1-0.5,0.3C233.1-2370.7,233.1-2360.4,237.2-2351.4"/>
				</g>
				<g id="Pfad_71">
					<path class="st3" d="M228.7-2379c-0.1,0-0.1,0-0.2,0l-14.1,4c-0.3,0.1-0.5,0.4-0.4,0.7c0,0,0,0,0,0c0.1,0.3,0.4,0.5,0.7,0.4
						l14.1-4c0.3-0.1,0.5-0.4,0.4-0.7c0,0,0,0,0,0C229.1-2378.8,228.9-2379,228.7-2379"/>
				</g>
				<g id="Pfad_72">
					<path class="st3" d="M229.2-2352.9c-0.1-0.2-0.3-0.4-0.5-0.4c-0.1,0-0.1,0-0.2,0l-14.1,4c-0.3,0.1-0.5,0.4-0.4,0.7c0,0,0,0,0,0
						c0.1,0.3,0.4,0.5,0.7,0.4l0,0l14.1-4C229.1-2352.2,229.3-2352.5,229.2-2352.9C229.2-2352.8,229.2-2352.8,229.2-2352.9"/>
				</g>
				<g id="Pfad_73">
					<path class="st3" d="M228.7-2361.8c-0.1,0-0.1,0-0.2,0l-14.1,4c-0.1,0-0.3,0.1-0.3,0.3c-0.1,0.1-0.1,0.3-0.1,0.4
						c0.1,0.3,0.4,0.5,0.7,0.4l14.1-4c0.3-0.1,0.5-0.4,0.4-0.7c0,0,0,0,0,0C229.1-2361.7,228.9-2361.8,228.7-2361.8"/>
				</g>
				<g id="Pfad_74">
					<path class="st3" d="M228.7-2370.4c-0.1,0-0.1,0-0.2,0l-14.1,4c-0.1,0-0.3,0.1-0.3,0.3c-0.1,0.1-0.1,0.3-0.1,0.4
						c0.1,0.3,0.4,0.5,0.7,0.4l14.1-4c0.3-0.1,0.5-0.4,0.4-0.7c0,0,0,0,0,0C229.2-2370.3,228.9-2370.4,228.7-2370.4"/>
				</g>
			</g>
		</g>
	</g>
</g>
</svg>
