<?xml version="1.0" encoding="utf-8"?>
<!-- Generator: Adobe Illustrator 22.0.1, SVG Export Plug-In . SVG Version: 6.00 Build 0)  -->
<svg version="1.1" id="Ebene_1" xmlns="http://www.w3.org/2000/svg" xmlns:xlink="http://www.w3.org/1999/xlink" x="0px" y="0px"
	 viewBox="0 0 93 53.2" style="enable-background:new 0 0 93 53.2;" xml:space="preserve">
<style type="text/css">
	.st0{fill:#F47211;}
	.st1{enable-background:new    ;}
	.st2{fill:#FFFFFF;}
</style>
<g id="Gruppe_59" transform="translate(370 899)">
	<g id="AutoIcon" transform="translate(98.9 44.433)">
		<g id="Pfad_39">
			<path class="st0" d="M-393.5-933.9c-0.6-0.6-4.9-2.2-16.8-3.7c-0.8-0.3-1.6-0.7-2.4-1.2c-3-1.7-8-4.6-13.8-4.6
				c-7.9,0-9.6,0.6-16,3.7c-1.2,0.5-2.5,0.7-3.8,0.7v0.5c1.4,0,2.7-0.3,4-0.8c2.2-1,3.8-1.8,5.3-2.4c2.8-1,5.3-1.3,10.6-1.3
				c5.7,0,10.6,2.8,13.5,4.5c0.8,0.6,1.7,1,2.6,1.2c11.9,1.4,16.1,3.1,16.5,3.5c2.8,2.6,2.9,3,2.9,4c0.2,2.2-1.4,4.2-3.6,4.4
				l-0.3,0.1l0.1-0.3c0.4-0.8,0.6-1.7,0.6-2.6c0-3-2.5-5.5-5.5-5.5s-5.5,2.5-5.5,5.5c0,0.9,0.2,1.8,0.7,2.6l0.1,0.3l-30.8-0.1
				l0.1-0.3c0.4-0.8,0.6-1.6,0.6-2.4c0-3-2.5-5.5-5.5-5.5s-5.5,2.5-5.5,5.5c0,0.8,0.2,1.7,0.6,2.4l0.1,0.3h-0.3
				c-0.5,0-1-0.1-1.5-0.1v0.5c0.6,0.1,1.3,0.1,1.9,0.1h0.1l0.1,0.1c1.8,2.4,5.2,2.9,7.6,1.2c0.5-0.3,0.8-0.7,1.2-1.2l0.1-0.1h0.1
				l31.5,0.2l0.1,0.1c1.8,2.4,5.2,2.8,7.6,0.9c0.3-0.3,0.7-0.6,0.9-0.9l0.1-0.1h0.1c2.6,0,4.7-2.1,4.7-4.8c0-0.1,0-0.2,0-0.2
				C-390.4-930.8-390.8-931.4-393.5-933.9z M-439.9-922.9c-2.8,0-5-2.2-5-5s2.2-5,5-5s5,2.2,5,5
				C-434.8-925.1-437.1-922.9-439.9-922.9C-439.8-922.9-439.8-922.9-439.9-922.9z M-399.5-922.9c-2.8,0-5-2.2-5-5s2.2-5,5-5
				s5,2.2,5,5C-394.5-925.1-396.8-922.9-399.5-922.9L-399.5-922.9z"/>
			<path class="st0" d="M-399.5-922.3c-0.2,0-0.5,0-0.7,0c-1.5-0.2-2.8-0.9-3.7-2.1l0,0l-31.5-0.2l0,0c-0.3,0.4-0.7,0.9-1.2,1.2
				c-1.2,0.9-2.7,1.2-4.1,1c-1.5-0.2-2.7-1-3.6-2.2l0,0c-0.7,0-1.3-0.1-2-0.1h-0.1v-0.7h0.1c0.5,0.1,1,0.1,1.4,0.1h0.1v-0.1
				c-0.4-0.8-0.6-1.6-0.6-2.5c0-3.1,2.5-5.6,5.6-5.6s5.6,2.5,5.6,5.6c0,0.9-0.2,1.7-0.6,2.5v0.1l30.4,0.1v-0.1
				c-0.5-0.8-0.7-1.7-0.7-2.7c0-3.1,2.5-5.6,5.6-5.6s5.6,2.5,5.6,5.6c0,0.9-0.2,1.8-0.6,2.6v0.1h0.1c2.1-0.3,3.7-2.2,3.5-4.3
				c0-0.9-0.1-1.2-2.9-3.9c-0.4-0.4-4.4-2.1-16.5-3.5c-1-0.3-1.8-0.7-2.6-1.3l-0.3-0.2c-3.1-1.7-7.7-4.3-13.1-4.3s-7.7,0.3-10.5,1.3
				c-1.3,0.5-2.7,1.2-4.6,2.1l-0.6,0.3c-1.3,0.5-2.7,0.8-4.1,0.8h-0.1v-0.7h0.1c1.3,0,2.6-0.2,3.8-0.7c6.4-3,8.1-3.7,16.1-3.7
				c5.9,0,11.1,3,13.8,4.6c0.7,0.5,1.5,0.9,2.3,1.2c11.6,1.4,16.1,3,16.8,3.7l0,0c2.8,2.5,3.2,3.1,3.2,4.4c0,0.1,0,0.2,0,0.2
				c0,1.3-0.5,2.5-1.4,3.5c-0.9,0.9-2.1,1.4-3.4,1.4l0,0l0,0c-0.3,0.3-0.6,0.7-0.9,0.9C-397.1-922.7-398.3-922.3-399.5-922.3z
				 M-435.5-924.9h0.1l31.6,0.2l0.1,0.1c0.9,1.1,2.1,1.8,3.5,2s2.8-0.2,3.9-1.1c0.3-0.3,0.6-0.6,0.9-0.9l0.1-0.1h0.1
				c1.2,0,2.4-0.5,3.3-1.4s1.3-2,1.3-3.3c0-0.1,0-0.1,0-0.2c0-1.2-0.4-1.7-3.1-4.2c-0.6-0.5-4.7-2.2-16.7-3.6
				c-0.9-0.3-1.7-0.7-2.4-1.2c-2.7-1.6-7.8-4.6-13.7-4.6c-8,0-9.6,0.6-16,3.7c-1.2,0.5-2.5,0.7-3.7,0.7v0.2c1.3,0,2.6-0.3,3.9-0.8
				l0.6-0.3c1.9-0.9,3.3-1.6,4.7-2.1c2.8-1,5.2-1.3,10.6-1.3c5.5,0,10.2,2.6,13.3,4.3l0.3,0.2c0.8,0.6,1.6,1,2.5,1.2
				c12.2,1.4,16.2,3.2,16.6,3.6c2.7,2.6,3,3,3,4c0.2,2.3-1.5,4.3-3.7,4.6l-0.6,0.1l0.2-0.6c0.4-0.8,0.6-1.7,0.6-2.5
				c0-3-2.4-5.4-5.4-5.4s-5.4,2.4-5.4,5.4c0,0.9,0.2,1.8,0.7,2.6l0.2,0.5l-31.2-0.1l0.2-0.5c0.4-0.7,0.6-1.6,0.5-2.4
				c0-3-2.4-5.4-5.4-5.4s-5.4,2.4-5.4,5.4c0,0.8,0.2,1.6,0.5,2.4l0.2,0.5h-0.5c-0.4,0-0.9-0.1-1.3-0.1v0.2c0.6,0.1,1.2,0.1,1.8,0.1
				h0.1l0.1,0.1c0.8,1.2,2.1,1.9,3.5,2.1c1.4,0.2,2.8-0.1,3.9-1c0.4-0.3,0.8-0.7,1.2-1.2L-435.5-924.9z M-399.5-922.8L-399.5-922.8
				c-2.8,0-5.1-2.3-5.1-5.1s2.3-5.1,5.1-5.1s5.1,2.3,5.1,5.1S-396.7-922.8-399.5-922.8L-399.5-922.8z M-399.5-932.8
				c-2.7,0-4.9,2.2-4.9,4.9s2.2,4.9,4.9,4.9l0,0c2.7,0,4.8-2.2,4.9-4.9C-394.6-930.6-396.8-932.8-399.5-932.8z M-439.8-922.8
				L-439.8-922.8c-2.9,0-5.2-2.3-5.2-5.1s2.3-5.1,5.1-5.1s5.1,2.3,5.1,5.1c0,1.4-0.5,2.6-1.5,3.6
				C-437.2-923.3-438.5-922.8-439.8-922.8z M-439.9-932.8c-2.7,0-4.9,2.2-4.9,4.9s2.2,4.9,4.9,4.9l0,0c2.7,0,4.8-2.2,4.8-4.9
				C-435-930.6-437.2-932.8-439.9-932.8z"/>
		</g>
		<g id="Rechteck_44">
			<rect x="-452" y="-936.4" class="st0" width="7.7" height="0.6"/>
		</g>
		<g id="Rechteck_45">
			<rect x="-455.9" y="-933" class="st0" width="7.7" height="0.6"/>
		</g>
		<g id="Rechteck_46">
			<rect x="-454" y="-928.9" class="st0" width="7.7" height="0.6"/>
		</g>
	</g>
	<g class="st1">
		<path class="st2" d="M-366.4-849.7c0.8,0,1.4-0.1,1.9-0.4c0.4-0.3,0.7-0.8,0.7-1.4c0-0.4-0.1-0.7-0.2-1s-0.3-0.5-0.6-0.6
			c-0.2-0.2-0.5-0.3-0.8-0.4c-0.3-0.1-0.6-0.3-1-0.4c-0.4-0.2-0.8-0.3-1.2-0.5s-0.6-0.4-0.9-0.6c-0.2-0.2-0.4-0.5-0.5-0.8
			s-0.2-0.6-0.2-1c0-0.9,0.3-1.6,0.9-2c0.6-0.5,1.4-0.7,2.5-0.7c0.3,0,0.6,0,0.8,0.1c0.3,0,0.5,0.1,0.8,0.2c0.2,0.1,0.4,0.1,0.6,0.2
			c0.2,0.1,0.4,0.2,0.5,0.3l-0.4,0.9c-0.3-0.2-0.6-0.4-1.1-0.5c-0.4-0.1-0.9-0.2-1.3-0.2c-0.3,0-0.6,0-0.9,0.1s-0.5,0.2-0.7,0.3
			s-0.4,0.3-0.5,0.5s-0.2,0.5-0.2,0.8s0.1,0.6,0.2,0.8s0.3,0.4,0.5,0.6c0.2,0.2,0.5,0.3,0.8,0.4c0.3,0.1,0.6,0.3,0.9,0.4
			c0.4,0.2,0.8,0.3,1.2,0.5c0.4,0.2,0.7,0.4,1,0.6c0.3,0.2,0.5,0.5,0.6,0.8c0.2,0.3,0.2,0.7,0.2,1.2c0,0.9-0.3,1.6-1,2.1
			s-1.5,0.7-2.7,0.7c-0.4,0-0.8,0-1.1-0.1s-0.6-0.1-0.9-0.2c-0.3-0.1-0.5-0.2-0.7-0.2c-0.2-0.1-0.3-0.2-0.4-0.2l0.3-0.9
			c0.1,0.1,0.2,0.1,0.4,0.2c0.2,0.1,0.4,0.2,0.6,0.2c0.2,0.1,0.5,0.1,0.8,0.2S-366.8-849.7-366.4-849.7z"/>
		<path class="st2" d="M-357.7-848.9c-0.6,0-1.1-0.1-1.6-0.3s-0.8-0.5-1.1-0.8c-0.3-0.4-0.5-0.8-0.7-1.3s-0.2-1-0.2-1.6
			s0.1-1.2,0.2-1.7c0.2-0.5,0.4-0.9,0.7-1.3c0.3-0.4,0.7-0.6,1.1-0.8s0.9-0.3,1.5-0.3c0.4,0,0.8,0,1.2,0.1c0.4,0.1,0.6,0.2,0.8,0.3
			l-0.3,0.8c-0.2-0.1-0.4-0.2-0.7-0.2c-0.3-0.1-0.6-0.1-1-0.1c-0.9,0-1.5,0.3-2,0.8s-0.7,1.3-0.7,2.4c0,0.5,0.1,0.9,0.1,1.3
			c0.1,0.4,0.3,0.7,0.5,1s0.5,0.5,0.9,0.6c0.4,0.2,0.8,0.2,1.3,0.2c0.4,0,0.8,0,1.1-0.1c0.3-0.1,0.5-0.2,0.6-0.2l0.2,0.8
			c-0.2,0.1-0.5,0.2-0.8,0.3S-357.3-848.9-357.7-848.9z"/>
		<path class="st2" d="M-354.1-849.1v-11.5l1-0.2v4.1c0.3-0.1,0.6-0.2,1-0.3c0.3-0.1,0.7-0.1,1-0.1c0.6,0,1.1,0.1,1.5,0.3
			s0.7,0.4,1,0.7c0.2,0.3,0.4,0.7,0.5,1.1s0.1,0.9,0.1,1.5v4.3h-1v-4c0-0.6,0-1-0.1-1.4s-0.2-0.7-0.4-0.9c-0.2-0.2-0.4-0.4-0.7-0.5
			c-0.3-0.1-0.7-0.2-1.1-0.2c-0.2,0-0.4,0-0.5,0c-0.2,0-0.4,0.1-0.5,0.1s-0.3,0.1-0.5,0.1c-0.1,0-0.2,0.1-0.3,0.1v6.7h-1V-849.1z"/>
		<path class="st2" d="M-345.5-856.5c0.3-0.1,0.7-0.2,1.2-0.3s1.1-0.2,1.8-0.2c0.6,0,1.1,0.1,1.5,0.3s0.7,0.4,0.9,0.7
			c0.2,0.3,0.4,0.7,0.5,1.1c0.1,0.4,0.1,0.9,0.1,1.5v4.3h-1v-4c0-0.6,0-1-0.1-1.4s-0.2-0.7-0.4-0.9c-0.2-0.2-0.4-0.4-0.7-0.5
			c-0.3-0.1-0.6-0.2-1.1-0.2s-0.9,0-1.2,0.1c-0.3,0.1-0.6,0.1-0.7,0.1v6.8h-1v-7.4H-345.5z"/>
		<path class="st2" d="M-337.5-852.9c0-0.7,0.1-1.3,0.3-1.8c0.2-0.5,0.4-0.9,0.8-1.3s0.7-0.6,1.1-0.8s0.8-0.2,1.3-0.2
			c1,0,1.7,0.3,2.3,0.9c0.6,0.6,0.8,1.6,0.8,2.9c0,0.1,0,0.2,0,0.2c0,0.1,0,0.2,0,0.2h-5.4c0,0.9,0.3,1.7,0.7,2.2s1.1,0.8,2.1,0.8
			c0.5,0,0.9-0.1,1.3-0.2s0.5-0.2,0.7-0.3l0.2,0.8c-0.1,0.1-0.4,0.2-0.8,0.3s-0.8,0.2-1.4,0.2c-0.7,0-1.3-0.1-1.7-0.3
			s-0.9-0.5-1.2-0.8s-0.5-0.8-0.7-1.3C-337.4-851.8-337.5-852.4-337.5-852.9z M-331.9-853.6c0-0.8-0.2-1.4-0.6-1.9s-0.9-0.7-1.5-0.7
			c-0.4,0-0.7,0.1-0.9,0.2c-0.3,0.1-0.5,0.3-0.7,0.6c-0.2,0.2-0.4,0.5-0.5,0.8s-0.2,0.6-0.2,1L-331.9-853.6L-331.9-853.6z"/>
		<path class="st2" d="M-326.8-848.9c-0.3,0-0.6-0.1-0.9-0.1c-0.2-0.1-0.5-0.2-0.6-0.3c-0.2-0.2-0.3-0.4-0.4-0.6
			c-0.1-0.2-0.1-0.6-0.1-0.9v-9.6l1-0.2v9.8c0,0.2,0,0.4,0.1,0.6c0,0.1,0.1,0.3,0.2,0.3c0.1,0.1,0.2,0.1,0.4,0.2
			c0.1,0,0.3,0.1,0.5,0.1L-326.8-848.9z"/>
		<path class="st2" d="M-323-848.9c-0.3,0-0.6-0.1-0.9-0.1c-0.2-0.1-0.5-0.2-0.6-0.3c-0.2-0.2-0.3-0.4-0.4-0.6
			c-0.1-0.2-0.1-0.6-0.1-0.9v-9.6l1-0.2v9.8c0,0.2,0,0.4,0.1,0.6c0,0.1,0.1,0.3,0.2,0.3c0.1,0.1,0.2,0.1,0.4,0.2
			c0.1,0,0.3,0.1,0.5,0.1L-323-848.9z"/>
		<path class="st2" d="M-316.3-856c-0.2,0.3-0.5,0.6-0.9,1.1s-0.8,1-1.2,1.5c-0.4,0.6-0.8,1.2-1.2,1.8c-0.4,0.6-0.8,1.2-1.1,1.7h4.6
			v0.8h-5.7v-0.7c0.3-0.5,0.6-1,1-1.6s0.8-1.2,1.2-1.7s0.8-1.1,1.2-1.6c0.4-0.5,0.7-0.9,1-1.2h-4.1v-0.8h5.3L-316.3-856L-316.3-856z
			"/>
		<path class="st2" d="M-308.3-849.3c-0.3,0.1-0.7,0.2-1.2,0.3s-1.1,0.2-1.8,0.2c-0.6,0-1.1-0.1-1.5-0.3s-0.7-0.4-0.9-0.7
			s-0.4-0.7-0.5-1.1s-0.2-0.9-0.2-1.5v-4.3h1v4c0,0.5,0,1,0.1,1.4s0.2,0.7,0.4,0.9c0.2,0.2,0.4,0.4,0.7,0.5c0.3,0.1,0.6,0.2,1,0.2
			c0.5,0,0.9,0,1.2-0.1c0.3-0.1,0.6-0.1,0.6-0.1v-6.8h1L-308.3-849.3L-308.3-849.3z"/>
		<path class="st2" d="M-300.7-850c-0.1,0.1-0.2,0.1-0.3,0.2c-0.1,0.1-0.3,0.1-0.4,0.2c-0.2,0.1-0.4,0.1-0.6,0.2s-0.5,0.1-0.8,0.1
			c-0.4,0-0.9-0.1-1.3-0.2s-0.8-0.4-1.1-0.7c-0.3-0.3-0.6-0.7-0.8-1.2s-0.3-1.1-0.3-1.7c0-0.6,0.1-1.1,0.3-1.5
			c0.2-0.5,0.4-0.9,0.7-1.2c0.3-0.3,0.7-0.6,1.2-0.8s1-0.3,1.5-0.3c0.7,0,1.3,0,1.7,0.1c0.4,0.1,0.8,0.2,1.1,0.3v7.1
			c0,1.2-0.3,2-0.9,2.5s-1.5,0.7-2.7,0.7c-0.5,0-1,0-1.4-0.1s-0.8-0.2-1-0.3l0.2-0.9c0.2,0.1,0.6,0.2,1,0.3s0.8,0.1,1.3,0.1
			c0.9,0,1.6-0.2,2-0.5c0.4-0.4,0.6-1,0.6-1.8L-300.7-850L-300.7-850z M-300.7-855.9c-0.2-0.1-0.4-0.1-0.7-0.1
			c-0.3,0-0.7-0.1-1.2-0.1c-0.4,0-0.8,0.1-1.1,0.2c-0.3,0.1-0.6,0.4-0.8,0.6c-0.2,0.3-0.4,0.6-0.5,0.9c-0.1,0.4-0.2,0.8-0.2,1.2
			c0,0.5,0.1,0.9,0.2,1.3s0.3,0.7,0.5,0.9s0.5,0.4,0.8,0.5s0.6,0.2,0.9,0.2c0.4,0,0.8-0.1,1.2-0.2c0.4-0.1,0.6-0.3,0.8-0.4v-5
			H-300.7z"/>
		<path class="st2" d="M-294.5-857c0.3,0,0.6,0,0.9,0.1s0.5,0.1,0.6,0.2l-0.2,0.8c-0.1,0-0.2-0.1-0.5-0.1s-0.6-0.1-1-0.1
			s-0.8,0-1,0.1c-0.3,0.1-0.4,0.1-0.5,0.2v6.8h-1v-7.4c0.2-0.1,0.6-0.2,1-0.3C-295.7-856.9-295.2-857-294.5-857z"/>
		<path class="st2" d="M-290.4-859.2c0,0.2-0.1,0.4-0.2,0.5s-0.3,0.2-0.5,0.2s-0.4-0.1-0.5-0.2s-0.2-0.3-0.2-0.5s0.1-0.4,0.2-0.5
			s0.3-0.2,0.5-0.2s0.4,0.1,0.5,0.2C-290.4-859.6-290.4-859.4-290.4-859.2z M-290.6-849.1h-1v-7.8h1V-849.1z"/>
		<path class="st2" d="M-285.1-860.7c0.4,0,0.8,0,1,0.1c0.3,0.1,0.4,0.1,0.5,0.2l-0.2,0.8c-0.1-0.1-0.3-0.1-0.5-0.2
			c-0.2-0.1-0.5-0.1-0.8-0.1c-0.7,0-1.2,0.2-1.5,0.5s-0.4,0.9-0.4,1.7v0.8h3.1v0.8h-3.1v6.9h-1v-8.6c0-1,0.2-1.8,0.7-2.3
			S-286.1-860.7-285.1-860.7z M-279.5-860.7c0.4,0,0.8,0,1,0.1c0.3,0.1,0.4,0.1,0.5,0.2l-0.2,0.8c-0.1-0.1-0.3-0.1-0.5-0.2
			s-0.5-0.1-0.8-0.1c-0.7,0-1.2,0.2-1.5,0.5s-0.4,0.9-0.4,1.7v0.8h3.1v0.8h-3.1v6.9h-1v-8.6c0-1,0.2-1.8,0.7-2.3
			S-280.5-860.7-279.5-860.7z"/>
	</g>
</g>
</svg>
