<svg xmlns="http://www.w3.org/2000/svg" viewBox="59.653 1617.268 32.938 48.995">
  <defs>
    <style>
      .cls-1 {
        fill: #f47211;
      }
    </style>
  </defs>
  <g id="Gruppe_89" data-name="Gruppe 89" transform="translate(59.653 1617.268)">
    <path id="Pfad_54" data-name="Pfad 54" class="cls-1" d="M20.1,12.579a.59.59,0,0,0,.549-.549V3.659A.59.59,0,0,0,20.1,3.11H6.649c-.274-.137-.549.137-.549.549V12.03a.59.59,0,0,0,.549.549ZM7.335,4.208H19.55v7.137H7.335Z" transform="translate(2.272 1.145)"/>
    <path id="Pfad_55" data-name="Pfad 55" class="cls-1" d="M27.174,27.174V7.96h2.745A1.864,1.864,0,0,1,31.84,9.881V24.155a.549.549,0,1,0,1.1,0V9.744a3.075,3.075,0,0,0-3.157-3.157H27.037V2.333A2.127,2.127,0,0,0,24.841,0H6.45A2.313,2.313,0,0,0,4.117,2.333v38.7H2.333A2.313,2.313,0,0,0,0,43.368v3.294A2.313,2.313,0,0,0,2.333,49H29.1a2.313,2.313,0,0,0,2.333-2.333V43.368A2.313,2.313,0,0,0,29.1,41.035H27.174V32.252M5.352,2.333a1.181,1.181,0,0,1,1.1-1.1h18.39a1.181,1.181,0,0,1,1.1,1.1v38.7H5.352V2.333ZM29.1,42.133a1.181,1.181,0,0,1,1.1,1.1v3.294a1.181,1.181,0,0,1-1.1,1.1H2.333a1.181,1.181,0,0,1-1.1-1.1V43.231a1.181,1.181,0,0,1,1.1-1.1ZM27.174,30.879v0Z" transform="translate(0 0)"/>
  </g>
</svg>
