<?xml version="1.0" encoding="utf-8"?>
<!-- Generator: Adobe Illustrator 22.0.1, SVG Export Plug-In . SVG Version: 6.00 Build 0)  -->
<svg version="1.1" id="Ebene_1" xmlns="http://www.w3.org/2000/svg" xmlns:xlink="http://www.w3.org/1999/xlink" x="0px" y="0px"
	 viewBox="0 0 49.6 47.9" style="enable-background:new 0 0 49.6 47.9;" xml:space="preserve">
<style type="text/css">
	.st0{enable-background:new    ;}
	.st1{fill:#FFFFFF;}
	.st2{fill:#F47211;}
</style>
<g id="Gruppe_99" transform="translate(-302 2205.98)">
	<g class="st0">
		<path class="st1" d="M313.5-2164.3c0,0.7-0.1,1.3-0.3,1.9s-0.5,1-0.8,1.4c-0.4,0.4-0.8,0.6-1.2,0.8c-0.5,0.2-1,0.3-1.5,0.3
			c-0.5,0-1-0.1-1.5-0.3c-0.5-0.2-0.9-0.5-1.2-0.8c-0.4-0.4-0.6-0.8-0.8-1.4c-0.2-0.5-0.3-1.2-0.3-1.9s0.1-1.3,0.3-1.9
			c0.2-0.5,0.5-1,0.8-1.4c0.4-0.4,0.8-0.6,1.2-0.8c0.5-0.2,1-0.3,1.5-0.3c0.5,0,1,0.1,1.5,0.3c0.5,0.2,0.9,0.5,1.2,0.8
			c0.4,0.4,0.6,0.8,0.8,1.4S313.5-2165,313.5-2164.3z M312.7-2164.3c0-0.6-0.1-1.1-0.2-1.5c-0.1-0.4-0.3-0.8-0.6-1.1
			c-0.3-0.3-0.6-0.5-1-0.7s-0.8-0.2-1.3-0.2s-0.9,0.1-1.3,0.2s-0.7,0.4-1,0.7c-0.3,0.3-0.5,0.7-0.6,1.1s-0.2,0.9-0.2,1.5
			c0,0.6,0.1,1.1,0.2,1.5c0.1,0.4,0.3,0.8,0.6,1.1c0.3,0.3,0.6,0.6,1,0.7s0.8,0.3,1.3,0.3s0.9-0.1,1.3-0.3s0.7-0.4,1-0.7
			c0.3-0.3,0.5-0.7,0.6-1.1C312.6-2163.2,312.7-2163.7,312.7-2164.3z M309.1-2170.1c0,0.2-0.1,0.3-0.2,0.4c-0.1,0.1-0.2,0.2-0.4,0.2
			s-0.3-0.1-0.4-0.2c-0.1-0.1-0.2-0.2-0.2-0.4c0-0.2,0.1-0.3,0.2-0.4c0.1-0.1,0.2-0.2,0.4-0.2s0.3,0.1,0.4,0.2
			C309.1-2170.4,309.1-2170.2,309.1-2170.1z M311.2-2170.1c0,0.2-0.1,0.3-0.2,0.4c-0.1,0.1-0.2,0.2-0.4,0.2c-0.2,0-0.3-0.1-0.4-0.2
			c-0.1-0.1-0.2-0.2-0.2-0.4c0-0.2,0.1-0.3,0.2-0.4c0.1-0.1,0.2-0.2,0.4-0.2c0.2,0,0.3,0.1,0.4,0.2
			C311.1-2170.4,311.2-2170.2,311.2-2170.1z"/>
		<path class="st1" d="M316.9-2160c-0.3,0-0.5,0-0.7-0.1c-0.2-0.1-0.4-0.2-0.5-0.3c-0.1-0.1-0.2-0.3-0.3-0.5s-0.1-0.4-0.1-0.7v-7.7
			l0.8-0.1v7.8c0,0.2,0,0.3,0.1,0.5s0.1,0.2,0.2,0.3c0.1,0.1,0.2,0.1,0.3,0.2c0.1,0,0.3,0.1,0.4,0.1L316.9-2160z"/>
		<path class="st1" d="M319.6-2160.7c0.4,0,0.8-0.1,1.1-0.2c0.3-0.1,0.4-0.4,0.4-0.8c0-0.2,0-0.3-0.1-0.4c-0.1-0.1-0.1-0.2-0.3-0.3
			c-0.1-0.1-0.3-0.2-0.5-0.3s-0.4-0.2-0.7-0.3c-0.2-0.1-0.5-0.2-0.7-0.3c-0.2-0.1-0.4-0.2-0.6-0.3s-0.3-0.3-0.4-0.5
			c-0.1-0.2-0.1-0.4-0.1-0.7c0-0.5,0.2-0.9,0.6-1.2c0.4-0.3,0.9-0.5,1.6-0.5c0.4,0,0.8,0,1.1,0.1c0.3,0.1,0.5,0.1,0.6,0.2l-0.2,0.7
			c-0.1,0-0.3-0.1-0.5-0.2c-0.2-0.1-0.6-0.1-1-0.1c-0.2,0-0.3,0-0.5,0.1c-0.2,0-0.3,0.1-0.4,0.2c-0.1,0.1-0.2,0.2-0.3,0.3
			c-0.1,0.1-0.1,0.3-0.1,0.4c0,0.2,0,0.3,0.1,0.4c0.1,0.1,0.2,0.2,0.3,0.3c0.1,0.1,0.3,0.2,0.5,0.3c0.2,0.1,0.4,0.2,0.6,0.3
			c0.2,0.1,0.5,0.2,0.7,0.3c0.2,0.1,0.4,0.2,0.6,0.4s0.3,0.3,0.4,0.5c0.1,0.2,0.2,0.4,0.2,0.7c0,0.6-0.2,1-0.6,1.3s-1,0.4-1.7,0.4
			c-0.5,0-1,0-1.2-0.1s-0.5-0.2-0.6-0.2l0.2-0.7c0,0,0.1,0,0.2,0.1s0.2,0.1,0.3,0.1s0.3,0.1,0.5,0.1
			C319.2-2160.7,319.4-2160.7,319.6-2160.7z"/>
		<path class="st1" d="M324.2-2166.3h2.5v0.7h-2.5v3.3c0,0.4,0,0.6,0.1,0.9c0.1,0.2,0.1,0.4,0.3,0.5s0.2,0.2,0.4,0.2
			s0.3,0.1,0.5,0.1c0.3,0,0.6,0,0.8-0.1c0.2-0.1,0.4-0.1,0.5-0.2l0.2,0.6c-0.1,0.1-0.3,0.2-0.6,0.2s-0.6,0.1-0.9,0.1
			c-0.4,0-0.7,0-1-0.1c-0.3-0.1-0.5-0.3-0.6-0.5s-0.3-0.5-0.3-0.8c-0.1-0.3-0.1-0.7-0.1-1.1v-5.7l0.8-0.1V-2166.3z"/>
		<path class="st1" d="M330-2166.5c0.4,0,0.8,0.1,1,0.2c0.3,0.1,0.5,0.3,0.7,0.5s0.3,0.4,0.4,0.7s0.1,0.6,0.1,0.9v3.9
			c-0.1,0-0.2,0-0.3,0.1c-0.2,0-0.3,0.1-0.5,0.1c-0.2,0-0.4,0.1-0.7,0.1c-0.2,0-0.5,0-0.8,0c-0.3,0-0.6,0-0.9-0.1
			c-0.3-0.1-0.5-0.2-0.7-0.3c-0.2-0.2-0.4-0.4-0.5-0.6c-0.1-0.2-0.2-0.5-0.2-0.9c0-0.3,0.1-0.6,0.2-0.9s0.3-0.4,0.5-0.6
			c0.2-0.2,0.5-0.3,0.8-0.3c0.3-0.1,0.7-0.1,1-0.1c0.1,0,0.2,0,0.4,0c0.1,0,0.2,0,0.4,0c0.1,0,0.2,0,0.3,0.1c0.1,0,0.1,0,0.2,0.1
			v-0.4c0-0.2,0-0.4,0-0.6c0-0.2-0.1-0.4-0.2-0.6c-0.1-0.2-0.3-0.3-0.5-0.4c-0.2-0.1-0.5-0.2-0.8-0.2c-0.5,0-0.8,0-1,0.1
			c-0.2,0.1-0.4,0.1-0.5,0.2l-0.1-0.7c0.1-0.1,0.3-0.1,0.6-0.2C329.3-2166.4,329.6-2166.5,330-2166.5z M330.1-2160.7
			c0.3,0,0.6,0,0.8,0c0.2,0,0.4,0,0.6-0.1v-2.2c-0.1,0-0.2-0.1-0.4-0.1c-0.2,0-0.5-0.1-0.8-0.1c-0.2,0-0.4,0-0.6,0s-0.4,0.1-0.6,0.2
			s-0.3,0.2-0.4,0.4s-0.2,0.4-0.2,0.6c0,0.2,0,0.4,0.1,0.6c0.1,0.2,0.2,0.3,0.3,0.4c0.1,0.1,0.3,0.2,0.5,0.2
			C329.6-2160.7,329.8-2160.7,330.1-2160.7z"/>
		<path class="st1" d="M334.2-2166.1c0.2-0.1,0.5-0.1,0.9-0.2c0.4-0.1,0.9-0.1,1.4-0.1c0.5,0,0.9,0.1,1.2,0.2
			c0.3,0.1,0.6,0.3,0.8,0.6c0.2,0.3,0.3,0.6,0.4,0.9c0.1,0.4,0.1,0.7,0.1,1.2v3.5h-0.8v-3.2c0-0.4,0-0.8-0.1-1.1
			c-0.1-0.3-0.2-0.6-0.3-0.7c-0.1-0.2-0.3-0.3-0.6-0.4c-0.2-0.1-0.5-0.1-0.9-0.1c-0.4,0-0.7,0-1,0.1c-0.3,0-0.4,0.1-0.5,0.1v5.4
			h-0.8V-2166.1z"/>
		<path class="st1" d="M346-2160.3c-0.2,0.1-0.5,0.2-0.9,0.2s-0.8,0.1-1.4,0.1c-0.5,0-0.9-0.1-1.2-0.2c-0.4-0.1-0.7-0.4-1-0.6
			c-0.3-0.3-0.5-0.6-0.6-1c-0.1-0.4-0.2-0.9-0.2-1.4c0-0.5,0.1-0.9,0.2-1.3c0.1-0.4,0.3-0.7,0.5-1c0.2-0.3,0.5-0.5,0.9-0.7
			c0.3-0.2,0.7-0.2,1.2-0.2c0.4,0,0.8,0.1,1.1,0.2s0.5,0.2,0.7,0.3v-3.3l0.8-0.1V-2160.3z M345.2-2165.2c-0.1-0.1-0.2-0.1-0.3-0.2
			c-0.1-0.1-0.2-0.1-0.4-0.2c-0.1-0.1-0.3-0.1-0.5-0.1s-0.3-0.1-0.5-0.1c-0.4,0-0.7,0.1-1,0.2s-0.5,0.3-0.6,0.5
			c-0.2,0.2-0.3,0.5-0.3,0.8c-0.1,0.3-0.1,0.6-0.1,1c0,0.8,0.2,1.4,0.6,1.9c0.4,0.4,0.9,0.7,1.6,0.7c0.4,0,0.7,0,0.9-0.1
			c0.2,0,0.4-0.1,0.5-0.1V-2165.2z"/>
	</g>
	<g id="Pfad_61">
		<path class="st2" d="M351.4-2202.3l-1.8-1.8c-0.1-0.2-0.4-0.2-0.6-0.1l-2.6,1.8l-13.7,8.6l-4.1-5c-0.1-0.1-0.2-0.2-0.4-0.2H319
			v-3.4h2c0.3,0,0.5-0.2,0.5-0.4c0,0,0,0,0-0.1c0-0.3-0.2-0.5-0.4-0.5c0,0,0,0-0.1,0h-5.3c-0.3,0-0.5,0.2-0.5,0.4c0,0,0,0,0,0.1
			c0,0.3,0.2,0.5,0.4,0.5c0,0,0,0,0.1,0h2.1v3.4h-7.7v-3c0-0.2-0.1-0.3-0.2-0.4l-5.4-3.5c-0.1-0.1-0.2-0.1-0.4-0.1l-0.3,0.3
			l-1.8,4.4c-0.1,0.2,0,0.5,0.2,0.6l6.8,4.3v10.3c0,0.3,0.2,0.5,0.4,0.5c0,0,0,0,0.1,0H336c0.2,0,0.3-0.1,0.4-0.2l10.6-15.8l2.2-1.5
			l1.5,1.5c0.2,0.2,0.5,0.2,0.7,0C351.6-2201.8,351.6-2202.1,351.4-2202.3z M303.1-2201.3l1.4-3.5l4.6,3v4.2L303.1-2201.3z
			 M335.8-2186.6h-25.7v-11.3h17.8l4.3,5.1c0.1,0.2,0.4,0.2,0.6,0.1l12.1-7.6L335.8-2186.6z"/>
	</g>
</g>
</svg>
