<svg xmlns="http://www.w3.org/2000/svg" viewBox="0 0 2107 271">
  <defs>
    <style>
      .cls-1 {
        fill: none;
      }
      .cls-2 {
        fill: #46aeaf;
      }
      .cls-3 {
        fill: #e33a59;
      }
      .cls-4 {
        fill: #fdc82c;
      }
      .cls-5 {
        fill: #3e7b97;
      }
      .cls-6 {
        fill: #604a95;
      }
      .cls-7 {
        fill: #f8931f;
      }
    </style>
  </defs>
  <title>GrafikTop</title>
  <g id="Ebene_2" data-name="Ebene 2">
    <g id="Ebene_8" data-name="Ebene 8">
      <polygon class="cls-1" points="0 0 0 0.11 127.45 0.11 523.36 0.11 919.27 0.11 1315.18 0.11 1711.09 0.11 2107 0.11 2107 0 0 0"/>
      <polygon class="cls-2" points="127.45 0.11 0 0.11 0 271 261.54 271 127.45 0.11"/>
      <polygon class="cls-3" points="657.45 271 523.36 0.11 127.45 0.11 261.54 271 657.45 271"/>
      <polygon class="cls-4" points="1053.36 271 919.27 0.11 523.36 0.11 657.45 271 1053.36 271"/>
      <polygon class="cls-5" points="1449.27 271 1315.18 0.11 919.27 0.11 1053.36 271 1449.27 271"/>
      <polygon class="cls-6" points="1845.18 271 1711.09 0.11 1315.18 0.11 1449.27 271 1845.18 271"/>
      <polygon class="cls-7" points="1845.18 271 2107 271 2107 0.11 1711.09 0.11 1845.18 271"/>
    </g>
  </g>
</svg>
