<svg xmlns="http://www.w3.org/2000/svg" viewBox="0 0 2107 271.45"><defs><style>.cls-1{fill:#46aeaf;}.cls-2{fill:#e33a59;}.cls-3{fill:#fdc82c;}.cls-4{fill:#3e7b97;}.cls-5{fill:#604a95;}.cls-6{fill:#f8931f;}</style></defs><title>GrafikBottom</title><g id="Ebene_2" data-name="Ebene 2"><g id="Ebene_8" data-name="Ebene 8"><polygon class="cls-1" points="0 0 0 271.45 395.91 271.45 261.54 0 0 0"/><polygon class="cls-2" points="261.54 0 395.91 271.45 791.82 271.45 657.45 0 261.54 0"/><polygon class="cls-3" points="657.45 0 791.82 271.45 1187.73 271.45 1053.36 0 657.45 0"/><polygon class="cls-4" points="1053.36 0 1187.73 271.45 1583.64 271.45 1449.27 0 1053.36 0"/><polygon class="cls-5" points="1449.27 0 1583.64 271.45 1979.55 271.45 1845.18 0 1449.27 0"/><polygon class="cls-6" points="1979.55 271.45 2107 271.45 2107 0 1845.18 0 1979.55 271.45"/></g></g></svg>