<svg xmlns="http://www.w3.org/2000/svg" viewBox="0 0 975 200"><defs><style>.cls-1{fill:#46aeaf;}.cls-2{fill:#e33a59;}.cls-3{fill:#fdc82c;}.cls-4{fill:#3e7b97;}.cls-5{fill:#604a95;}.cls-6{fill:#f8931f;}</style></defs><title>Kacheln</title><g id="Ebene_2" data-name="Ebene 2"><g id="Ebene_2-2" data-name="Ebene 2"><polygon class="cls-1" points="245 200 99 200 0 0 146 0 245 200"/><polygon class="cls-2" points="391 200 245 200 146 0 292 0 391 200"/><polygon class="cls-3" points="537 200 391 200 292 0 438 0 537 200"/><polygon class="cls-4" points="683 200 537 200 438 0 584 0 683 200"/><polygon class="cls-5" points="829 200 683 200 584 0 730 0 829 200"/><polygon class="cls-6" points="975 200 829 200 730 0 876 0 975 200"/></g></g></svg>