<svg xmlns="http://www.w3.org/2000/svg" viewBox="0 0 2107 542.34"><defs><style>.cls-1{fill:#46aeaf;}.cls-2{fill:#f8931f;}.cls-3{fill:#e33a59;}.cls-4{fill:#fdc82c;}.cls-5{fill:#3e7b97;}.cls-6{fill:#604a95;}</style></defs><title>Element 2</title><g id="Ebene_2" data-name="Ebene 2"><g id="Ebene_8" data-name="Ebene 8"><line class="cls-1" y1="542.34"/><line class="cls-2" x1="2107" x2="2107" y2="542.34"/><polygon class="cls-1" points="0 0 0 542.34 395.91 542.34 127.45 0 0 0"/><polygon class="cls-3" points="127.45 0 395.91 542.34 791.82 542.34 523.36 0 127.45 0"/><polygon class="cls-4" points="523.36 0 791.82 542.34 1187.73 542.34 919.27 0 523.36 0"/><polygon class="cls-5" points="919.27 0 1187.73 542.34 1583.64 542.34 1315.18 0 919.27 0"/><polygon class="cls-6" points="1315.18 0 1583.64 542.34 1979.55 542.34 1711.09 0 1315.18 0"/><polygon class="cls-2" points="1711.09 0 1979.55 542.34 2107 542.34 2107 0 1711.09 0"/></g></g></svg>