<svg xmlns="http://www.w3.org/2000/svg" xmlns:xlink="http://www.w3.org/1999/xlink" viewBox="0 0 459.31 226.72"><defs><style>.cls-1{fill:red;}.cls-2{fill:#390000;}.cls-3{fill:url(#Unbenannter_Verlauf_41);}.cls-4{fill:url(#Unbenannter_Verlauf_41-2);}</style><linearGradient id="Unbenannter_Verlauf_41" x1="207.73" y1="120.02" x2="168.64" y2="106.55" gradientUnits="userSpaceOnUse"><stop offset="0.53" stop-color="#300000" stop-opacity="0"/><stop offset="1"/></linearGradient><linearGradient id="Unbenannter_Verlauf_41-2" x1="375.06" y1="120.02" x2="335.97" y2="106.55" xlink:href="#Unbenannter_Verlauf_41"/></defs><title>logo</title><g id="Ebene_2" data-name="Ebene 2"><g id="Ebene_2-2" data-name="Ebene 2"><polyline class="cls-1" points="126.28 226.72 0 226.5 82.31 0.27 208.35 0 126.28 226.72"/></g><g id="Ebene_4" data-name="Ebene 4"><polygon class="cls-2" points="208.35 0 210.15 0 230.15 54.91 167.65 226.72 166.65 226.72 146.34 171.3 208.35 0"/><polygon class="cls-2" points="375.69 0 377.48 0 459.31 226.72 334.98 226.72 333.98 226.72 313.67 171.3 375.69 0"/></g><g id="Ebene_3" data-name="Ebene 3"><polygon class="cls-3" points="208.35 0 210.15 0 230.15 54.91 167.65 226.72 166.65 226.72 146.34 171.3 208.35 0"/><polyline class="cls-1" points="293.62 226.72 167.33 226.5 249.65 0.27 375.69 0 293.62 226.72"/><polygon class="cls-4" points="375.69 0 377.48 0 397.48 54.91 334.98 226.72 333.98 226.72 313.67 171.3 375.69 0"/></g></g></svg>