<svg xmlns="http://www.w3.org/2000/svg" xmlns:xlink="http://www.w3.org/1999/xlink" viewBox="0 0 470 318.75"><defs><style>.cls-1,.cls-5{fill:red;}.cls-2{fill:#390000;}.cls-3{fill:url(#Unbenannter_Verlauf_41);}.cls-4{fill:url(#Unbenannter_Verlauf_41-2);}.cls-5{font-size:70px;font-family:CaviarDreams, Caviar Dreams;}.cls-6{font-family:CaviarDreams-Bold, Caviar Dreams;font-weight:700;}</style><linearGradient id="Unbenannter_Verlauf_41" x1="214.42" y1="120.02" x2="175.32" y2="106.55" gradientUnits="userSpaceOnUse"><stop offset="0.53" stop-color="#300000" stop-opacity="0"/><stop offset="1"/></linearGradient><linearGradient id="Unbenannter_Verlauf_41-2" x1="381.75" y1="120.02" x2="342.66" y2="106.55" xlink:href="#Unbenannter_Verlauf_41"/></defs><title>logo</title><g id="Ebene_2" data-name="Ebene 2"><g id="Ebene_2-2" data-name="Ebene 2"><polyline class="cls-1" points="132.97 226.72 6.69 226.5 89 0.27 215.04 0 132.97 226.72"/></g><g id="Ebene_4" data-name="Ebene 4"><polygon class="cls-2" points="215.04 0 216.83 0 236.83 54.91 174.33 226.72 173.33 226.72 153.03 171.3 215.04 0"/><polygon class="cls-2" points="382.38 0 384.17 0 466 226.72 341.67 226.72 340.67 226.72 320.36 171.3 382.38 0"/></g><g id="Ebene_3" data-name="Ebene 3"><polygon class="cls-3" points="215.04 0 216.83 0 236.83 54.91 174.33 226.72 173.33 226.72 153.03 171.3 215.04 0"/><polyline class="cls-1" points="300.3 226.72 174.02 226.5 256.33 0.27 382.38 0 300.3 226.72"/><polygon class="cls-4" points="382.38 0 384.17 0 404.17 54.91 341.67 226.72 340.67 226.72 320.36 171.3 382.38 0"/></g><g id="Ebene_5" data-name="Ebene 5"><text class="cls-5" transform="translate(0 289.43)">MORITZ<tspan class="cls-6" x="254.47" y="0">HUNKE</tspan></text></g></g></svg>