<svg xmlns="http://www.w3.org/2000/svg" viewBox="-880.022 1220.88 33.321 43.416">
  <defs>
    <style>
      .cls-1 {
        fill: #f47211;
      }
    </style>
  </defs>
  <path id="Pfad_78" data-name="Pfad 78" class="cls-1" d="M31.137,30.287c2.375-4.836,2.291-10.265,2.121-17.816-.085-2.121-.085-4.412-.085-6.872,0-.255-.085-.509-.339-.509L16.8,0H16.46L.511,5.09c-.17,0-.339.255-.339.424,0,2.46-.085,4.666-.085,6.872-.17,7.635-.255,13.065,2.121,17.9A27.642,27.642,0,0,0,16.46,43.352a.258.258,0,0,0,.339,0A27.447,27.447,0,0,0,31.137,30.287ZM16.291,42.164A26.333,26.333,0,0,1,3.056,29.778C.765,25.112.85,19.767,1.02,12.386v-.17c0-1.782.085-3.648.085-5.769V5.769L16.63.848,32.24,5.854v.679c0,2.036.085,3.987.085,5.769v.17c.17,7.381.255,12.726-2.036,17.392a26.085,26.085,0,0,1-13.235,12.3l-.339.17Z" transform="translate(-880.034 1220.88)"/>
</svg>
