<?xml version="1.0" encoding="utf-8"?>
<!-- Generator: Adobe Illustrator 22.0.1, SVG Export Plug-In . SVG Version: 6.00 Build 0)  -->
<svg version="1.1" id="Ebene_1" xmlns="http://www.w3.org/2000/svg" xmlns:xlink="http://www.w3.org/1999/xlink" x="0px" y="0px"
	 viewBox="0 0 37 58.4" style="enable-background:new 0 0 37 58.4;" xml:space="preserve">
<style type="text/css">
	.st0{enable-background:new    ;}
	.st1{fill:#FFFFFF;}
	.st2{fill:#F47211;}
</style>
<g id="Gruppe_97" transform="translate(-423.834 2086.963)">
	<g id="Gruppe_59" transform="translate(108 118.569)">
		<g class="st0">
			<path class="st1" d="M318.9-2149c-0.1,0-0.3,0-0.5,0c-0.2,0-0.4,0-0.6,0s-0.4,0-0.5-0.1c-0.2,0-0.3-0.1-0.4-0.1v-8
				c0.1,0,0.3-0.1,0.5-0.1c0.2,0,0.4-0.1,0.5-0.1c0.2,0,0.4,0,0.6,0c0.2,0,0.3,0,0.5,0c0.4,0,0.9,0,1.3,0.1c0.4,0.1,0.8,0.2,1.1,0.4
				c0.3,0.2,0.5,0.4,0.7,0.7c0.2,0.3,0.3,0.6,0.3,1c0,0.4-0.1,0.8-0.3,1.1s-0.5,0.5-0.9,0.7c0.2,0.1,0.5,0.1,0.7,0.2
				c0.2,0.1,0.4,0.2,0.5,0.4s0.3,0.4,0.4,0.6s0.1,0.5,0.1,0.8c0,0.8-0.3,1.4-0.9,1.8C321.2-2149.2,320.2-2149,318.9-2149z
				 M317.7-2153.8h1.6c0.3,0,0.6,0,0.8-0.1c0.3,0,0.5-0.1,0.7-0.2c0.2-0.1,0.4-0.3,0.5-0.5c0.1-0.2,0.2-0.4,0.2-0.7
				c0-0.3-0.1-0.5-0.2-0.7c-0.1-0.2-0.3-0.3-0.5-0.5c-0.2-0.1-0.5-0.2-0.8-0.3c-0.3-0.1-0.6-0.1-1-0.1c-0.3,0-0.5,0-0.8,0
				c-0.2,0-0.4,0-0.5,0.1V-2153.8z M317.7-2153.1v3.3c0.1,0,0.3,0,0.5,0.1c0.2,0,0.5,0,0.7,0c0.4,0,0.7,0,1.1-0.1
				c0.3,0,0.7-0.1,0.9-0.3c0.3-0.1,0.5-0.3,0.6-0.5s0.2-0.5,0.2-0.9c0-0.3-0.1-0.6-0.2-0.8c-0.1-0.2-0.3-0.4-0.5-0.5
				c-0.2-0.1-0.5-0.2-0.8-0.3c-0.3,0-0.6-0.1-1-0.1H317.7z"/>
			<path class="st1" d="M324.1-2152.2c0-0.5,0.1-1,0.2-1.4c0.2-0.4,0.4-0.7,0.6-1c0.3-0.3,0.5-0.5,0.9-0.6c0.3-0.1,0.7-0.2,1-0.2
				c0.8,0,1.4,0.2,1.8,0.7s0.7,1.3,0.7,2.3c0,0.1,0,0.1,0,0.2c0,0.1,0,0.1,0,0.2h-4.4c0,0.8,0.2,1.3,0.6,1.8
				c0.4,0.4,0.9,0.6,1.7,0.6c0.4,0,0.8,0,1-0.1c0.2-0.1,0.4-0.1,0.5-0.2l0.1,0.7c-0.1,0.1-0.3,0.1-0.6,0.2s-0.7,0.1-1.1,0.1
				c-0.5,0-1-0.1-1.4-0.2c-0.4-0.2-0.7-0.4-0.9-0.7c-0.2-0.3-0.4-0.6-0.5-1C324.1-2151.3,324.1-2151.7,324.1-2152.2z M328.5-2152.7
				c0-0.6-0.2-1.2-0.5-1.5c-0.3-0.4-0.7-0.5-1.2-0.5c-0.3,0-0.5,0.1-0.8,0.2c-0.2,0.1-0.4,0.3-0.6,0.5c-0.2,0.2-0.3,0.4-0.4,0.7
				c-0.1,0.2-0.1,0.5-0.2,0.8H328.5z"/>
			<path class="st1" d="M331-2155.1c0.2-0.1,0.5-0.1,0.9-0.2c0.4-0.1,0.9-0.1,1.4-0.1c0.5,0,0.9,0.1,1.2,0.2
				c0.3,0.1,0.6,0.3,0.8,0.6c0.2,0.3,0.3,0.6,0.4,0.9c0.1,0.4,0.1,0.7,0.1,1.2v3.5h-0.8v-3.2c0-0.4,0-0.8-0.1-1.1s-0.2-0.6-0.3-0.7
				c-0.1-0.2-0.3-0.3-0.6-0.4s-0.5-0.1-0.9-0.1c-0.4,0-0.7,0-1,0.1s-0.4,0.1-0.5,0.1v5.4H331V-2155.1z"/>
			<path class="st1" d="M341.7-2154.7c-0.2,0.2-0.4,0.5-0.7,0.9c-0.3,0.4-0.6,0.8-0.9,1.2c-0.3,0.5-0.7,0.9-1,1.4
				c-0.3,0.5-0.6,1-0.9,1.4h3.6v0.7h-4.5v-0.6c0.2-0.4,0.5-0.8,0.8-1.3s0.6-0.9,1-1.4c0.3-0.5,0.7-0.9,1-1.3s0.6-0.7,0.8-1h-3.3
				v-0.7h4.2V-2154.7z"/>
			<path class="st1" d="M344.3-2157.2c0,0.2-0.1,0.3-0.2,0.4c-0.1,0.1-0.2,0.2-0.4,0.2s-0.3-0.1-0.4-0.2c-0.1-0.1-0.2-0.3-0.2-0.4
				c0-0.2,0.1-0.3,0.2-0.4c0.1-0.1,0.2-0.2,0.4-0.2s0.3,0.1,0.4,0.2C344.2-2157.5,344.3-2157.4,344.3-2157.2z M344.1-2149.1h-0.8
				v-6.2h0.8V-2149.1z"/>
			<path class="st1" d="M346.1-2155.1c0.2-0.1,0.5-0.1,0.9-0.2s0.9-0.1,1.4-0.1c0.5,0,0.9,0.1,1.2,0.2c0.3,0.1,0.6,0.3,0.8,0.6
				s0.3,0.6,0.4,0.9c0.1,0.4,0.1,0.7,0.1,1.2v3.5h-0.8v-3.2c0-0.4,0-0.8-0.1-1.1s-0.2-0.6-0.3-0.7c-0.1-0.2-0.3-0.3-0.6-0.4
				c-0.2-0.1-0.5-0.1-0.9-0.1c-0.4,0-0.7,0-1,0.1s-0.4,0.1-0.5,0.1v5.4h-0.8V-2155.1z"/>
		</g>
	</g>
	<g id="Gruppe_83" transform="translate(115.393 73.133)">
		<g id="Pfad_54">
			<path class="st2" d="M331.2-2150.6c0.2,0,0.4-0.2,0.4-0.4v-5.8c0-0.2-0.2-0.4-0.4-0.4H322c-0.2-0.1-0.4,0.1-0.4,0.4v5.8
				c0,0.2,0.2,0.4,0.4,0.4H331.2z M322.4-2156.4h8.4v4.9h-8.4L322.4-2156.4z"/>
		</g>
		<g id="Pfad_55">
			<path class="st2" d="M334.6-2141.4v-13.2h1.9c0.7,0,1.3,0.5,1.3,1.2c0,0,0,0.1,0,0.1v9.8c0,0.2,0.2,0.4,0.4,0.4
				c0.2,0,0.4-0.2,0.4-0.4v-9.9c0-1.2-0.9-2.1-2.1-2.2c0,0-0.1,0-0.1,0h-1.9v-2.9c0.1-0.8-0.5-1.5-1.3-1.6c-0.1,0-0.1,0-0.2,0h-12.7
				c-0.9,0-1.6,0.7-1.6,1.6c0,0,0,0,0,0v26.7h-1.2c-0.9,0-1.6,0.7-1.6,1.6c0,0,0,0,0,0v2.3c0,0.9,0.7,1.6,1.6,1.6c0,0,0,0,0,0h18.4
				c0.9,0,1.6-0.7,1.6-1.6c0,0,0,0,0,0v-2.3c0-0.9-0.7-1.6-1.6-1.6c0,0,0,0,0,0h-1.3v-6.1 M319.5-2158.5c0-0.4,0.4-0.7,0.8-0.8H333
				c0.4,0,0.7,0.4,0.8,0.8v26.7h-14.2V-2158.5z M335.9-2131.1c0.4,0,0.7,0.4,0.8,0.8v2.3c0,0.4-0.4,0.7-0.8,0.8h-18.4
				c-0.4,0-0.7-0.4-0.8-0.8v-2.3c0-0.4,0.4-0.7,0.8-0.8H335.9z M334.6-2138.8L334.6-2138.8z"/>
		</g>
	</g>
</g>
</svg>
