<?xml version="1.0" encoding="utf-8"?>
<!-- Generator: Adobe Illustrator 22.0.1, SVG Export Plug-In . SVG Version: 6.00 Build 0)  -->
<svg version="1.1" id="Ebene_1" xmlns="http://www.w3.org/2000/svg" xmlns:xlink="http://www.w3.org/1999/xlink" x="0px" y="0px"
	 viewBox="0 0 91 71.9" style="enable-background:new 0 0 91 71.9;" xml:space="preserve">
<style type="text/css">
	.st0{fill:#F47211;}
	.st1{enable-background:new    ;}
	.st2{fill:#FFFFFF;}
</style>
<g id="Gruppe_61" transform="translate(-936.517 1465.515)">
	<g id="Gruppe_57" transform="translate(54.517 241.485)">
		<g id="Pfad_43">
			<path class="st0" d="M926.9-1667.3v-23.6c2.5-0.3,4.3-2.5,4-5c-0.2-2.1-1.9-3.8-4-4v-7.1h-1v7.1c-2.5,0.3-4.3,2.5-4,5
				c0.2,2.1,1.9,3.8,4,4v23.6H926.9z M922.9-1695.4c0-1.9,1.6-3.5,3.5-3.5s3.5,1.6,3.5,3.5s-1.6,3.5-3.5,3.5l0,0
				C924.4-1691.9,922.9-1693.5,922.9-1695.4L922.9-1695.4z"/>
		</g>
		<g id="Pfad_44">
			<path class="st0" d="M940.7-1667.3v-7.1c2.5-0.3,4.3-2.5,4-5c-0.2-2.1-1.9-3.8-4-4v-23.6h-1v23.6c-2.5,0.3-4.3,2.5-4,5
				c0.2,2.1,1.9,3.8,4,4v7.1H940.7z M936.7-1678.8c0-1.9,1.6-3.5,3.5-3.5s3.5,1.6,3.5,3.5s-1.6,3.5-3.5,3.5l0,0
				C938.3-1675.3,936.7-1676.9,936.7-1678.8L936.7-1678.8z"/>
		</g>
		<g id="Pfad_45">
			<path class="st0" d="M913.1-1667.3v-7.1c2.5-0.3,4.3-2.5,4-5c-0.2-2.1-1.9-3.8-4-4v-23.6h-1v23.6c-2.5,0.3-4.3,2.5-4,5
				c0.2,2.1,1.9,3.8,4,4v7.1H913.1z M909-1678.8c0-1.9,1.6-3.5,3.5-3.5s3.5,1.6,3.5,3.5s-1.6,3.5-3.5,3.5l0,0
				C910.6-1675.3,909-1676.9,909-1678.8L909-1678.8z"/>
		</g>
	</g>
	<g class="st1">
		<path class="st2" d="M937.9-1396.9v-10.4h6v0.9h-5v3.6h4.4v0.9h-4.4v4.1h5.4v0.9H937.9z"/>
		<path class="st2" d="M947.3-1407c0,0.2-0.1,0.4-0.2,0.5c-0.1,0.1-0.3,0.2-0.5,0.2s-0.4-0.1-0.5-0.2s-0.2-0.3-0.2-0.5
			s0.1-0.4,0.2-0.5s0.3-0.2,0.5-0.2s0.4,0.1,0.5,0.2S947.3-1407.2,947.3-1407z M947.1-1396.9h-1v-7.8h1V-1396.9z"/>
		<path class="st2" d="M949.7-1404.4c0.3-0.1,0.7-0.2,1.2-0.3c0.5-0.1,1.1-0.2,1.8-0.2c0.6,0,1.1,0.1,1.5,0.3
			c0.4,0.2,0.7,0.4,0.9,0.7c0.2,0.3,0.4,0.7,0.5,1.1s0.1,0.9,0.1,1.5v4.3h-1v-4c0-0.6,0-1-0.1-1.4s-0.2-0.7-0.4-0.9
			c-0.2-0.2-0.4-0.4-0.7-0.5s-0.6-0.2-1.1-0.2s-0.9,0-1.2,0.1s-0.6,0.1-0.7,0.1v6.8h-1v-7.4H949.7z"/>
		<path class="st2" d="M959.8-1397.6c0.6,0,1-0.1,1.4-0.3c0.4-0.2,0.5-0.5,0.5-0.9c0-0.2,0-0.4-0.1-0.5s-0.2-0.3-0.3-0.4
			s-0.3-0.2-0.6-0.3c-0.2-0.1-0.5-0.2-0.9-0.4c-0.3-0.1-0.6-0.2-0.8-0.4c-0.3-0.1-0.5-0.3-0.7-0.4s-0.4-0.4-0.5-0.6
			s-0.2-0.5-0.2-0.8c0-0.6,0.2-1.1,0.7-1.5s1.1-0.6,2-0.6c0.5,0,1,0,1.3,0.1s0.6,0.2,0.7,0.2l-0.2,0.9c-0.1-0.1-0.3-0.1-0.6-0.2
			s-0.7-0.2-1.3-0.2c-0.2,0-0.4,0-0.6,0.1c-0.2,0-0.4,0.1-0.5,0.2s-0.3,0.2-0.4,0.4c-0.1,0.1-0.1,0.3-0.1,0.5s0,0.4,0.1,0.5
			s0.2,0.3,0.4,0.4s0.3,0.2,0.6,0.3c0.2,0.1,0.5,0.2,0.8,0.3c0.3,0.1,0.6,0.2,0.9,0.4c0.3,0.1,0.5,0.3,0.7,0.4
			c0.2,0.2,0.4,0.4,0.5,0.6s0.2,0.6,0.2,0.9c0,0.7-0.3,1.2-0.8,1.6s-1.2,0.5-2.2,0.5c-0.7,0-1.2-0.1-1.6-0.2
			c-0.4-0.1-0.6-0.2-0.7-0.3l0.3-0.9c0,0,0.1,0.1,0.2,0.1c0.1,0,0.2,0.1,0.4,0.2s0.4,0.1,0.6,0.1S959.5-1397.6,959.8-1397.6z"/>
		<path class="st2" d="M965.6-1404.6h3.1v0.8h-3.1v4.1c0,0.4,0,0.8,0.1,1.1c0.1,0.3,0.2,0.5,0.3,0.6s0.3,0.2,0.5,0.3
			s0.4,0.1,0.7,0.1c0.4,0,0.7,0,1-0.1s0.4-0.2,0.6-0.3l0.2,0.8c-0.1,0.1-0.4,0.2-0.7,0.3c-0.4,0.1-0.7,0.2-1.1,0.2
			c-0.5,0-0.9-0.1-1.2-0.2s-0.6-0.3-0.8-0.6c-0.2-0.3-0.3-0.6-0.4-1c-0.1-0.4-0.1-0.8-0.1-1.3v-7.1l1-0.2L965.6-1404.6L965.6-1404.6
			z"/>
		<path class="st2" d="M970-1400.8c0-0.7,0.1-1.3,0.3-1.8s0.4-0.9,0.8-1.3s0.7-0.6,1.1-0.8c0.4-0.2,0.8-0.2,1.3-0.2
			c1,0,1.7,0.3,2.3,0.9s0.8,1.6,0.8,2.9c0,0.1,0,0.2,0,0.2c0,0.1,0,0.2,0,0.2H971c0,1,0.3,1.7,0.7,2.2s1.1,0.8,2.1,0.8
			c0.5,0,0.9,0,1.3-0.2c0.3-0.1,0.5-0.2,0.7-0.3l0.2,0.8c-0.1,0.1-0.4,0.2-0.8,0.3c-0.4,0.1-0.8,0.2-1.4,0.2c-0.7,0-1.3-0.1-1.7-0.3
			c-0.5-0.2-0.9-0.5-1.2-0.8c-0.3-0.4-0.5-0.8-0.7-1.3C970.1-1399.6,970-1400.2,970-1400.8z M975.5-1401.4c0-0.8-0.2-1.4-0.6-1.9
			c-0.4-0.5-0.9-0.7-1.5-0.7c-0.4,0-0.7,0.1-0.9,0.2c-0.3,0.1-0.5,0.3-0.7,0.6c-0.2,0.2-0.4,0.5-0.5,0.8s-0.2,0.6-0.2,1H975.5z"/>
		<path class="st2" d="M980.6-1396.7c-0.3,0-0.6-0.1-0.9-0.1c-0.2-0.1-0.5-0.2-0.6-0.3c-0.2-0.2-0.3-0.4-0.4-0.6s-0.1-0.6-0.1-0.9
			v-9.6l1-0.2v9.8c0,0.2,0,0.4,0.1,0.6c0,0.1,0.1,0.3,0.2,0.3s0.2,0.1,0.4,0.2s0.3,0.1,0.5,0.1L980.6-1396.7z"/>
		<path class="st2" d="M984.5-1396.7c-0.3,0-0.6-0.1-0.9-0.1c-0.2-0.1-0.4-0.2-0.6-0.3c-0.2-0.2-0.3-0.4-0.4-0.6
			c-0.1-0.2-0.1-0.6-0.1-0.9v-9.6l1-0.2v9.8c0,0.2,0,0.4,0.1,0.6c0,0.1,0.1,0.3,0.2,0.3s0.2,0.1,0.4,0.2s0.3,0.1,0.5,0.1
			L984.5-1396.7z"/>
		<path class="st2" d="M992.3-1397.1c-0.3,0.1-0.7,0.2-1.2,0.3s-1.1,0.2-1.8,0.2c-0.6,0-1.1-0.1-1.5-0.3c-0.4-0.2-0.7-0.4-0.9-0.7
			c-0.2-0.3-0.4-0.7-0.5-1.1s-0.2-0.9-0.2-1.5v-4.3h1v4c0,0.5,0,1,0.1,1.4s0.2,0.7,0.4,0.9c0.2,0.2,0.4,0.4,0.7,0.5s0.6,0.2,1,0.2
			c0.5,0,0.9,0,1.2-0.1s0.6-0.1,0.6-0.1v-6.8h1v7.4H992.3z"/>
		<path class="st2" d="M994.9-1404.4c0.3-0.1,0.7-0.2,1.2-0.3s1.1-0.2,1.8-0.2c0.6,0,1.1,0.1,1.5,0.3c0.4,0.2,0.7,0.4,0.9,0.7
			c0.2,0.3,0.4,0.7,0.5,1.1s0.2,0.9,0.2,1.5v4.3h-1v-4c0-0.6,0-1-0.1-1.4s-0.2-0.7-0.4-0.9c-0.2-0.2-0.4-0.4-0.7-0.5
			s-0.6-0.2-1.1-0.2s-0.9,0-1.2,0.1s-0.6,0.1-0.7,0.1v6.8h-1L994.9-1404.4L994.9-1404.4z"/>
		<path class="st2" d="M1008.4-1397.8c-0.1,0.1-0.2,0.1-0.3,0.2s-0.3,0.1-0.4,0.2c-0.2,0.1-0.4,0.1-0.6,0.2s-0.5,0.1-0.8,0.1
			c-0.4,0-0.9-0.1-1.3-0.2c-0.4-0.1-0.8-0.4-1.1-0.7s-0.6-0.7-0.8-1.2s-0.3-1.1-0.3-1.7c0-0.5,0.1-1.1,0.3-1.5
			c0.2-0.5,0.4-0.9,0.7-1.2c0.3-0.3,0.7-0.6,1.2-0.8c0.5-0.2,1-0.3,1.5-0.3c0.7,0,1.3,0,1.7,0.1s0.8,0.2,1.1,0.3v7.1
			c0,1.2-0.3,2-0.9,2.5c-0.6,0.5-1.5,0.7-2.7,0.7c-0.5,0-1,0-1.4-0.1s-0.8-0.2-1-0.3l0.2-0.9c0.2,0.1,0.6,0.2,1,0.3s0.8,0.1,1.3,0.1
			c0.9,0,1.6-0.2,2-0.5c0.4-0.4,0.6-1,0.6-1.8V-1397.8z M1008.4-1403.7c-0.2-0.1-0.4-0.1-0.7-0.1s-0.7-0.1-1.2-0.1
			c-0.4,0-0.8,0.1-1.1,0.2s-0.6,0.4-0.8,0.6s-0.4,0.6-0.5,0.9c-0.1,0.4-0.2,0.8-0.2,1.2c0,0.5,0.1,0.9,0.2,1.3s0.3,0.7,0.5,0.9
			c0.2,0.2,0.5,0.4,0.8,0.5s0.6,0.2,0.9,0.2c0.4,0,0.8-0.1,1.2-0.2s0.6-0.3,0.8-0.5L1008.4-1403.7L1008.4-1403.7z"/>
		<path class="st2" d="M1011.5-1400.8c0-0.7,0.1-1.3,0.3-1.8s0.4-0.9,0.8-1.3s0.7-0.6,1.1-0.8s0.8-0.2,1.3-0.2
			c0.9,0,1.7,0.3,2.3,0.9s0.8,1.6,0.8,2.9c0,0.1,0,0.2,0,0.2c0,0.1,0,0.2,0,0.2h-5.4c0,1,0.3,1.7,0.7,2.2s1.1,0.8,2.1,0.8
			c0.5,0,1,0,1.3-0.2c0.3-0.1,0.5-0.2,0.7-0.3l0.2,0.8c-0.1,0.1-0.4,0.2-0.8,0.3s-0.8,0.2-1.4,0.2c-0.7,0-1.3-0.1-1.7-0.3
			c-0.5-0.2-0.9-0.5-1.2-0.8c-0.3-0.4-0.5-0.8-0.7-1.3C1011.6-1399.6,1011.5-1400.2,1011.5-1400.8z M1017-1401.4
			c0-0.8-0.2-1.4-0.6-1.9c-0.4-0.5-0.9-0.7-1.5-0.7c-0.4,0-0.7,0.1-0.9,0.2c-0.3,0.1-0.5,0.3-0.7,0.6c-0.2,0.2-0.4,0.5-0.5,0.8
			s-0.2,0.6-0.2,1H1017z"/>
		<path class="st2" d="M1020.2-1404.4c0.3-0.1,0.7-0.2,1.2-0.3s1.1-0.2,1.8-0.2c0.6,0,1.1,0.1,1.5,0.3c0.4,0.2,0.7,0.4,0.9,0.7
			c0.2,0.3,0.4,0.7,0.5,1.1s0.2,0.9,0.2,1.5v4.3h-1v-4c0-0.6,0-1-0.1-1.4s-0.2-0.7-0.4-0.9c-0.2-0.2-0.4-0.4-0.7-0.5
			c-0.3-0.1-0.6-0.2-1.1-0.2s-0.9,0-1.2,0.1s-0.6,0.1-0.7,0.1v6.8h-1v-7.4H1020.2z"/>
	</g>
</g>
</svg>
