<?xml version="1.0" encoding="utf-8"?>
<!-- Generator: Adobe Illustrator 22.0.1, SVG Export Plug-In . SVG Version: 6.00 Build 0)  -->
<svg version="1.1" id="Ebene_1" xmlns="http://www.w3.org/2000/svg" xmlns:xlink="http://www.w3.org/1999/xlink" x="0px" y="0px"
	 viewBox="0 0 77 63.4" style="enable-background:new 0 0 77 63.4;" xml:space="preserve">
<style type="text/css">
	.st0{enable-background:new    ;}
	.st1{fill:#FFFFFF;}
	.st2{fill:#F47211;}
</style>
<g id="Gruppe_99" transform="translate(-299 2098.98)">
	<g id="Gruppe_59" transform="translate(83 106.892)">
		<g class="st0">
			<path class="st1" d="M217.1-2145.5v-8.3h4.8v0.7h-4v2.9h3.6v0.7h-3.6v3.3h4.3v0.7H217.1z"/>
			<path class="st1" d="M225.3-2145.4c-0.3,0-0.5,0-0.7-0.1c-0.2-0.1-0.4-0.2-0.5-0.3c-0.1-0.1-0.2-0.3-0.3-0.5
				c-0.1-0.2-0.1-0.4-0.1-0.7v-7.7l0.8-0.1v7.8c0,0.2,0,0.3,0.1,0.5s0.1,0.2,0.2,0.3c0.1,0.1,0.2,0.1,0.3,0.2c0.1,0,0.3,0.1,0.4,0.1
				L225.3-2145.4z"/>
			<path class="st1" d="M226.4-2148.6c0-0.5,0.1-1,0.2-1.4c0.2-0.4,0.4-0.7,0.6-1c0.3-0.3,0.5-0.5,0.9-0.6c0.3-0.1,0.7-0.2,1-0.2
				c0.8,0,1.4,0.2,1.8,0.7s0.7,1.3,0.7,2.3c0,0.1,0,0.1,0,0.2c0,0.1,0,0.1,0,0.2h-4.4c0,0.8,0.2,1.3,0.6,1.8
				c0.4,0.4,0.9,0.6,1.7,0.6c0.4,0,0.8,0,1-0.1c0.2-0.1,0.4-0.1,0.5-0.2l0.1,0.7c-0.1,0.1-0.3,0.1-0.6,0.2s-0.7,0.1-1.1,0.1
				c-0.5,0-1-0.1-1.4-0.2c-0.4-0.2-0.7-0.4-0.9-0.7c-0.2-0.3-0.4-0.6-0.5-1C226.4-2147.7,226.4-2148.1,226.4-2148.6z M230.8-2149.1
				c0-0.6-0.2-1.2-0.5-1.5c-0.3-0.4-0.7-0.5-1.2-0.5c-0.3,0-0.5,0.1-0.8,0.2c-0.2,0.1-0.4,0.3-0.6,0.5c-0.2,0.2-0.3,0.4-0.4,0.7
				c-0.1,0.2-0.1,0.5-0.2,0.8H230.8z"/>
			<path class="st1" d="M234.9-2148.9c0.3,0.2,0.6,0.4,0.9,0.7c0.3,0.3,0.6,0.5,0.9,0.8c0.3,0.3,0.5,0.6,0.8,0.9s0.5,0.6,0.6,0.9
				h-0.9c-0.2-0.3-0.4-0.6-0.7-0.9c-0.2-0.3-0.5-0.6-0.8-0.9c-0.3-0.3-0.5-0.5-0.8-0.7c-0.3-0.2-0.5-0.4-0.7-0.5v3h-0.8v-9.2
				l0.8-0.1v5.8c0.2-0.1,0.4-0.3,0.6-0.6c0.2-0.2,0.5-0.5,0.8-0.7c0.3-0.2,0.5-0.5,0.7-0.7c0.2-0.2,0.4-0.4,0.6-0.6h1
				c-0.2,0.2-0.4,0.4-0.6,0.6s-0.5,0.5-0.7,0.7c-0.3,0.3-0.5,0.5-0.8,0.8C235.4-2149.3,235.1-2149.1,234.9-2148.9z"/>
			<path class="st1" d="M240-2151.7h2.5v0.7H240v3.3c0,0.4,0,0.6,0.1,0.9s0.1,0.4,0.3,0.5c0.1,0.1,0.2,0.2,0.4,0.2s0.3,0.1,0.5,0.1
				c0.3,0,0.6,0,0.8-0.1c0.2-0.1,0.4-0.1,0.5-0.2l0.2,0.6c-0.1,0.1-0.3,0.2-0.6,0.2c-0.3,0.1-0.6,0.1-0.9,0.1c-0.4,0-0.7,0-1-0.1
				c-0.3-0.1-0.5-0.3-0.6-0.5c-0.2-0.2-0.3-0.5-0.3-0.8c-0.1-0.3-0.1-0.7-0.1-1.1v-5.7l0.8-0.1V-2151.7z"/>
			<path class="st1" d="M246-2151.8c0.3,0,0.5,0,0.7,0.1s0.4,0.1,0.5,0.1l-0.2,0.7c-0.1,0-0.2-0.1-0.4-0.1c-0.2,0-0.5-0.1-0.8-0.1
				c-0.3,0-0.6,0-0.8,0.1s-0.3,0.1-0.4,0.1v5.4h-0.8v-5.9c0.2-0.1,0.5-0.2,0.8-0.3C245.1-2151.8,245.5-2151.8,246-2151.8z"/>
			<path class="st1" d="M249-2146c0,0.2-0.1,0.3-0.2,0.5c-0.1,0.1-0.3,0.2-0.5,0.2s-0.4-0.1-0.5-0.2c-0.1-0.1-0.2-0.3-0.2-0.5
				c0-0.2,0.1-0.3,0.2-0.5c0.1-0.1,0.3-0.2,0.5-0.2s0.4,0.1,0.5,0.2C248.9-2146.3,249-2146.2,249-2146z"/>
			<path class="st1" d="M258.3-2146.2v0.7h-4.7v-8.3h0.8v7.6H258.3z"/>
			<path class="st1" d="M261.5-2151.8c0.4,0,0.8,0.1,1,0.2c0.3,0.1,0.5,0.3,0.7,0.5s0.3,0.4,0.4,0.7s0.1,0.6,0.1,0.9v3.9
				c-0.1,0-0.2,0-0.3,0.1c-0.2,0-0.3,0.1-0.5,0.1c-0.2,0-0.4,0.1-0.7,0.1c-0.2,0-0.5,0-0.8,0c-0.3,0-0.6,0-0.9-0.1
				c-0.3-0.1-0.5-0.2-0.7-0.3c-0.2-0.2-0.4-0.4-0.5-0.6c-0.1-0.2-0.2-0.5-0.2-0.9c0-0.3,0.1-0.6,0.2-0.9s0.3-0.4,0.5-0.6
				c0.2-0.2,0.5-0.3,0.8-0.3c0.3-0.1,0.7-0.1,1-0.1c0.1,0,0.2,0,0.4,0c0.1,0,0.2,0,0.4,0c0.1,0,0.2,0,0.3,0.1c0.1,0,0.1,0,0.2,0.1
				v-0.4c0-0.2,0-0.4,0-0.6c0-0.2-0.1-0.4-0.2-0.6c-0.1-0.2-0.3-0.3-0.5-0.4c-0.2-0.1-0.5-0.2-0.8-0.2c-0.5,0-0.8,0-1,0.1
				c-0.2,0.1-0.4,0.1-0.5,0.2l-0.1-0.7c0.1-0.1,0.3-0.1,0.6-0.2C260.7-2151.8,261.1-2151.8,261.5-2151.8z M261.5-2146.1
				c0.3,0,0.6,0,0.8,0c0.2,0,0.4,0,0.6-0.1v-2.2c-0.1,0-0.2-0.1-0.4-0.1c-0.2,0-0.5-0.1-0.8-0.1c-0.2,0-0.4,0-0.6,0
				c-0.2,0-0.4,0.1-0.6,0.2s-0.3,0.2-0.4,0.4c-0.1,0.2-0.2,0.4-0.2,0.6c0,0.2,0,0.4,0.1,0.6s0.2,0.3,0.3,0.4s0.3,0.2,0.5,0.2
				C261.1-2146.1,261.3-2146.1,261.5-2146.1z"/>
			<path class="st1" d="M270.6-2145.7c-0.2,0.1-0.5,0.2-0.9,0.2s-0.8,0.1-1.4,0.1c-0.5,0-0.9-0.1-1.2-0.2c-0.4-0.1-0.7-0.4-1-0.6
				s-0.5-0.6-0.6-1c-0.1-0.4-0.2-0.9-0.2-1.4c0-0.5,0.1-0.9,0.2-1.3c0.1-0.4,0.3-0.7,0.5-1s0.5-0.5,0.9-0.7c0.3-0.2,0.7-0.2,1.2-0.2
				c0.4,0,0.8,0.1,1.1,0.2c0.3,0.1,0.5,0.2,0.7,0.3v-3.3l0.8-0.1V-2145.7z M269.8-2150.6c-0.1-0.1-0.2-0.1-0.3-0.2s-0.2-0.1-0.4-0.2
				c-0.1-0.1-0.3-0.1-0.5-0.1s-0.3-0.1-0.5-0.1c-0.4,0-0.7,0.1-1,0.2c-0.3,0.1-0.5,0.3-0.6,0.5c-0.2,0.2-0.3,0.5-0.3,0.8
				c-0.1,0.3-0.1,0.6-0.1,1c0,0.8,0.2,1.4,0.6,1.9c0.4,0.4,0.9,0.7,1.6,0.7c0.4,0,0.7,0,0.9-0.1c0.2,0,0.4-0.1,0.5-0.1V-2150.6z"/>
			<path class="st1" d="M277.5-2145.7c-0.2,0.1-0.5,0.1-0.9,0.2c-0.4,0.1-0.9,0.1-1.4,0.1c-0.5,0-0.9-0.1-1.2-0.2s-0.6-0.3-0.8-0.6
				s-0.3-0.5-0.4-0.9c-0.1-0.4-0.1-0.7-0.1-1.2v-3.5h0.8v3.2c0,0.4,0,0.8,0.1,1.1c0.1,0.3,0.2,0.6,0.3,0.7c0.1,0.2,0.3,0.3,0.6,0.4
				s0.5,0.1,0.8,0.1c0.4,0,0.7,0,1-0.1c0.3,0,0.4-0.1,0.5-0.1v-5.4h0.8V-2145.7z"/>
			<path class="st1" d="M279.5-2151.5c0.2-0.1,0.5-0.1,0.9-0.2c0.4-0.1,0.9-0.1,1.4-0.1c0.5,0,0.9,0.1,1.2,0.2
				c0.3,0.1,0.6,0.3,0.8,0.6c0.2,0.3,0.3,0.6,0.4,0.9c0.1,0.4,0.1,0.7,0.1,1.2v3.5h-0.8v-3.2c0-0.4,0-0.8-0.1-1.1
				c-0.1-0.3-0.2-0.6-0.3-0.7c-0.1-0.2-0.3-0.3-0.6-0.4s-0.5-0.1-0.9-0.1c-0.4,0-0.7,0-1,0.1c-0.3,0-0.4,0.1-0.5,0.1v5.4h-0.8
				V-2151.5z"/>
			<path class="st1" d="M290.4-2146.2c0,0-0.1,0.1-0.2,0.1c-0.1,0.1-0.2,0.1-0.4,0.2s-0.3,0.1-0.5,0.1c-0.2,0-0.4,0.1-0.6,0.1
				c-0.4,0-0.7-0.1-1-0.2c-0.3-0.1-0.6-0.3-0.9-0.5s-0.5-0.5-0.6-0.9c-0.2-0.4-0.2-0.8-0.2-1.4c0-0.4,0.1-0.8,0.2-1.2
				c0.1-0.4,0.3-0.7,0.6-1c0.3-0.3,0.6-0.5,0.9-0.6s0.8-0.2,1.2-0.2c0.6,0,1,0,1.4,0.1s0.6,0.2,0.9,0.2v5.7c0,0.9-0.2,1.6-0.7,2
				c-0.5,0.4-1.2,0.6-2.2,0.6c-0.4,0-0.8,0-1.1-0.1c-0.3-0.1-0.6-0.1-0.8-0.2l0.2-0.7c0.2,0.1,0.5,0.2,0.8,0.2
				c0.3,0.1,0.7,0.1,1,0.1c0.7,0,1.3-0.1,1.6-0.4c0.3-0.3,0.5-0.8,0.5-1.5V-2146.2z M290.4-2150.9c-0.1,0-0.3-0.1-0.5-0.1
				c-0.2,0-0.5-0.1-0.9-0.1c-0.3,0-0.6,0.1-0.9,0.2c-0.3,0.1-0.5,0.3-0.7,0.5s-0.3,0.5-0.4,0.8c-0.1,0.3-0.1,0.6-0.1,1
				c0,0.4,0.1,0.8,0.2,1c0.1,0.3,0.3,0.5,0.4,0.7s0.4,0.3,0.6,0.4c0.2,0.1,0.5,0.1,0.7,0.1c0.4,0,0.7-0.1,1-0.2
				c0.3-0.1,0.5-0.2,0.7-0.4V-2150.9z"/>
		</g>
	</g>
	<g id="Power" transform="translate(108 58.512)">
		<g id="Gruppe_84" transform="translate(0 0)">
			<g id="Pfad_56">
				<path class="st2" d="M230.2-2133.6c0.1-0.1,0-0.3-0.1-0.4c-0.1-0.1-0.2-0.2-0.4-0.2l-12.2,0.2l15.8-20.1l-5.4,14
					c-0.1,0.1,0,0.3,0.1,0.4c0.1,0.1,0.2,0.2,0.4,0.2l12.2-0.2l-15.8,20.1L230.2-2133.6z M222.9-2116.4c0.2,0.1,0.5,0.1,0.6-0.1
					l18.4-23.4c0.1-0.1,0.1-0.3,0.1-0.5c-0.1-0.2-0.3-0.3-0.4-0.3l-12.5,0.2l6.4-16.3c0.1-0.2,0-0.5-0.2-0.6
					c-0.2-0.1-0.5-0.1-0.6,0.1l-18.4,23.4c-0.1,0.1-0.1,0.3-0.1,0.5c0.1,0.2,0.3,0.3,0.4,0.3l12.5-0.2l-6.4,16.3
					C222.6-2116.8,222.7-2116.5,222.9-2116.4"/>
			</g>
		</g>
	</g>
</g>
</svg>
