<?xml version="1.0" encoding="utf-8"?>
<!-- Generator: Adobe Illustrator 22.0.1, SVG Export Plug-In . SVG Version: 6.00 Build 0)  -->
<svg version="1.1" id="Ebene_1" xmlns="http://www.w3.org/2000/svg" xmlns:xlink="http://www.w3.org/1999/xlink" x="0px" y="0px"
	 viewBox="0 0 117 73.4" style="enable-background:new 0 0 117 73.4;" xml:space="preserve">
<style type="text/css">
	.st0{enable-background:new    ;}
	.st1{fill:#FFFFFF;}
	.st2{fill:#F47211;}
</style>
<g id="Gruppe_82" transform="translate(-993 1021)">
	<g id="Gruppe_59" transform="translate(-2 38)">
		<g class="st0">
			<path class="st1" d="M996.4-986v-10.4h5.9v0.9h-4.9v3.7h4.4v0.9h-4.4v5h-1V-986z"/>
			<path class="st1" d="M1005.8-993.9c0.5,0,0.9,0.1,1.3,0.2c0.4,0.1,0.6,0.3,0.9,0.6c0.2,0.3,0.4,0.6,0.5,0.9
				c0.1,0.4,0.1,0.7,0.1,1.1v4.9c-0.1,0-0.2,0.1-0.4,0.1s-0.4,0.1-0.7,0.1s-0.5,0.1-0.8,0.1s-0.6,0-0.9,0c-0.4,0-0.8,0-1.1-0.1
				s-0.6-0.2-0.9-0.4s-0.5-0.4-0.6-0.8s-0.2-0.7-0.2-1.1c0-0.4,0.1-0.8,0.2-1.1c0.2-0.3,0.4-0.5,0.7-0.7s0.6-0.3,1-0.4
				c0.4-0.1,0.8-0.1,1.3-0.1c0.1,0,0.3,0,0.4,0c0.2,0,0.3,0,0.5,0.1c0.1,0,0.3,0,0.4,0.1c0.1,0,0.2,0,0.2,0.1v-0.5
				c0-0.3,0-0.5-0.1-0.8s-0.1-0.5-0.3-0.7c-0.1-0.2-0.3-0.4-0.6-0.5c-0.2-0.1-0.6-0.2-1-0.2c-0.6,0-1,0-1.3,0.1s-0.5,0.1-0.6,0.2
				l-0.1-0.9c0.2-0.1,0.4-0.2,0.8-0.2C1004.9-993.9,1005.3-993.9,1005.8-993.9z M1005.9-986.7c0.4,0,0.7,0,1,0s0.5-0.1,0.7-0.1v-2.7
				c-0.1,0-0.3-0.1-0.5-0.2c-0.2-0.1-0.6-0.1-1-0.1c-0.2,0-0.5,0-0.8,0.1c-0.3,0-0.5,0.1-0.7,0.2c-0.2,0.1-0.4,0.3-0.5,0.5
				s-0.2,0.5-0.2,0.8s0,0.5,0.1,0.7s0.2,0.4,0.4,0.5s0.4,0.2,0.6,0.3C1005.3-986.7,1005.6-986.7,1005.9-986.7z"/>
			<path class="st1" d="M1011.1-986v-11.5l1-0.2v4.1c0.3-0.1,0.6-0.2,1-0.3c0.3-0.1,0.7-0.1,1-0.1c0.6,0,1.1,0.1,1.5,0.3
				s0.7,0.4,1,0.7c0.2,0.3,0.4,0.7,0.5,1.1c0.1,0.4,0.1,0.9,0.1,1.5v4.3h-1v-4c0-0.6,0-1-0.1-1.4s-0.2-0.7-0.4-0.9s-0.4-0.4-0.7-0.5
				s-0.7-0.2-1.1-0.2c-0.2,0-0.4,0-0.5,0c-0.2,0-0.4,0.1-0.5,0.1c-0.2,0-0.3,0.1-0.5,0.1c-0.1,0-0.2,0.1-0.3,0.1v6.7h-1V-986z"/>
			<path class="st1" d="M1022.3-993.9c0.3,0,0.6,0,0.9,0.1c0.3,0,0.5,0.1,0.6,0.2l-0.2,0.8c-0.1,0-0.2-0.1-0.5-0.1
				c-0.2,0-0.6-0.1-1-0.1s-0.8,0-1,0.1c-0.3,0.1-0.4,0.1-0.5,0.2v6.8h-1v-7.4c0.2-0.1,0.6-0.2,1-0.3
				C1021.1-993.8,1021.7-993.9,1022.3-993.9z"/>
			<path class="st1" d="M1026.2-993.7h3.1v0.8h-3.1v4.1c0,0.4,0,0.8,0.1,1.1s0.2,0.5,0.3,0.6c0.1,0.1,0.3,0.2,0.5,0.3
				s0.4,0.1,0.7,0.1c0.4,0,0.7,0,1-0.1s0.4-0.2,0.6-0.3l0.2,0.8c-0.1,0.1-0.4,0.2-0.7,0.3c-0.4,0.1-0.7,0.2-1.1,0.2
				c-0.5,0-0.9-0.1-1.2-0.2c-0.3-0.1-0.6-0.3-0.8-0.6c-0.2-0.3-0.3-0.6-0.4-1s-0.1-0.8-0.1-1.3v-7.1l1-0.2L1026.2-993.7
				L1026.2-993.7z"/>
			<path class="st1" d="M1036.8-987c0.2-0.4,0.4-0.9,0.6-1.5s0.4-1.1,0.6-1.7c0.2-0.6,0.4-1.2,0.6-1.8s0.3-1.2,0.4-1.7h1
				c-0.2,0.7-0.4,1.4-0.6,2.1c-0.2,0.7-0.5,1.4-0.7,2s-0.5,1.3-0.8,1.9c-0.3,0.6-0.5,1.2-0.8,1.7h-0.9c-0.3-0.5-0.5-1.1-0.8-1.7
				c-0.3-0.6-0.5-1.2-0.8-1.9s-0.5-1.3-0.7-2s-0.4-1.4-0.6-2.1h1c0.1,0.5,0.3,1.1,0.4,1.7c0.2,0.6,0.4,1.2,0.6,1.8s0.4,1.2,0.6,1.7
				S1036.6-987.5,1036.8-987z"/>
			<path class="st1" d="M1048.3-989.8c0,0.6-0.1,1.2-0.3,1.7c-0.2,0.5-0.4,0.9-0.7,1.3c-0.3,0.3-0.7,0.6-1.1,0.8s-0.9,0.3-1.4,0.3
				s-1-0.1-1.4-0.3s-0.8-0.5-1.1-0.8c-0.3-0.4-0.6-0.8-0.7-1.3s-0.3-1.1-0.3-1.7c0-0.6,0.1-1.2,0.3-1.7s0.4-0.9,0.7-1.3
				c0.3-0.4,0.7-0.6,1.1-0.8s0.9-0.3,1.4-0.3s1,0.1,1.4,0.3s0.8,0.5,1.1,0.8c0.3,0.4,0.6,0.8,0.7,1.3
				C1048.2-991,1048.3-990.5,1048.3-989.8z M1047.3-989.8c0-1-0.2-1.7-0.7-2.3c-0.4-0.6-1.1-0.9-1.8-0.9c-0.8,0-1.4,0.3-1.8,0.9
				c-0.5,0.6-0.7,1.3-0.7,2.3s0.2,1.7,0.7,2.3c0.4,0.6,1.1,0.9,1.8,0.9c0.8,0,1.4-0.3,1.8-0.9C1047-988.1,1047.3-988.9,1047.3-989.8
				z"/>
			<path class="st1" d="M1053.1-993.9c0.3,0,0.6,0,0.9,0.1s0.5,0.1,0.6,0.2l-0.2,0.8c-0.1,0-0.2-0.1-0.5-0.1c-0.2,0-0.6-0.1-1-0.1
				s-0.8,0-1,0.1c-0.3,0.1-0.4,0.1-0.5,0.2v6.8h-1v-7.4c0.2-0.1,0.6-0.2,1-0.3C1051.9-993.8,1052.4-993.9,1053.1-993.9z"/>
			<path class="st1" d="M1057-993.3c0.2-0.1,0.4-0.3,0.8-0.4c0.4-0.1,0.8-0.2,1.3-0.2c0.6,0,1.1,0.1,1.5,0.3s0.8,0.5,1.1,0.8
				c0.3,0.4,0.5,0.8,0.7,1.3s0.2,1,0.2,1.6s-0.1,1.2-0.3,1.7c-0.2,0.5-0.4,0.9-0.8,1.3c-0.3,0.4-0.7,0.6-1.2,0.8s-1,0.3-1.6,0.3
				c-0.7,0-1.3,0-1.7-0.1s-0.8-0.2-1.1-0.3v-11.2l1-0.2L1057-993.3L1057-993.3z M1057-986.9c0.1,0,0.4,0.1,0.7,0.1s0.7,0.1,1.2,0.1
				c0.8,0,1.5-0.3,2-0.8s0.8-1.3,0.8-2.3c0-0.4,0-0.8-0.1-1.2s-0.2-0.7-0.4-1s-0.5-0.5-0.8-0.7s-0.7-0.3-1.2-0.3
				c-0.2,0-0.5,0-0.7,0.1c-0.2,0-0.4,0.1-0.6,0.2s-0.3,0.1-0.5,0.2s-0.2,0.2-0.3,0.2L1057-986.9L1057-986.9z"/>
			<path class="st1" d="M1064.3-989.9c0-0.7,0.1-1.3,0.3-1.8c0.2-0.5,0.5-0.9,0.8-1.3s0.7-0.6,1.1-0.8s0.8-0.2,1.3-0.2
				c1,0,1.7,0.3,2.3,0.9c0.6,0.6,0.8,1.6,0.8,2.9c0,0.1,0,0.2,0,0.2c0,0.1,0,0.2,0,0.2h-5.4c0,1,0.3,1.7,0.7,2.2
				c0.4,0.5,1.1,0.8,2.1,0.8c0.5,0,0.9,0,1.3-0.2c0.3-0.1,0.5-0.2,0.7-0.3l0.2,0.8c-0.1,0.1-0.4,0.2-0.8,0.3s-0.8,0.2-1.4,0.2
				c-0.7,0-1.3-0.1-1.7-0.3c-0.5-0.2-0.9-0.5-1.2-0.8c-0.3-0.4-0.5-0.8-0.7-1.3C1064.4-988.7,1064.3-989.3,1064.3-989.9z
				 M1069.8-990.5c0-0.8-0.2-1.4-0.6-1.9s-0.9-0.7-1.5-0.7c-0.3,0-0.7,0.1-0.9,0.2c-0.3,0.1-0.5,0.3-0.7,0.6
				c-0.2,0.2-0.4,0.5-0.5,0.8s-0.2,0.6-0.2,1L1069.8-990.5L1069.8-990.5z"/>
			<path class="st1" d="M1075.6-993.9c0.3,0,0.6,0,0.9,0.1c0.3,0,0.5,0.1,0.6,0.2l-0.2,0.8c-0.1,0-0.2-0.1-0.5-0.1s-0.6-0.1-1-0.1
				s-0.8,0-1,0.1c-0.3,0.1-0.4,0.1-0.5,0.2v6.8h-1v-7.4c0.2-0.1,0.6-0.2,1-0.3C1074.5-993.8,1075-993.9,1075.6-993.9z"/>
			<path class="st1" d="M1078.1-989.9c0-0.7,0.1-1.3,0.3-1.8s0.5-0.9,0.8-1.3c0.3-0.3,0.7-0.6,1.1-0.8s0.8-0.2,1.3-0.2
				c1,0,1.7,0.3,2.3,0.9s0.8,1.6,0.8,2.9c0,0.1,0,0.2,0,0.2c0,0.1,0,0.2,0,0.2h-5.4c0,1,0.3,1.7,0.7,2.2c0.4,0.5,1.1,0.8,2.1,0.8
				c0.5,0,1,0,1.3-0.2c0.3-0.1,0.5-0.2,0.7-0.3l0.2,0.8c-0.1,0.1-0.4,0.2-0.8,0.3s-0.8,0.2-1.4,0.2c-0.7,0-1.3-0.1-1.7-0.3
				c-0.5-0.2-0.9-0.5-1.2-0.8c-0.3-0.4-0.5-0.8-0.7-1.3C1078.2-988.7,1078.1-989.3,1078.1-989.9z M1083.6-990.5
				c0-0.8-0.2-1.4-0.6-1.9s-0.9-0.7-1.5-0.7c-0.4,0-0.7,0.1-0.9,0.2c-0.3,0.1-0.5,0.3-0.7,0.6c-0.2,0.2-0.4,0.5-0.5,0.8
				s-0.2,0.6-0.2,1L1083.6-990.5L1083.6-990.5z"/>
			<path class="st1" d="M1088-996.1c0,0.2-0.1,0.4-0.2,0.5s-0.3,0.2-0.5,0.2s-0.4-0.1-0.5-0.2c-0.1-0.1-0.2-0.3-0.2-0.5
				s0.1-0.4,0.2-0.5s0.3-0.2,0.5-0.2s0.4,0.1,0.5,0.2C1088-996.5,1088-996.3,1088-996.1z M1087.8-986h-1v-7.8h1V-986z"/>
			<path class="st1" d="M1091.3-993.7h3.1v0.8h-3.1v4.1c0,0.4,0,0.8,0.1,1.1s0.2,0.5,0.3,0.6c0.1,0.1,0.3,0.2,0.5,0.3
				s0.4,0.1,0.7,0.1c0.4,0,0.7,0,1-0.1s0.4-0.2,0.6-0.3l0.2,0.8c-0.1,0.1-0.4,0.2-0.7,0.3c-0.4,0.1-0.7,0.2-1.1,0.2
				c-0.5,0-0.9-0.1-1.2-0.2s-0.6-0.3-0.8-0.6s-0.3-0.6-0.4-1s-0.1-0.8-0.1-1.3v-7.1l1-0.2L1091.3-993.7L1091.3-993.7z"/>
			<path class="st1" d="M1095.7-989.9c0-0.7,0.1-1.3,0.3-1.8s0.5-0.9,0.8-1.3c0.3-0.3,0.7-0.6,1.1-0.8s0.8-0.2,1.3-0.2
				c1,0,1.7,0.3,2.3,0.9s0.8,1.6,0.8,2.9c0,0.1,0,0.2,0,0.2c0,0.1,0,0.2,0,0.2h-5.4c0,1,0.3,1.7,0.7,2.2c0.4,0.5,1.1,0.8,2.1,0.8
				c0.5,0,1,0,1.3-0.2c0.3-0.1,0.5-0.2,0.7-0.3l0.2,0.8c-0.1,0.1-0.4,0.2-0.8,0.3s-0.8,0.2-1.4,0.2c-0.7,0-1.3-0.1-1.7-0.3
				c-0.5-0.2-0.9-0.5-1.2-0.8c-0.3-0.4-0.5-0.8-0.7-1.3C1095.8-988.7,1095.7-989.3,1095.7-989.9z M1101.2-990.5
				c0-0.8-0.2-1.4-0.6-1.9s-0.9-0.7-1.5-0.7c-0.4,0-0.7,0.1-0.9,0.2c-0.3,0.1-0.5,0.3-0.7,0.6c-0.2,0.2-0.4,0.5-0.5,0.8
				s-0.2,0.6-0.2,1L1101.2-990.5L1101.2-990.5z"/>
			<path class="st1" d="M1104.4-993.5c0.3-0.1,0.7-0.2,1.2-0.3s1.1-0.2,1.8-0.2c0.6,0,1.1,0.1,1.5,0.3s0.7,0.4,0.9,0.7
				c0.2,0.3,0.4,0.7,0.5,1.1c0.1,0.4,0.2,0.9,0.2,1.5v4.3h-1v-4c0-0.6,0-1-0.1-1.4s-0.2-0.7-0.4-0.9c-0.2-0.2-0.4-0.4-0.7-0.5
				c-0.3-0.1-0.6-0.2-1.1-0.2s-0.9,0-1.2,0.1c-0.3,0.1-0.6,0.1-0.7,0.1v6.8h-1L1104.4-993.5L1104.4-993.5z"/>
		</g>
	</g>
	<g id="Maps" transform="translate(106.354 61.324)">
		<g id="Pfad_39">
			<path class="st2" d="M965.6-1078.9l-13-3.5h-0.3l-15.5,5.7l-10.2-1.9c-2.6-0.5-5.1,1.3-5.6,3.9c0,0.3-0.1,0.5-0.1,0.8v28.6
				c0,2.3,1.6,4.3,3.9,4.7l11.9,2.2h0.3l15.5-5.7l10.6,2.8c0.4,0.1,0.8,0.2,1.3,0.2c2.6,0,4.8-2.1,4.8-4.8l0,0v-28.4
				C969.1-1076.4,967.7-1078.3,965.6-1078.9z M951.9-1065.4c-5-1.5-10.4-0.4-14.5,2.8v-13.1l14.5-5.4V-1065.4z M922.1-1045.2v-28.6
				c0-2,1.6-3.7,3.7-3.7l0,0h0.7l9.9,1.9v13.9c-1.5,1.3-2.8,2.9-3.7,4.6c-0.1,0.3-0.1,0.6,0.2,0.7h0.3c0.2,0,0.4-0.1,0.5-0.3
				c0.7-1.4,1.6-2.6,2.7-3.7v20.9l-11.2-2.1C923.4-1041.9,922.1-1043.4,922.1-1045.2z M937.4-1061.3c4-3.4,9.5-4.5,14.5-3v19.3
				l-14.5,5.4V-1061.3z M968-1045.8c0,2-1.6,3.7-3.7,3.7l0,0c-0.3,0-0.6,0-1-0.1L953-1045v-19l1.8,0.9c0.3,0.2,0.6,0.1,0.8-0.2
				c0.2-0.3,0.1-0.6-0.2-0.8l0,0l0,0c-0.7-0.4-1.5-0.7-2.3-1v-16l12.3,3.3c1.6,0.4,2.8,1.9,2.8,3.6L968-1045.8z"/>
		</g>
		<g id="Ellipse_1">
			<circle class="st2" cx="929.2" cy="-1053.5" r="2.7"/>
		</g>
		<g id="Pfad_40">
			<path class="st2" d="M964-1064.1c-0.2-0.2-0.5-0.2-0.7,0l0,0l-1.7,1.8l-1.7-1.7c-0.2-0.2-0.6-0.1-0.7,0.1c-0.2,0.2-0.2,0.5,0,0.6
				l1.7,1.7l-1.7,1.7c-0.2,0.2-0.3,0.5-0.1,0.7s0.5,0.3,0.7,0.1l0.1-0.1l1.7-1.7l1.7,1.7c0.2,0.2,0.6,0.1,0.7-0.1
				c0.2-0.2,0.2-0.5,0-0.6l-1.7-1.7l1.7-1.7C964.2-1063.5,964.3-1063.9,964-1064.1L964-1064.1L964-1064.1z"/>
		</g>
	</g>
</g>
</svg>
