<svg xmlns="http://www.w3.org/2000/svg" viewBox="0 0 46.2 22.7"><defs><style>.cls-1{fill:#f47211;}</style></defs><title>Heater</title><g id="Ebene_2" data-name="Ebene 2"><g id="HEater"><path class="cls-1" d="M23,22.7c-2.38,0-3.68-1.1-5.05-2.26a9.53,9.53,0,0,0-7.09-2.76c-4.26.41-7.47,2-9.77,4.83l-.78-.63c2.48-3.05,5.91-4.75,10.51-5.2h0a10.47,10.47,0,0,1,7.76,3c1.29,1.08,2.4,2,4.41,2A8.67,8.67,0,0,0,29.41,19c1.36-1.19,2.77-2.41,5.25-2.29A13.43,13.43,0,0,1,46.2,21.88l-.79.63a12.26,12.26,0,0,0-10.76-4.82c-2.12-.1-3.26.89-4.58,2A9.64,9.64,0,0,1,23,22.7Z"/><path class="cls-1" d="M22.69,6C20.31,6,19,4.92,17.64,3.76A9.57,9.57,0,0,0,10.55,1C6.29,1.42,3.07,3,.78,5.83L0,5.2C2.48,2.15,5.91.45,10.51,0h0a10.47,10.47,0,0,1,7.76,3c1.29,1.08,2.4,2,4.41,2A8.66,8.66,0,0,0,29.14,2.3C30.5,1.12,31.91-.11,34.39,0a13.34,13.34,0,0,1,11.53,5.2l-.78.62A12.26,12.26,0,0,0,34.38,1c-2.12-.09-3.26.89-4.58,2.05A9.63,9.63,0,0,1,22.69,6Z"/><path class="cls-1" d="M22.69,14.36c-2.38,0-3.68-1.1-5.05-2.26a9.53,9.53,0,0,0-7.09-2.76c-4.26.42-7.48,2-9.77,4.83L0,13.54c2.48-3,5.91-4.75,10.51-5.2h0a10.47,10.47,0,0,1,7.76,3c1.29,1.08,2.4,2,4.41,2a8.66,8.66,0,0,0,6.45-2.72c1.36-1.18,2.77-2.41,5.25-2.29a13.36,13.36,0,0,1,11.53,5.2l-.78.62A12.3,12.3,0,0,0,34.38,9.35c-2.12-.1-3.26.89-4.58,2.05A9.67,9.67,0,0,1,22.69,14.36Z"/></g></g></svg>