<?xml version="1.0" encoding="utf-8"?>
<!-- Generator: Adobe Illustrator 22.0.1, SVG Export Plug-In . SVG Version: 6.00 Build 0)  -->
<svg version="1.1" id="Ebene_1" xmlns="http://www.w3.org/2000/svg" xmlns:xlink="http://www.w3.org/1999/xlink" x="0px" y="0px"
	 viewBox="0 0 66 74.9" style="enable-background:new 0 0 66 74.9;" xml:space="preserve">
<style type="text/css">
	.st0{enable-background:new    ;}
	.st1{fill:#FFFFFF;}
	.st2{fill:#F47211;}
</style>
<g id="Gruppe_59" transform="translate(-327.85 2285.86)">
	<g class="st0">
		<path class="st1" d="M345.2-2235.2h0.8v8.3h-0.8V-2235.2z"/>
		<path class="st1" d="M348.1-2232.9c0.2-0.1,0.5-0.1,0.9-0.2c0.4-0.1,0.9-0.1,1.4-0.1c0.5,0,0.9,0.1,1.2,0.2
			c0.3,0.1,0.6,0.3,0.8,0.6c0.2,0.3,0.3,0.6,0.4,0.9c0.1,0.4,0.1,0.7,0.1,1.2v3.5h-0.8v-3.2c0-0.4,0-0.8-0.1-1.1s-0.2-0.6-0.3-0.7
			c-0.1-0.2-0.3-0.3-0.6-0.4s-0.5-0.1-0.9-0.1c-0.4,0-0.7,0-1,0.1s-0.4,0.1-0.5,0.1v5.4h-0.8V-2232.9z"/>
		<path class="st1" d="M355-2232.9c0.2-0.1,0.5-0.1,0.9-0.2c0.4-0.1,0.9-0.1,1.4-0.1c0.5,0,0.9,0.1,1.2,0.2c0.3,0.1,0.6,0.3,0.8,0.6
			c0.2,0.3,0.3,0.6,0.4,0.9c0.1,0.4,0.1,0.7,0.1,1.2v3.5H359v-3.2c0-0.4,0-0.8-0.1-1.1s-0.2-0.6-0.3-0.7c-0.1-0.2-0.3-0.3-0.6-0.4
			s-0.5-0.1-0.9-0.1c-0.4,0-0.7,0-1,0.1s-0.4,0.1-0.5,0.1v5.4H355V-2232.9z"/>
		<path class="st1" d="M361.4-2230c0-0.5,0.1-1,0.2-1.4c0.2-0.4,0.4-0.7,0.6-1c0.3-0.3,0.5-0.5,0.9-0.6c0.3-0.1,0.7-0.2,1-0.2
			c0.8,0,1.4,0.2,1.8,0.7s0.7,1.3,0.7,2.3c0,0.1,0,0.1,0,0.2c0,0.1,0,0.1,0,0.2h-4.4c0,0.8,0.2,1.3,0.6,1.8c0.4,0.4,0.9,0.6,1.7,0.6
			c0.4,0,0.8,0,1-0.1c0.2-0.1,0.4-0.1,0.5-0.2l0.1,0.7c-0.1,0.1-0.3,0.1-0.6,0.2c-0.3,0.1-0.7,0.1-1.1,0.1c-0.5,0-1-0.1-1.4-0.2
			c-0.4-0.2-0.7-0.4-0.9-0.7s-0.4-0.6-0.5-1C361.5-2229.1,361.4-2229.5,361.4-2230z M365.8-2230.5c0-0.6-0.2-1.2-0.5-1.5
			c-0.3-0.4-0.7-0.5-1.2-0.5c-0.3,0-0.5,0.1-0.8,0.2c-0.2,0.1-0.4,0.3-0.6,0.5c-0.2,0.2-0.3,0.4-0.4,0.7s-0.1,0.5-0.2,0.8H365.8z"/>
		<path class="st1" d="M368.4-2232.9c0.2-0.1,0.5-0.1,0.9-0.2c0.4-0.1,0.9-0.1,1.4-0.1c0.5,0,0.9,0.1,1.2,0.2
			c0.3,0.1,0.6,0.3,0.8,0.6c0.2,0.3,0.3,0.6,0.4,0.9c0.1,0.4,0.1,0.7,0.1,1.2v3.5h-0.8v-3.2c0-0.4,0-0.8-0.1-1.1
			c-0.1-0.3-0.2-0.6-0.3-0.7c-0.1-0.2-0.3-0.3-0.6-0.4s-0.5-0.1-0.9-0.1c-0.4,0-0.7,0-1,0.1c-0.3,0-0.4,0.1-0.5,0.1v5.4h-0.8
			V-2232.9z"/>
		<path class="st1" d="M374.5-2230.8h2.7v0.8h-2.7V-2230.8z"/>
	</g>
	<g class="st0">
		<path class="st1" d="M334.3-2222.2v0.7h-2.7v7.6h-0.8v-7.6h-2.7v-0.7H334.3z"/>
		<path class="st1" d="M334.6-2217c0-0.5,0.1-1,0.2-1.4c0.2-0.4,0.4-0.7,0.6-1c0.3-0.3,0.5-0.5,0.9-0.6c0.3-0.1,0.7-0.2,1-0.2
			c0.8,0,1.4,0.2,1.8,0.7s0.7,1.3,0.7,2.3c0,0.1,0,0.1,0,0.2c0,0.1,0,0.1,0,0.2h-4.4c0,0.8,0.2,1.3,0.6,1.8c0.4,0.4,0.9,0.6,1.7,0.6
			c0.4,0,0.8,0,1-0.1c0.2-0.1,0.4-0.1,0.5-0.2l0.1,0.7c-0.1,0.1-0.3,0.1-0.6,0.2s-0.7,0.1-1.1,0.1c-0.5,0-1-0.1-1.4-0.2
			c-0.4-0.2-0.7-0.4-0.9-0.7c-0.2-0.3-0.4-0.6-0.5-1C334.7-2216.1,334.6-2216.5,334.6-2217z M339-2217.5c0-0.6-0.2-1.2-0.5-1.5
			c-0.3-0.4-0.7-0.5-1.2-0.5c-0.3,0-0.5,0.1-0.8,0.2c-0.2,0.1-0.4,0.3-0.6,0.5c-0.2,0.2-0.3,0.4-0.4,0.7c-0.1,0.2-0.1,0.5-0.2,0.8
			H339z"/>
		<path class="st1" d="M341.6-2219.9c0.2-0.1,0.5-0.1,0.9-0.2s0.9-0.1,1.4-0.1c0.8,0,1.4,0.2,1.7,0.7c0,0,0.1-0.1,0.2-0.2
			c0.1-0.1,0.3-0.2,0.4-0.2c0.2-0.1,0.4-0.1,0.6-0.2c0.2-0.1,0.5-0.1,0.8-0.1c0.5,0,0.9,0.1,1.1,0.2c0.3,0.1,0.5,0.3,0.7,0.6
			s0.3,0.6,0.3,0.9c0.1,0.4,0.1,0.7,0.1,1.2v3.5h-0.8v-3.2c0-0.4,0-0.8-0.1-1.1c0-0.3-0.1-0.5-0.2-0.7c-0.1-0.2-0.3-0.3-0.5-0.4
			c-0.2-0.1-0.5-0.2-0.8-0.2c-0.2,0-0.5,0-0.7,0.1c-0.2,0-0.4,0.1-0.5,0.2c-0.1,0.1-0.3,0.1-0.4,0.2c-0.1,0.1-0.2,0.1-0.2,0.1
			c0.1,0.2,0.1,0.4,0.2,0.7c0,0.3,0.1,0.5,0.1,0.8v3.5h-0.8v-3.2c0-0.4,0-0.8-0.1-1.1c0-0.3-0.1-0.5-0.2-0.7
			c-0.1-0.2-0.3-0.3-0.5-0.4c-0.2-0.1-0.5-0.2-0.8-0.2c-0.4,0-0.7,0-1,0.1c-0.3,0-0.4,0.1-0.5,0.1v5.4h-0.8V-2219.9z"/>
		<path class="st1" d="M352.7-2211.7h-0.8v-8.2c0.2-0.1,0.5-0.2,0.9-0.2s0.8-0.1,1.4-0.1c0.5,0,0.9,0.1,1.2,0.2
			c0.4,0.1,0.7,0.4,1,0.6c0.3,0.3,0.5,0.6,0.6,1c0.1,0.4,0.2,0.9,0.2,1.4c0,0.5-0.1,0.9-0.2,1.3c-0.1,0.4-0.3,0.7-0.5,1
			s-0.5,0.5-0.9,0.7c-0.3,0.2-0.7,0.2-1.2,0.2c-0.4,0-0.8-0.1-1.1-0.2c-0.3-0.1-0.5-0.2-0.7-0.3V-2211.7z M352.7-2215
			c0.1,0.1,0.2,0.1,0.3,0.2c0.1,0.1,0.2,0.1,0.4,0.2s0.3,0.1,0.5,0.1c0.2,0,0.3,0.1,0.5,0.1c0.4,0,0.7-0.1,1-0.2s0.5-0.3,0.6-0.5
			c0.2-0.2,0.3-0.5,0.3-0.8c0.1-0.3,0.1-0.6,0.1-1c0-0.8-0.2-1.4-0.6-1.9c-0.4-0.4-0.9-0.7-1.6-0.7c-0.4,0-0.7,0-0.9,0.1
			c-0.2,0-0.4,0.1-0.5,0.1V-2215z"/>
		<path class="st1" d="M358.6-2217c0-0.5,0.1-1,0.2-1.4c0.2-0.4,0.4-0.7,0.6-1c0.3-0.3,0.5-0.5,0.9-0.6c0.3-0.1,0.7-0.2,1-0.2
			c0.8,0,1.4,0.2,1.8,0.7s0.7,1.3,0.7,2.3c0,0.1,0,0.1,0,0.2c0,0.1,0,0.1,0,0.2h-4.4c0,0.8,0.2,1.3,0.6,1.8c0.4,0.4,0.9,0.6,1.7,0.6
			c0.4,0,0.8,0,1-0.1c0.2-0.1,0.4-0.1,0.5-0.2l0.1,0.7c-0.1,0.1-0.3,0.1-0.6,0.2c-0.3,0.1-0.7,0.1-1.1,0.1c-0.5,0-1-0.1-1.4-0.2
			c-0.4-0.2-0.7-0.4-0.9-0.7c-0.2-0.3-0.4-0.6-0.5-1C358.6-2216.1,358.6-2216.5,358.6-2217z M363-2217.5c0-0.6-0.2-1.2-0.5-1.5
			c-0.3-0.4-0.7-0.5-1.2-0.5c-0.3,0-0.5,0.1-0.8,0.2c-0.2,0.1-0.4,0.3-0.6,0.5c-0.2,0.2-0.3,0.4-0.4,0.7c-0.1,0.2-0.1,0.5-0.2,0.8
			H363z"/>
		<path class="st1" d="M367.6-2220.2c0.3,0,0.5,0,0.7,0.1c0.2,0,0.4,0.1,0.5,0.1l-0.2,0.7c-0.1,0-0.2-0.1-0.4-0.1s-0.5-0.1-0.8-0.1
			c-0.3,0-0.6,0-0.8,0.1s-0.3,0.1-0.4,0.1v5.4h-0.8v-5.9c0.2-0.1,0.5-0.2,0.8-0.3C366.7-2220.2,367.1-2220.2,367.6-2220.2z"/>
		<path class="st1" d="M371.9-2220.3c0.4,0,0.8,0.1,1,0.2s0.5,0.3,0.7,0.5c0.2,0.2,0.3,0.4,0.4,0.7s0.1,0.6,0.1,0.9v3.9
			c-0.1,0-0.2,0-0.3,0.1c-0.2,0-0.3,0.1-0.5,0.1c-0.2,0-0.4,0.1-0.7,0.1c-0.2,0-0.5,0-0.8,0c-0.3,0-0.6,0-0.9-0.1
			c-0.3-0.1-0.5-0.2-0.7-0.3c-0.2-0.2-0.4-0.4-0.5-0.6s-0.2-0.5-0.2-0.9c0-0.3,0.1-0.6,0.2-0.9s0.3-0.4,0.5-0.6
			c0.2-0.2,0.5-0.3,0.8-0.3c0.3-0.1,0.7-0.1,1-0.1c0.1,0,0.2,0,0.4,0s0.2,0,0.4,0c0.1,0,0.2,0,0.3,0.1c0.1,0,0.1,0,0.2,0.1v-0.4
			c0-0.2,0-0.4,0-0.6s-0.1-0.4-0.2-0.6c-0.1-0.2-0.3-0.3-0.5-0.4s-0.5-0.2-0.8-0.2c-0.5,0-0.8,0-1,0.1c-0.2,0.1-0.4,0.1-0.5,0.2
			l-0.1-0.7c0.1-0.1,0.3-0.1,0.6-0.2C371.1-2220.2,371.5-2220.3,371.9-2220.3z M372-2214.5c0.3,0,0.6,0,0.8,0c0.2,0,0.4,0,0.6-0.1
			v-2.2c-0.1,0-0.2-0.1-0.4-0.1c-0.2,0-0.5-0.1-0.8-0.1c-0.2,0-0.4,0-0.6,0c-0.2,0-0.4,0.1-0.6,0.2c-0.2,0.1-0.3,0.2-0.4,0.4
			c-0.1,0.2-0.2,0.4-0.2,0.6c0,0.2,0,0.4,0.1,0.6s0.2,0.3,0.3,0.4c0.1,0.1,0.3,0.2,0.5,0.2S371.7-2214.5,372-2214.5z"/>
		<path class="st1" d="M376.8-2220.1h2.5v0.7h-2.5v3.3c0,0.4,0,0.6,0.1,0.9c0.1,0.2,0.1,0.4,0.3,0.5c0.1,0.1,0.2,0.2,0.4,0.2
			s0.3,0.1,0.5,0.1c0.3,0,0.6,0,0.8-0.1c0.2-0.1,0.4-0.1,0.5-0.2l0.2,0.6c-0.1,0.1-0.3,0.2-0.6,0.2c-0.3,0.1-0.6,0.1-0.9,0.1
			c-0.4,0-0.7,0-1-0.1c-0.3-0.1-0.5-0.3-0.6-0.5c-0.2-0.2-0.3-0.5-0.3-0.8c-0.1-0.3-0.1-0.7-0.1-1.1v-5.7l0.8-0.1V-2220.1z"/>
		<path class="st1" d="M385.5-2214.1c-0.2,0.1-0.5,0.1-0.9,0.2c-0.4,0.1-0.9,0.1-1.4,0.1c-0.5,0-0.9-0.1-1.2-0.2
			c-0.3-0.1-0.6-0.3-0.8-0.6c-0.2-0.2-0.3-0.5-0.4-0.9c-0.1-0.4-0.1-0.7-0.1-1.2v-3.5h0.8v3.2c0,0.4,0,0.8,0.1,1.1
			c0.1,0.3,0.2,0.6,0.3,0.7c0.1,0.2,0.3,0.3,0.6,0.4c0.2,0.1,0.5,0.1,0.8,0.1c0.4,0,0.7,0,1-0.1c0.3,0,0.4-0.1,0.5-0.1v-5.4h0.8
			V-2214.1z"/>
		<path class="st1" d="M389.7-2220.2c0.3,0,0.5,0,0.7,0.1c0.2,0,0.4,0.1,0.5,0.1l-0.2,0.7c-0.1,0-0.2-0.1-0.4-0.1s-0.5-0.1-0.8-0.1
			c-0.3,0-0.6,0-0.8,0.1s-0.3,0.1-0.4,0.1v5.4h-0.8v-5.9c0.2-0.1,0.5-0.2,0.8-0.3C388.8-2220.2,389.2-2220.2,389.7-2220.2z"/>
	</g>
	<g id="Pfad_60">
		<path class="st2" d="M359.2-2285.9c-2.8,0-5.1,2.3-5.1,5.1l0,0v18.3c-4.9,2.8-6.7,9.1-3.8,14.1c2.8,4.9,9.1,6.7,14.1,3.8
			c4.9-2.7,6.7-9,4-13.9c-0.9-1.7-2.3-3-4-4v-18.4C364.3-2283.6,362-2285.9,359.2-2285.9C359.2-2285.9,359.2-2285.9,359.2-2285.9z
			 M368.6-2253.4c-0.1,5.2-4.4,9.3-9.6,9.3c-5.1-0.1-9.2-4.2-9.3-9.3c0-3.4,1.9-6.6,5-8.2c0.2-0.1,0.3-0.2,0.3-0.4v-4.8h3.7
			c0.3,0,0.5-0.2,0.5-0.5c0,0,0,0,0,0c0-0.2-0.1-0.5-0.4-0.5c0,0-0.1,0-0.1,0H355v-3.9h3.7c0.3,0,0.5-0.2,0.5-0.5c0,0,0,0,0,0
			c0-0.2-0.1-0.5-0.4-0.5c0,0-0.1,0-0.1,0H355v-3.7h3.7c0.3,0,0.5-0.2,0.5-0.5c0,0,0,0,0,0c0-0.3-0.3-0.4-0.5-0.4H355v-3.3
			c0-2.3,1.9-4.1,4.1-4.1s4.1,1.9,4.1,4.1v18.7c0,0.2,0.1,0.3,0.3,0.4C366.7-2260.1,368.6-2256.9,368.6-2253.4z"/>
	</g>
</g>
</svg>
