<?xml version="1.0" encoding="utf-8"?>
<!-- Generator: Adobe Illustrator 22.0.1, SVG Export Plug-In . SVG Version: 6.00 Build 0)  -->
<svg version="1.1" id="Ebene_1" xmlns="http://www.w3.org/2000/svg" xmlns:xlink="http://www.w3.org/1999/xlink" x="0px" y="0px"
	 viewBox="0 0 50 76.3" style="enable-background:new 0 0 50 76.3;" xml:space="preserve">
<style type="text/css">
	.st0{fill:#F47211;}
	.st1{enable-background:new    ;}
	.st2{fill:#FFFFFF;}
</style>
<g id="Gruppe_58" transform="translate(-936 1457)">
	<g id="OrtungIcon">
		<path class="st0" d="M960.6-1411.9l-1.3-1.5c-7.6-8.8-12.4-15.8-14.2-25.3c-0.8-4.8,0.6-9.6,3.7-13.3c3-3.3,7.2-5.1,11.6-5h0.3
			c4.4,0.1,8.5,1.9,11.5,5.1c3,3.3,4.3,8,3.7,13.2c-1.8,9.9-6.7,17-14,25.3L960.6-1411.9z M960.3-1456c-4.1,0-7.9,1.7-10.7,4.7
			c-2.9,3.5-4.2,8-3.4,12.5c1.7,9.3,6.4,16.1,13.9,24.8l0.5,0.6l0.5-0.6c7.2-8.2,12-15.2,13.8-24.8c0.6-4.9-0.6-9.3-3.5-12.3
			c-2.8-3-6.7-4.8-10.7-4.8L960.3-1456C960.4-1456,960.3-1456,960.3-1456z M960.7-1434L960.7-1434c-4.2-0.1-7.5-3.5-7.4-7.6
			s3.3-7.3,7.4-7.4c4.1,0,7.5,3.4,7.5,7.5S964.9-1434.1,960.7-1434L960.7-1434z M960.7-1448.1c-3.5,0.1-6.3,2.9-6.4,6.4
			c0,1.7,0.6,3.4,1.8,4.6s2.8,2,4.6,2c3.6-0.1,6.4-2.9,6.5-6.5C967.2-1445.1,964.3-1448.1,960.7-1448.1z"/>
	</g>
	<g class="st1">
		<path class="st2" d="M947.3-1389.3c0,0.9-0.1,1.7-0.4,2.4c-0.3,0.7-0.6,1.2-1.1,1.7c-0.4,0.5-1,0.8-1.6,1s-1.2,0.3-1.9,0.3
			s-1.3-0.1-1.9-0.3c-0.6-0.2-1.1-0.6-1.6-1c-0.4-0.5-0.8-1-1.1-1.7s-0.4-1.5-0.4-2.4s0.1-1.7,0.4-2.3c0.3-0.7,0.6-1.2,1.1-1.7
			c0.4-0.5,1-0.8,1.6-1s1.2-0.3,1.9-0.3s1.3,0.1,1.9,0.3c0.6,0.2,1.1,0.6,1.6,1c0.4,0.5,0.8,1,1.1,1.7
			C947.2-1391,947.3-1390.2,947.3-1389.3z M946.3-1389.3c0-0.7-0.1-1.3-0.3-1.9s-0.4-1-0.8-1.4s-0.7-0.7-1.2-0.9s-1-0.3-1.6-0.3
			s-1.1,0.1-1.6,0.3s-0.9,0.5-1.2,0.9s-0.6,0.9-0.8,1.4c-0.2,0.6-0.3,1.2-0.3,1.9s0.1,1.3,0.3,1.9s0.4,1,0.8,1.4
			c0.3,0.4,0.7,0.7,1.2,0.9s1,0.3,1.6,0.3s1.1-0.1,1.6-0.3s0.9-0.5,1.2-0.9s0.6-0.9,0.8-1.4C946.2-1388,946.3-1388.6,946.3-1389.3z"
			/>
		<path class="st2" d="M952.2-1392c0.3,0,0.6,0,0.9,0.1s0.5,0.1,0.6,0.2l-0.2,0.8c-0.1,0-0.2-0.1-0.5-0.1c-0.2,0-0.6-0.1-1-0.1
			s-0.8,0-1,0.1c-0.3,0.1-0.4,0.1-0.5,0.2v6.8h-1v-7.4c0.2-0.1,0.6-0.2,1-0.3S951.6-1392,952.2-1392z"/>
		<path class="st2" d="M956.1-1391.8h3.1v0.8h-3.1v4.1c0,0.4,0,0.8,0.1,1.1s0.2,0.5,0.3,0.6s0.3,0.2,0.5,0.3s0.4,0.1,0.7,0.1
			c0.4,0,0.7,0,1-0.1s0.4-0.2,0.6-0.3l0.2,0.8c-0.1,0.1-0.4,0.2-0.7,0.3c-0.3,0.1-0.7,0.2-1.1,0.2c-0.5,0-0.9-0.1-1.2-0.2
			s-0.6-0.3-0.8-0.6c-0.2-0.3-0.3-0.6-0.4-1s-0.1-0.8-0.1-1.3v-7.1l1-0.2L956.1-1391.8L956.1-1391.8z"/>
		<path class="st2" d="M966.9-1384.3c-0.3,0.1-0.7,0.2-1.2,0.3c-0.5,0.1-1.1,0.2-1.8,0.2c-0.6,0-1.1-0.1-1.5-0.3
			c-0.4-0.2-0.7-0.4-0.9-0.7c-0.2-0.3-0.4-0.7-0.5-1.1s-0.2-0.9-0.2-1.5v-4.3h1v4c0,0.5,0,1,0.1,1.4s0.2,0.7,0.4,0.9
			c0.2,0.2,0.4,0.4,0.7,0.5s0.6,0.2,1,0.2c0.5,0,0.9,0,1.2-0.1s0.6-0.1,0.6-0.1v-6.8h1v7.4H966.9z"/>
		<path class="st2" d="M969.5-1391.6c0.3-0.1,0.7-0.2,1.2-0.3c0.5-0.1,1.1-0.2,1.8-0.2c0.6,0,1.1,0.1,1.5,0.3
			c0.4,0.2,0.7,0.4,0.9,0.7c0.2,0.3,0.4,0.7,0.5,1.1s0.2,0.9,0.2,1.5v4.3h-1v-4c0-0.6,0-1-0.1-1.4s-0.2-0.7-0.4-0.9
			c-0.2-0.2-0.4-0.4-0.7-0.5s-0.6-0.2-1.1-0.2s-0.9,0-1.2,0.1s-0.6,0.1-0.7,0.1v6.8h-1L969.5-1391.6L969.5-1391.6z"/>
		<path class="st2" d="M983.1-1385c-0.1,0.1-0.2,0.1-0.3,0.2s-0.3,0.1-0.4,0.2c-0.2,0.1-0.4,0.1-0.6,0.2c-0.2,0-0.5,0.1-0.8,0.1
			c-0.5,0-0.9-0.1-1.3-0.2c-0.4-0.1-0.8-0.4-1.1-0.7c-0.3-0.3-0.6-0.7-0.8-1.2s-0.3-1.1-0.3-1.7c0-0.5,0.1-1.1,0.3-1.5
			c0.2-0.5,0.4-0.9,0.7-1.2c0.3-0.3,0.7-0.6,1.2-0.8c0.5-0.2,1-0.3,1.5-0.3c0.7,0,1.3,0,1.7,0.1s0.8,0.2,1.1,0.3v7.1
			c0,1.2-0.3,2-0.9,2.5s-1.5,0.7-2.7,0.7c-0.5,0-1,0-1.4-0.1s-0.8-0.2-1-0.3l0.2-0.9c0.2,0.1,0.6,0.2,1,0.3s0.8,0.1,1.3,0.1
			c0.9,0,1.6-0.2,2-0.5c0.4-0.4,0.6-1,0.6-1.8V-1385z M983.1-1390.9c-0.2-0.1-0.4-0.1-0.7-0.1s-0.7-0.1-1.2-0.1
			c-0.4,0-0.8,0.1-1.1,0.2s-0.6,0.4-0.8,0.6c-0.2,0.3-0.4,0.6-0.5,0.9s-0.2,0.8-0.2,1.2c0,0.5,0.1,0.9,0.2,1.3
			c0.1,0.4,0.3,0.7,0.5,0.9c0.2,0.2,0.5,0.4,0.8,0.5s0.6,0.2,0.9,0.2c0.4,0,0.8-0.1,1.2-0.2s0.6-0.3,0.8-0.5L983.1-1390.9
			L983.1-1390.9z"/>
	</g>
</g>
</svg>
