<?xml version="1.0" encoding="utf-8"?>
<!-- Generator: Adobe Illustrator 22.0.1, SVG Export Plug-In . SVG Version: 6.00 Build 0)  -->
<svg version="1.1" id="Ebene_1" xmlns="http://www.w3.org/2000/svg" xmlns:xlink="http://www.w3.org/1999/xlink" x="0px" y="0px"
	 viewBox="0 0 66 62.8" style="enable-background:new 0 0 66 62.8;" xml:space="preserve">
<style type="text/css">
	.st0{enable-background:new    ;}
	.st1{fill:#FFFFFF;}
	.st2{fill:#F47211;}
</style>
<g id="Gruppe_59" transform="translate(-327.85 2386.86)">
	<g class="st0">
		<path class="st1" d="M335.2-2331.9c0,0.6-0.2,1.1-0.5,1.5c-0.3,0.4-0.8,0.6-1.3,0.8c0.1,0.2,0.3,0.4,0.5,0.6
			c0.2,0.3,0.4,0.6,0.6,0.9c0.2,0.3,0.4,0.7,0.6,1c0.2,0.4,0.4,0.7,0.5,1h-0.9c-0.2-0.3-0.4-0.6-0.5-1c-0.2-0.3-0.4-0.6-0.6-0.9
			c-0.2-0.3-0.4-0.6-0.6-0.8s-0.4-0.5-0.5-0.7c-0.3,0-0.5,0-0.8,0h-1.3v3.4h-0.8v-8.2c0.3-0.1,0.6-0.1,1-0.2s0.7-0.1,1.1-0.1
			c1.1,0,2,0.2,2.6,0.6C334.9-2333.4,335.2-2332.8,335.2-2331.9z M331.9-2333.8c-0.3,0-0.6,0-0.8,0c-0.2,0-0.4,0-0.6,0.1v3.5h1.1
			c0.4,0,0.7,0,1.1-0.1s0.6-0.1,0.9-0.2s0.4-0.3,0.6-0.5c0.1-0.2,0.2-0.5,0.2-0.9c0-0.4-0.1-0.7-0.2-0.9c-0.1-0.2-0.3-0.4-0.6-0.6
			c-0.2-0.1-0.5-0.2-0.8-0.3C332.5-2333.8,332.2-2333.8,331.9-2333.8z"/>
		<path class="st1" d="M336.7-2329.2c0-0.5,0.1-1,0.2-1.4c0.2-0.4,0.4-0.7,0.6-1c0.3-0.3,0.5-0.5,0.9-0.6c0.3-0.1,0.7-0.2,1-0.2
			c0.8,0,1.4,0.2,1.8,0.7s0.7,1.3,0.7,2.3c0,0.1,0,0.1,0,0.2c0,0.1,0,0.1,0,0.2h-4.4c0,0.8,0.2,1.3,0.6,1.8c0.4,0.4,0.9,0.6,1.7,0.6
			c0.4,0,0.8,0,1-0.1c0.2-0.1,0.4-0.1,0.5-0.2l0.1,0.7c-0.1,0.1-0.3,0.1-0.6,0.2c-0.3,0.1-0.7,0.1-1.1,0.1c-0.5,0-1-0.1-1.4-0.2
			c-0.4-0.2-0.7-0.4-0.9-0.7c-0.2-0.3-0.4-0.6-0.5-1C336.7-2328.3,336.7-2328.7,336.7-2329.2z M341.1-2329.7c0-0.6-0.2-1.2-0.5-1.5
			c-0.3-0.4-0.7-0.5-1.2-0.5c-0.3,0-0.5,0.1-0.8,0.2c-0.2,0.1-0.4,0.3-0.6,0.5c-0.2,0.2-0.3,0.4-0.4,0.7s-0.1,0.5-0.2,0.8H341.1z"/>
		<path class="st1" d="M344.6-2334.2c0,0.2-0.1,0.3-0.2,0.4c-0.1,0.1-0.2,0.2-0.4,0.2s-0.3-0.1-0.4-0.2c-0.1-0.1-0.2-0.3-0.2-0.4
			c0-0.2,0.1-0.3,0.2-0.4c0.1-0.1,0.2-0.2,0.4-0.2s0.3,0.1,0.4,0.2C344.5-2334.5,344.6-2334.4,344.6-2334.2z M344.4-2326.1h-0.8
			v-6.2h0.8V-2326.1z"/>
		<path class="st1" d="M348.7-2335.4c0.3,0,0.6,0,0.8,0.1c0.2,0.1,0.3,0.1,0.4,0.1l-0.2,0.7c-0.1,0-0.2-0.1-0.4-0.1
			s-0.4-0.1-0.7-0.1c-0.6,0-0.9,0.1-1.2,0.4c-0.2,0.3-0.4,0.7-0.4,1.3v0.6h2.5v0.7h-2.5v5.5h-0.8v-6.9c0-0.8,0.2-1.4,0.6-1.8
			S348-2335.4,348.7-2335.4z"/>
		<path class="st1" d="M350.6-2329.2c0-0.5,0.1-1,0.2-1.4c0.2-0.4,0.4-0.7,0.6-1c0.3-0.3,0.5-0.5,0.9-0.6c0.3-0.1,0.7-0.2,1-0.2
			c0.8,0,1.4,0.2,1.8,0.7s0.7,1.3,0.7,2.3c0,0.1,0,0.1,0,0.2c0,0.1,0,0.1,0,0.2h-4.4c0,0.8,0.2,1.3,0.6,1.8c0.4,0.4,0.9,0.6,1.7,0.6
			c0.4,0,0.8,0,1-0.1c0.2-0.1,0.4-0.1,0.5-0.2l0.1,0.7c-0.1,0.1-0.3,0.1-0.6,0.2c-0.3,0.1-0.7,0.1-1.1,0.1c-0.5,0-1-0.1-1.4-0.2
			c-0.4-0.2-0.7-0.4-0.9-0.7c-0.2-0.3-0.4-0.6-0.5-1C350.7-2328.3,350.6-2328.7,350.6-2329.2z M355-2329.7c0-0.6-0.2-1.2-0.5-1.5
			c-0.3-0.4-0.7-0.5-1.2-0.5c-0.3,0-0.5,0.1-0.8,0.2c-0.2,0.1-0.4,0.3-0.6,0.5c-0.2,0.2-0.3,0.4-0.4,0.7s-0.1,0.5-0.2,0.8H355z"/>
		<path class="st1" d="M357.5-2332.1c0.2-0.1,0.5-0.1,0.9-0.2s0.9-0.1,1.4-0.1c0.5,0,0.9,0.1,1.2,0.2c0.3,0.1,0.6,0.3,0.8,0.6
			c0.2,0.3,0.3,0.6,0.4,0.9c0.1,0.4,0.1,0.7,0.1,1.2v3.5h-0.8v-3.2c0-0.4,0-0.8-0.1-1.1c-0.1-0.3-0.2-0.6-0.3-0.7
			c-0.1-0.2-0.3-0.3-0.6-0.4c-0.2-0.1-0.5-0.1-0.9-0.1c-0.4,0-0.7,0-1,0.1c-0.3,0-0.4,0.1-0.5,0.1v5.4h-0.8V-2332.1z"/>
		<path class="st1" d="M369.3-2326.3c-0.2,0.1-0.5,0.2-0.9,0.2s-0.8,0.1-1.4,0.1c-0.5,0-0.9-0.1-1.2-0.2c-0.4-0.1-0.7-0.4-1-0.6
			c-0.3-0.3-0.5-0.6-0.6-1c-0.1-0.4-0.2-0.9-0.2-1.4c0-0.5,0.1-0.9,0.2-1.3c0.1-0.4,0.3-0.7,0.5-1c0.2-0.3,0.5-0.5,0.9-0.7
			c0.3-0.2,0.7-0.2,1.2-0.2c0.4,0,0.8,0.1,1.1,0.2s0.5,0.2,0.7,0.3v-3.3l0.8-0.1V-2326.3z M368.5-2331.2c-0.1-0.1-0.2-0.1-0.3-0.2
			c-0.1-0.1-0.2-0.1-0.4-0.2c-0.1-0.1-0.3-0.1-0.5-0.1s-0.3-0.1-0.5-0.1c-0.4,0-0.7,0.1-1,0.2s-0.5,0.3-0.6,0.5
			c-0.2,0.2-0.3,0.5-0.3,0.8c-0.1,0.3-0.1,0.6-0.1,1c0,0.8,0.2,1.4,0.6,1.9c0.4,0.4,0.9,0.7,1.6,0.7c0.4,0,0.7,0,0.9-0.1
			c0.2,0,0.4-0.1,0.5-0.1V-2331.2z"/>
		<path class="st1" d="M373.5-2332.4c0.3,0,0.5,0,0.7,0.1c0.2,0,0.4,0.1,0.5,0.1l-0.2,0.7c-0.1,0-0.2-0.1-0.4-0.1s-0.5-0.1-0.8-0.1
			c-0.3,0-0.6,0-0.8,0.1s-0.3,0.1-0.4,0.1v5.4h-0.8v-5.9c0.2-0.1,0.5-0.2,0.8-0.3C372.5-2332.4,373-2332.4,373.5-2332.4z"/>
		<path class="st1" d="M380.6-2326.3c-0.2,0.1-0.5,0.1-0.9,0.2c-0.4,0.1-0.9,0.1-1.4,0.1c-0.5,0-0.9-0.1-1.2-0.2
			c-0.3-0.1-0.6-0.3-0.8-0.6c-0.2-0.2-0.3-0.5-0.4-0.9c-0.1-0.4-0.1-0.7-0.1-1.2v-3.5h0.8v3.2c0,0.4,0,0.8,0.1,1.1
			c0.1,0.3,0.2,0.6,0.3,0.7c0.1,0.2,0.3,0.3,0.6,0.4c0.2,0.1,0.5,0.1,0.8,0.1c0.4,0,0.7,0,1-0.1c0.3,0,0.4-0.1,0.5-0.1v-5.4h0.8
			V-2326.3z"/>
		<path class="st1" d="M385.3-2326c-0.5,0-0.9-0.1-1.3-0.2c-0.4-0.2-0.7-0.4-0.9-0.7s-0.4-0.6-0.6-1c-0.1-0.4-0.2-0.8-0.2-1.3
			c0-0.5,0.1-0.9,0.2-1.3s0.3-0.7,0.6-1c0.2-0.3,0.5-0.5,0.9-0.7c0.4-0.2,0.7-0.2,1.2-0.2c0.3,0,0.6,0,0.9,0.1
			c0.3,0.1,0.5,0.1,0.7,0.2l-0.2,0.7c-0.2-0.1-0.3-0.1-0.5-0.2c-0.2,0-0.5-0.1-0.8-0.1c-0.7,0-1.2,0.2-1.6,0.7
			c-0.4,0.4-0.5,1.1-0.5,1.9c0,0.4,0,0.7,0.1,1c0.1,0.3,0.2,0.6,0.4,0.8c0.2,0.2,0.4,0.4,0.7,0.5s0.6,0.2,1,0.2c0.3,0,0.6,0,0.8-0.1
			c0.2-0.1,0.4-0.1,0.5-0.2l0.2,0.7c-0.1,0.1-0.4,0.2-0.7,0.2C385.9-2326,385.6-2326,385.3-2326z"/>
		<path class="st1" d="M389.8-2329.5c0.3,0.2,0.6,0.4,0.9,0.7c0.3,0.3,0.6,0.5,0.9,0.8c0.3,0.3,0.5,0.6,0.8,0.9
			c0.2,0.3,0.5,0.6,0.6,0.9H392c-0.2-0.3-0.4-0.6-0.7-0.9c-0.2-0.3-0.5-0.6-0.8-0.9s-0.5-0.5-0.8-0.7c-0.3-0.2-0.5-0.4-0.7-0.5v3
			h-0.8v-9.2l0.8-0.1v5.8c0.2-0.1,0.4-0.3,0.6-0.6s0.5-0.5,0.8-0.7c0.3-0.2,0.5-0.5,0.7-0.7c0.2-0.2,0.4-0.4,0.6-0.6h1
			c-0.2,0.2-0.4,0.4-0.6,0.6c-0.2,0.2-0.5,0.5-0.7,0.7c-0.3,0.3-0.5,0.5-0.8,0.8C390.2-2329.9,390-2329.7,389.8-2329.5z"/>
	</g>
	<g id="Gruppe_108" transform="translate(8.85 -8.86)">
		<g id="Pfad_62">
			<path class="st2" d="M352-2336.8c-11.1,0-20.1-9.1-20.1-20.1c0-11.1,9-20.1,20.1-20.2c11.1,0,20.1,9.1,20.1,20.2
				C372.1-2345.8,363.1-2336.8,352-2336.8 M352-2378c-11.6,0-21,9.5-21,21.1c0,11.6,9.4,21.1,21,21.1c11.6,0,21-9.5,21-21.1
				C373-2368.5,363.6-2378,352-2378"/>
		</g>
		<g id="Pfad_63">
			<path class="st2" d="M352-2342.4c-8,0-14.6-6.5-14.6-14.6c0-8,6.5-14.6,14.6-14.6c8,0,14.6,6.5,14.6,14.6
				C366.6-2349,360-2342.4,352-2342.4 M352-2372.5c-8.6,0-15.5,7-15.5,15.5c0,8.6,7,15.5,15.5,15.5c8.6,0,15.5-7,15.5-15.5
				C367.5-2365.6,360.6-2372.5,352-2372.5"/>
		</g>
		<g id="Pfad_64">
			<rect x="351.5" y="-2371.6" class="st2" width="1" height="6.1"/>
		</g>
		<g id="Pfad_65">
			<rect x="351.5" y="-2348.1" class="st2" width="1" height="6.1"/>
		</g>
		<g id="Pfad_66">
			<rect x="360.9" y="-2357.5" class="st2" width="6.1" height="1"/>
		</g>
		<g id="Pfad_67">
			<rect x="337" y="-2357.5" class="st2" width="6.1" height="1"/>
		</g>
		<g id="Pfad_68">
			
				<rect x="350.8" y="-2360.5" transform="matrix(0.7071 -0.7071 0.7071 0.7071 1772.7698 -440.1983)" class="st2" width="8.5" height="1"/>
		</g>
		<g id="Pfad_69">
			<path class="st2" d="M354.1-2357c0-1.2-0.9-2.1-2.1-2.1c0,0,0,0,0,0c-1.2,0-2.1,0.9-2.1,2.1c0,0,0,0,0,0c0,1.2,0.9,2.1,2.1,2.1
				C353.2-2354.9,354.1-2355.8,354.1-2357C354.1-2357,354.1-2357,354.1-2357"/>
		</g>
	</g>
</g>
</svg>
