<svg xmlns="http://www.w3.org/2000/svg" viewBox="0 0 32.85 48.63"><defs><style>.cls-1{fill:#f47211;}</style></defs><title>Sitz</title><g id="Ebene_2" data-name="Ebene 2"><g id="Sitz"><path class="cls-1" d="M30.08,39.1A13.31,13.31,0,0,0,23.87,38a76.71,76.71,0,0,0-8.24.61c-1.46.16-2.84.32-4,.39l-.74,0,.08-.74c.12-1.09.35-2.62.59-4.25l.16-1a85.46,85.46,0,0,0,1-9.6c.12-3.87-.27-6.66-1.21-8.79a6.47,6.47,0,0,0-6.09-4H2.82V7.44H8.23a.51.51,0,0,0,.51-.51V3.72A3.73,3.73,0,0,0,5,0H.51A.51.51,0,0,0,0,.51V6.93a.51.51,0,0,0,.51.51H1.8v3.12H.51a.51.51,0,0,0-.51.51V48.12a.5.5,0,0,0,.51.5H32.34a.5.5,0,0,0,.51-.5V43.77A5.07,5.07,0,0,0,30.08,39.1ZM1,6.42V1H5a2.7,2.7,0,0,1,2.7,2.7v2.7ZM31.83,47.61H1v-36H5.39A5.05,5.05,0,0,1,10.55,15c1.06,2.4,1.2,5.87,1.12,8.35a82.54,82.54,0,0,1-1,9.48l-.25,1.68a39.34,39.34,0,0,0-.6,5,.51.51,0,0,0,.51.51c1.63,0,3.66-.24,5.81-.48h.13A69.56,69.56,0,0,1,23.86,39a13.74,13.74,0,0,1,5.76,1,3.73,3.73,0,0,1,2.21,3.77Z"/></g></g></svg>