<?xml version="1.0" encoding="utf-8"?>
<!-- Generator: Adobe Illustrator 22.0.1, SVG Export Plug-In . SVG Version: 6.00 Build 0)  -->
<svg version="1.1" id="Ebene_1" xmlns="http://www.w3.org/2000/svg" xmlns:xlink="http://www.w3.org/1999/xlink" x="0px" y="0px"
	 viewBox="0 0 228.6 12.3" style="enable-background:new 0 0 228.6 12.3;" xml:space="preserve">
<style type="text/css">
	.st0{fill:#FFFFFF;}
	.st1{enable-background:new    ;}
</style>
<g id="Infos" transform="translate(339 861)">
	<g id="Batterie_1_" transform="translate(257.827 9.286)">
		<g id="Pfad_11">
			<path class="st0" d="M-368.2-862.7v-2.5c0-0.4-0.3-0.7-0.7-0.7h-0.7v3.9h0.7C-368.5-862-368.2-862.3-368.2-862.7
				C-368.2-862.7-368.2-862.7-368.2-862.7z"/>
		</g>
		<g id="Pfad_12">
			<path class="st0" d="M-369.9-860v-8c0-0.7-0.6-1.3-1.3-1.3h-16.1c-0.7,0-1.3,0.6-1.3,1.3v8c0,0.7,0.6,1.3,1.3,1.3h16.1
				C-370.5-858.7-369.9-859.2-369.9-860C-369.9-859.9-369.9-860-369.9-860z M-370.5-868v8c0,0.3-0.3,0.6-0.6,0.6c0,0,0,0,0,0h-16.1
				c-0.3,0-0.6-0.3-0.6-0.6c0,0,0,0,0,0v-8c0-0.3,0.3-0.6,0.6-0.6c0,0,0,0,0,0h16.1C-370.8-868.6-370.5-868.3-370.5-868z"/>
		</g>
		<g id="Pfad_13">
			<path class="st0" d="M-384.5-860.2v-7.6h-2.1v7.6H-384.5z"/>
		</g>
		<g id="Pfad_14">
			<path class="st0" d="M-381.2-860.2v-7.6h-2.1v7.6H-381.2z"/>
		</g>
		<g id="Pfad_15">
			<path class="st0" d="M-384.5-860.2v-7.6h-2.1v7.6H-384.5z"/>
		</g>
	</g>
	<g id="Pfad_17">
		<path class="st0" d="M-336.7-856.2h-0.6v-1.1c0-2,1.7-3.6,3.7-3.6c2,0,3.6,1.6,3.6,3.6v1.1h-0.6v-1.1c0-1.7-1.4-3-3-3
			c-1.7,0-3,1.4-3,3L-336.7-856.2L-336.7-856.2z M-328.2-855.5v6.5c0,0.2-0.1,0.3-0.3,0.3h-10.2c-0.2,0-0.3-0.1-0.3-0.3v-6.5
			c0-0.2,0.1-0.3,0.3-0.3h10.2C-328.3-855.8-328.2-855.7-328.2-855.5z M-328.8-855.2h-9.6v5.9h9.6V-855.2z"/>
	</g>
	<g class="st1">
		<path class="st0" d="M-236.4-857c0.4-0.2,0.8-0.4,1.2-0.6c0.3-0.2,0.7-0.6,1-1h0.5v7.6h-0.7v-6.5c-0.1,0.1-0.2,0.2-0.3,0.3
			c-0.1,0.1-0.3,0.2-0.4,0.3c-0.2,0.1-0.3,0.2-0.5,0.3c-0.2,0.1-0.4,0.2-0.5,0.2L-236.4-857z"/>
		<path class="st0" d="M-228.3-850.8c-0.4,0-0.7-0.1-1-0.2c-0.3-0.1-0.5-0.2-0.7-0.4c-0.2-0.2-0.4-0.4-0.5-0.7
			c-0.1-0.3-0.2-0.5-0.2-0.8c0-0.3,0-0.5,0.1-0.7s0.2-0.4,0.3-0.6c0.1-0.2,0.3-0.3,0.4-0.4s0.3-0.2,0.5-0.3
			c-0.4-0.2-0.7-0.5-0.9-0.8c-0.2-0.3-0.2-0.6-0.2-1c0-0.3,0.1-0.6,0.2-0.9c0.1-0.3,0.3-0.5,0.5-0.7c0.2-0.2,0.4-0.3,0.7-0.4
			c0.3-0.1,0.6-0.1,0.9-0.1c0.4,0,0.7,0.1,1,0.2c0.3,0.1,0.5,0.3,0.7,0.4s0.3,0.4,0.4,0.6c0.1,0.2,0.1,0.5,0.1,0.7
			c0,0.2,0,0.5-0.1,0.7c-0.1,0.2-0.2,0.4-0.3,0.6s-0.2,0.3-0.4,0.4c-0.1,0.1-0.3,0.2-0.4,0.3c0.5,0.2,0.9,0.5,1.1,0.8
			c0.2,0.3,0.3,0.7,0.3,1c0,0.3-0.1,0.6-0.2,0.9c-0.1,0.3-0.3,0.5-0.5,0.7c-0.2,0.2-0.5,0.3-0.7,0.4
			C-227.6-850.8-227.9-850.8-228.3-850.8z M-226.7-852.9c0-0.3-0.1-0.6-0.2-0.8c-0.1-0.2-0.3-0.4-0.5-0.5c-0.2-0.1-0.4-0.2-0.7-0.3
			c-0.2-0.1-0.5-0.1-0.7-0.2c-0.4,0.2-0.7,0.4-0.9,0.7c-0.2,0.3-0.3,0.7-0.3,1.1c0,0.2,0,0.4,0.1,0.6s0.2,0.3,0.3,0.5
			c0.1,0.1,0.3,0.2,0.5,0.3c0.2,0.1,0.4,0.1,0.7,0.1c0.3,0,0.5,0,0.7-0.1c0.2-0.1,0.4-0.2,0.5-0.3c0.1-0.1,0.2-0.3,0.3-0.5
			S-226.7-852.6-226.7-852.9z M-229.8-856.7c0,0.2,0,0.4,0.1,0.6c0,0.2,0.1,0.3,0.3,0.5s0.3,0.3,0.5,0.4c0.2,0.1,0.5,0.2,0.9,0.3
			c0.3-0.2,0.6-0.4,0.8-0.7c0.2-0.3,0.3-0.6,0.3-1c0-0.2,0-0.3-0.1-0.5c-0.1-0.2-0.1-0.3-0.3-0.4c-0.1-0.1-0.3-0.2-0.4-0.3
			s-0.4-0.1-0.7-0.1c-0.2,0-0.5,0-0.6,0.1c-0.2,0.1-0.3,0.2-0.5,0.3c-0.1,0.1-0.2,0.3-0.3,0.4S-229.8-856.9-229.8-856.7z"/>
		<path class="st0" d="M-223.2-856c0,0.2-0.1,0.3-0.2,0.4c-0.1,0.1-0.3,0.2-0.4,0.2c-0.2,0-0.3-0.1-0.4-0.2
			c-0.1-0.1-0.2-0.3-0.2-0.4s0.1-0.3,0.2-0.4c0.1-0.1,0.3-0.2,0.4-0.2c0.2,0,0.3,0.1,0.4,0.2S-223.2-856.2-223.2-856z M-223.2-851.4
			c0,0.2-0.1,0.3-0.2,0.4s-0.3,0.2-0.4,0.2c-0.2,0-0.3-0.1-0.4-0.2c-0.1-0.1-0.2-0.3-0.2-0.4c0-0.2,0.1-0.3,0.2-0.4
			c0.1-0.1,0.3-0.2,0.4-0.2c0.2,0,0.3,0.1,0.4,0.2S-223.2-851.6-223.2-851.4z"/>
		<path class="st0" d="M-219.9-851.4c0.7,0,1.2-0.1,1.5-0.4s0.5-0.7,0.5-1.2c0-0.3-0.1-0.6-0.2-0.8c-0.1-0.2-0.3-0.4-0.5-0.5
			c-0.2-0.1-0.5-0.2-0.7-0.3c-0.3-0.1-0.6-0.1-0.9-0.1h-0.1v-0.6h0.3c0.2,0,0.4,0,0.6-0.1c0.2,0,0.4-0.1,0.6-0.2
			c0.2-0.1,0.3-0.3,0.4-0.4c0.1-0.2,0.2-0.4,0.2-0.7c0-0.2,0-0.4-0.1-0.6c-0.1-0.2-0.2-0.3-0.3-0.4s-0.3-0.2-0.5-0.2
			s-0.4-0.1-0.6-0.1c-0.4,0-0.7,0.1-0.9,0.2c-0.2,0.1-0.4,0.2-0.5,0.3l-0.3-0.6c0.1-0.1,0.2-0.1,0.3-0.2c0.1-0.1,0.2-0.1,0.4-0.2
			c0.2-0.1,0.3-0.1,0.5-0.1c0.2,0,0.4-0.1,0.6-0.1c0.4,0,0.7,0,1,0.1c0.3,0.1,0.5,0.2,0.7,0.4c0.2,0.2,0.3,0.4,0.4,0.6
			c0.1,0.2,0.1,0.5,0.1,0.8c0,0.4-0.1,0.8-0.4,1.1c-0.2,0.3-0.5,0.5-0.9,0.6c0.2,0.1,0.4,0.1,0.6,0.2s0.4,0.2,0.5,0.4
			s0.3,0.4,0.4,0.6c0.1,0.2,0.1,0.5,0.1,0.8c0,0.3-0.1,0.6-0.2,0.9c-0.1,0.3-0.3,0.5-0.5,0.7c-0.2,0.2-0.5,0.4-0.9,0.5
			s-0.7,0.2-1.2,0.2c-0.2,0-0.5,0-0.7,0c-0.2,0-0.4-0.1-0.5-0.1c-0.2,0-0.3-0.1-0.4-0.1c-0.1,0-0.2-0.1-0.2-0.1l0.2-0.6
			c0,0,0.1,0.1,0.2,0.1c0.1,0,0.2,0.1,0.4,0.1c0.1,0,0.3,0.1,0.5,0.1S-220.1-851.4-219.9-851.4z"/>
		<path class="st0" d="M-214.4-850.9c0-0.6,0.2-1.3,0.3-1.9c0.2-0.7,0.4-1.3,0.7-2c0.3-0.6,0.5-1.2,0.8-1.8s0.6-1,0.9-1.3h-3.9v-0.7
			h4.6v0.6c-0.2,0.3-0.5,0.7-0.8,1.2c-0.3,0.5-0.6,1.1-0.8,1.7c-0.3,0.6-0.5,1.3-0.7,2c-0.2,0.7-0.3,1.4-0.4,2.1H-214.4z"/>
	</g>
</g>
</svg>
