<svg xmlns="http://www.w3.org/2000/svg" viewBox="-888.608 -387.423 22.239 45.878">
  <defs>
    <style>
      .cls-1 {
        fill: #f47211;
      }
    </style>
  </defs>
  <path id="Pfad_25" data-name="Pfad 25" class="cls-1" d="M135.334,239a5.418,5.418,0,0,0-5.435,5.406h0V264.18a10.967,10.967,0,0,0-4.148,15.08,11.09,11.09,0,0,0,15.161,4.126,11.178,11.178,0,0,0,0-19.348V244.121A5.6,5.6,0,0,0,135.334,239Zm10.155,34.854a10.084,10.084,0,1,1-14.732-8.963c.143-.142.286-.284.286-.427V259.2h4a.569.569,0,1,0,0-1.138h-4v-4.126h4a.569.569,0,1,0,0-1.138h-4v-3.841h4a.569.569,0,1,0,0-1.138h-4v-3.557a4.434,4.434,0,0,1,8.868,0v20.343c0,.142.143.427.286.427A10.171,10.171,0,0,1,145.489,273.854Z" transform="translate(-1012.859 -626.423)"/>
</svg>
