<svg xmlns="http://www.w3.org/2000/svg" xmlns:xlink="http://www.w3.org/1999/xlink" viewBox="-1318 160.895 218 100.21">
  <defs>
    <style>
      .cls-1 {
        fill: #fff;
      }

      .cls-2 {
        clip-path: url(#clip-path);
      }

      .cls-3 {
        clip-path: url(#clip-path-2);
      }

      .cls-4 {
        fill: url(#linear-gradient);
      }
    </style>
    <clipPath id="clip-path">
      <rect id="Rechteck_103" data-name="Rechteck 103" class="cls-1" width="218" height="100.21" transform="translate(22 119.895)"/>
    </clipPath>
    <clipPath id="clip-path-2">
      <path id="Differenzmenge_1" data-name="Differenzmenge 1" class="cls-1" d="M1422.629,124.258a83.24,83.24,0,0,1-16.653-1.679,82.177,82.177,0,0,1-29.546-12.433,82.87,82.87,0,0,1-29.937-36.354,82.23,82.23,0,0,1-4.815-15.51,83.436,83.436,0,0,1,0-33.305A82.176,82.176,0,0,1,1354.112-4.57a83.085,83.085,0,0,1,22.319-22.319,82.177,82.177,0,0,1,29.546-12.433,83.434,83.434,0,0,1,33.305,0,82.177,82.177,0,0,1,29.546,12.433,82.872,82.872,0,0,1,29.937,36.354,82.2,82.2,0,0,1,4.815,15.51,83.436,83.436,0,0,1,0,33.305,82.176,82.176,0,0,1-12.433,29.546,83.084,83.084,0,0,1-22.319,22.318,82.177,82.177,0,0,1-29.546,12.433A83.24,83.24,0,0,1,1422.629,124.258Zm0-161.93a79.889,79.889,0,0,0-15.982,1.611,78.867,78.867,0,0,0-28.356,11.932,79.531,79.531,0,0,0-28.732,34.89,78.9,78.9,0,0,0-4.621,14.886,80.077,80.077,0,0,0,0,31.964,78.872,78.872,0,0,0,11.932,28.356,79.737,79.737,0,0,0,21.42,21.42,78.867,78.867,0,0,0,28.356,11.932,80.074,80.074,0,0,0,31.964,0,78.866,78.866,0,0,0,28.356-11.932A79.531,79.531,0,0,0,1495.7,72.5a78.9,78.9,0,0,0,4.621-14.886,80.077,80.077,0,0,0,0-31.964,78.87,78.87,0,0,0-11.932-28.356,79.739,79.739,0,0,0-21.42-21.42,78.866,78.866,0,0,0-28.356-11.932A79.886,79.886,0,0,0,1422.629-37.672Z" transform="translate(-1291.629 178.476)"/>
    </clipPath>
    <linearGradient id="linear-gradient" x1="0.5" x2="0.5" y2="1" gradientUnits="objectBoundingBox">
      <stop offset="0" stop-color="#f46811"/>
      <stop offset="1" stop-color="#6490cc"/>
    </linearGradient>
  </defs>
  <g id="Gruppe_maskieren_16" data-name="Gruppe maskieren 16" class="cls-2" transform="translate(-1340 41)">
    <g id="Gruppe_maskieren_15" data-name="Gruppe maskieren 15" class="cls-3">
      <rect id="Rechteck_104" data-name="Rechteck 104" class="cls-4" width="184" height="195" rx="5" transform="translate(229 127) rotate(90)"/>
    </g>
  </g>
</svg>
